SplineFontDB: 3.0
FontName: Volkhov-Regular
FullName: Volkhov
FamilyName: Volkhov
Weight: Book
Copyright: Copyright (c) 2011, Cyreal (www.cyreal.org)\nwith Reserved Font Name "Volkhov" and "Volkhov Regular".\n\nThis Font Software is licensed under the SIL Open Font License,\nVersion 1.1. This license is available with a FAQ at:\nhttp://scripts.sil.org/OFL
Version: 1.001
ItalicAngle: 0
UnderlinePosition: -50
UnderlineWidth: 50
Ascent: 800
Descent: 200
sfntRevision: 0x00010041
LayerCount: 2
Layer: 0 1 "Back"  1
Layer: 1 1 "Fore"  0
XUID: [1021 288 713564382 1704387]
FSType: 0
OS2Version: 3
OS2_WeightWidthSlopeOnly: 0
OS2_UseTypoMetrics: 1
CreationTime: 1312461480
ModificationTime: 1313167080
PfmFamily: 17
TTFWeight: 400
TTFWidth: 5
LineGap: 0
VLineGap: 0
Panose: 2 0 5 3 0 0 0 2 0 4
OS2TypoAscent: 971
OS2TypoAOffset: 0
OS2TypoDescent: -319
OS2TypoDOffset: 0
OS2TypoLinegap: 0
OS2WinAscent: 971
OS2WinAOffset: 0
OS2WinDescent: 319
OS2WinDOffset: 0
HheadAscent: 971
HheadAOffset: 0
HheadDescent: -319
HheadDOffset: 0
OS2SubXSize: 700
OS2SubYSize: 650
OS2SubXOff: 0
OS2SubYOff: 140
OS2SupXSize: 700
OS2SupYSize: 650
OS2SupXOff: 0
OS2SupYOff: 477
OS2StrikeYSize: 50
OS2StrikeYPos: 250
OS2Vendor: 'PYRS'
OS2CodePages: 00000003.00000000
OS2UnicodeRanges: 800000a7.00000043.00000000.00000000
Lookup: 258 0 0 "'kern' Horizontal Kerning in Latin lookup 0"  {"'kern' Horizontal Kerning in Latin lookup 0 subtable"  } ['kern' ('DFLT' <'dflt' > 'latn' <'dflt' > ) ]
MarkAttachClasses: 1
DEI: 91125
TtTable: prep
PUSHW_1
 511
SCANCTRL
PUSHB_1
 4
SCANTYPE
EndTTInstrs
TtTable: fpgm
PUSHB_1
 0
FDEF
PUSHB_1
 0
SZP0
MPPEM
PUSHB_1
 42
LT
IF
PUSHB_1
 74
SROUND
EIF
PUSHB_1
 0
SWAP
MIAP[rnd]
RTG
PUSHB_1
 6
CALL
IF
RTDG
EIF
MPPEM
PUSHB_1
 42
LT
IF
RDTG
EIF
DUP
MDRP[rp0,rnd,grey]
PUSHB_1
 1
SZP0
MDAP[no-rnd]
RTG
ENDF
PUSHB_1
 1
FDEF
DUP
MDRP[rp0,min,white]
PUSHB_1
 12
CALL
ENDF
PUSHB_1
 2
FDEF
MPPEM
GT
IF
RCVT
SWAP
EIF
POP
ENDF
PUSHB_1
 3
FDEF
ROUND[Black]
RTG
DUP
PUSHB_1
 64
LT
IF
POP
PUSHB_1
 64
EIF

StartChar: exclam
Encoding: 33 33 4
Width: 284
Flags: W
LayerCount: 2
Fore
SplineSet
74 55 m 128,-1,1
 74 83 74 83 94 102.5 c 128,-1,2
 114 122 114 122 142 122 c 128,-1,3
 170 122 170 122 189.5 102.5 c 128,-1,4
 209 83 209 83 209 55 c 128,-1,5
 209 27 209 27 189.5 6.5 c 128,-1,6
 170 -14 170 -14 142 -14 c 128,-1,7
 114 -14 114 -14 94 6.5 c 128,-1,0
 74 27 74 27 74 55 c 128,-1,1
79 700 m 1,8,-1
 205 700 l 1,9,-1
 185 208 l 1,10,-1
 99 208 l 1,11,-1
 79 700 l 1,8,-1
EndSplineSet
EndChar

StartChar: quotedbl
Encoding: 34 34 5
Width: 363
Flags: W
LayerCount: 2
Fore
SplineSet
42 715 m 1,0,-1
 148 715 l 1,1,-1
 118 480 l 1,2,-1
 72 480 l 1,3,-1
 42 715 l 1,0,-1
215 715 m 1,4,-1
 321 715 l 1,5,-1
 291 480 l 1,6,-1
 245 480 l 1,7,-1
 215 715 l 1,4,-1
EndSplineSet
EndChar

StartChar: numbersign
Encoding: 35 35 6
Width: 590
Flags: W
LayerCount: 2
Fore
SplineSet
204 265 m 1,0,-1
 339 265 l 1,1,-1
 376 456 l 1,2,-1
 240 456 l 1,3,-1
 204 265 l 1,0,-1
72 520 m 1,4,-1
 188 520 l 1,5,-1
 224 715 l 1,6,-1
 290 715 l 1,7,-1
 253 520 l 1,8,-1
 387 520 l 1,9,-1
 424 715 l 1,10,-1
 490 715 l 1,11,-1
 452 520 l 1,12,-1
 545 520 l 1,13,-1
 545 456 l 1,14,-1
 441 456 l 1,15,-1
 404 265 l 1,16,-1
 518 265 l 1,17,-1
 518 201 l 1,18,-1
 392 201 l 1,19,-1
 355 0 l 1,20,-1
 290 0 l 1,21,-1
 327 201 l 1,22,-1
 193 201 l 1,23,-1
 155 0 l 1,24,-1
 90 0 l 1,25,-1
 128 201 l 1,26,-1
 46 201 l 1,27,-1
 46 265 l 1,28,-1
 139 265 l 1,29,-1
 175 456 l 1,30,-1
 72 456 l 1,31,-1
 72 520 l 1,4,-1
EndSplineSet
EndChar

StartChar: dollar
Encoding: 36 36 7
Width: 598
Flags: W
LayerCount: 2
Fore
SplineSet
172 548 m 0,0,1
 172 510 172 510 199 485.5 c 128,-1,2
 226 461 226 461 271 441 c 1,3,-1
 271 649 l 1,4,5
 172 627 172 627 172 548 c 0,0,1
437 169 m 0,6,7
 437 212 437 212 409 238.5 c 128,-1,8
 381 265 381 265 336 288 c 1,9,-1
 336 57 l 1,10,11
 437 82 437 82 437 169 c 0,6,7
60 216 m 1,12,-1
 106 216 l 1,13,-1
 157 63 l 1,14,15
 204 48 204 48 261 48 c 2,16,-1
 271 48 l 1,17,-1
 271 316 l 1,18,19
 178 351 178 351 139 385 c 0,20,21
 64 452 64 452 64 534 c 0,22,23
 64 651 64 651 188 697 c 0,24,25
 226 711 226 711 271 714 c 1,26,-1
 271 777 l 1,27,-1
 336 777 l 1,28,-1
 336 714 l 1,29,30
 423 711 423 711 505 684 c 1,31,-1
 505 500 l 1,32,-1
 459 500 l 1,33,-1
 434 574 l 2,34,35
 422 610 422 610 411 646 c 1,36,37
 377 652 377 652 336 654 c 1,38,-1
 336 415 l 1,39,40
 341 412 341 412 348 410 c 1,41,-1
 359 405 l 1,42,43
 443 370 443 370 479 337 c 0,44,45
 548 273 548 273 549 210 c 0,46,47
 549 208 549 208 549 205 c 0,48,49
 549 103 549 103 491 50 c 1,50,51
 430 -4 430 -4 336 -12 c 1,52,-1
 336 -83 l 1,53,-1
 271 -83 l 1,54,-1
 271 -15 l 1,55,56
 155 -13 155 -13 60 32 c 1,57,-1
 60 216 l 1,12,-1
EndSplineSet
EndChar

StartChar: percent
Encoding: 37 37 8
Width: 759
Flags: W
LayerCount: 2
Fore
SplineSet
240 0 m 1,0,-1
 169 0 l 1,1,-1
 526 715 l 1,2,-1
 596 715 l 1,3,-1
 240 0 l 1,0,-1
508 157 m 128,-1,5
 508 24 508 24 569.5 24 c 128,-1,6
 631 24 631 24 631 157 c 128,-1,7
 631 290 631 290 569.5 290 c 128,-1,4
 508 290 508 290 508 157 c 128,-1,5
569 -15 m 128,-1,9
 533 -15 533 -15 505 -1.5 c 128,-1,10
 477 12 477 12 458 35.5 c 128,-1,11
 439 59 439 59 429 90.5 c 128,-1,12
 419 122 419 122 419 158 c 128,-1,13
 419 194 419 194 429 225 c 128,-1,14
 439 256 439 256 458 279.5 c 128,-1,15
 477 303 477 303 505 316.5 c 128,-1,16
 533 330 533 330 569 330 c 128,-1,17
 605 330 605 330 633 316.5 c 128,-1,18
 661 303 661 303 680 279.5 c 128,-1,19
 699 256 699 256 709 225 c 128,-1,20
 719 194 719 194 719 158 c 128,-1,21
 719 122 719 122 709 90.5 c 128,-1,22
 699 59 699 59 680 35.5 c 128,-1,23
 661 12 661 12 633 -1.5 c 128,-1,8
 605 -15 605 -15 569 -15 c 128,-1,9
129 542 m 128,-1,25
 129 409 129 409 190.5 409 c 128,-1,26
 252 409 252 409 252 542 c 128,-1,27
 252 675 252 675 190.5 675 c 128,-1,24
 129 675 129 675 129 542 c 128,-1,25
191 370 m 128,-1,29
 155 370 155 370 126.5 383.5 c 128,-1,30
 98 397 98 397 79 420.5 c 128,-1,31
 60 444 60 444 50 475.5 c 128,-1,32
 40 507 40 507 40 543 c 128,-1,33
 40 579 40 579 50 610 c 128,-1,34
 60 641 60 641 79 664.5 c 128,-1,35
 98 688 98 688 126.5 701.5 c 128,-1,36
 155 715 155 715 191 715 c 128,-1,37
 227 715 227 715 255 701.5 c 128,-1,38
 283 688 283 688 301.5 664.5 c 128,-1,39
 320 641 320 641 330 610 c 128,-1,40
 340 579 340 579 340 543 c 128,-1,41
 340 507 340 507 330 475.5 c 128,-1,42
 320 444 320 444 301.5 420.5 c 128,-1,43
 283 397 283 397 255 383.5 c 128,-1,28
 227 370 227 370 191 370 c 128,-1,29
EndSplineSet
EndChar

StartChar: ampersand
Encoding: 38 38 9
Width: 767
Flags: W
LayerCount: 2
Fore
SplineSet
221 574 m 128,-1,1
 221 539 221 539 232 512.5 c 128,-1,2
 243 486 243 486 278 450 c 1,3,-1
 308 417 l 1,4,5
 343 439 343 439 369 477 c 128,-1,6
 395 515 395 515 395 562.5 c 128,-1,7
 395 610 395 610 369 634 c 128,-1,8
 343 658 343 658 308.5 658 c 128,-1,9
 274 658 274 658 247.5 633.5 c 128,-1,0
 221 609 221 609 221 574 c 128,-1,1
253 323 m 1,10,11
 164 251 164 251 164 169 c 128,-1,12
 164 87 164 87 234 56 c 0,13,14
 257 45 257 45 301 45 c 0,15,16
 391 45 391 45 460 125 c 1,17,-1
 253 323 l 1,10,11
487 390 m 1,18,-1
 692 390 l 1,19,-1
 692 345 l 1,20,-1
 606 323 l 1,21,22
 594 237 594 237 559 166 c 1,23,-1
 660 69 l 1,24,-1
 760 45 l 1,25,-1
 760 0 l 1,26,-1
 590 0 l 1,27,-1
 504 82 l 1,28,29
 416 -15 416 -15 271 -15 c 128,-1,30
 126 -15 126 -15 70 85 c 0,31,32
 51 119 51 119 51 166 c 0,33,34
 51 285 51 285 208 370 c 1,35,36
 113 471 113 471 113 560 c 0,37,38
 113 675 113 675 236 706 c 0,39,40
 271 715 271 715 309 715 c 0,41,42
 390 715 390 715 447 675 c 128,-1,43
 504 635 504 635 504 563 c 0,44,45
 504 448 504 448 350 371 c 1,46,-1
 513 209 l 1,47,48
 535 258 535 258 547 323 c 1,49,-1
 487 345 l 1,50,-1
 487 390 l 1,18,-1
EndSplineSet
EndChar

StartChar: quotesingle
Encoding: 39 39 10
Width: 200
Flags: W
LayerCount: 2
Fore
SplineSet
42 715 m 1,0,-1
 158 715 l 1,1,-1
 128 480 l 1,2,-1
 72 480 l 1,3,-1
 42 715 l 1,0,-1
EndSplineSet
EndChar

StartChar: parenleft
Encoding: 40 40 11
Width: 332
Flags: W
LayerCount: 2
Fore
SplineSet
34 250 m 0,0,1
 34 426 34 426 110.5 571 c 128,-1,2
 187 716 187 716 309 799 c 1,3,-1
 333 770 l 1,4,5
 187 627 187 627 146 398 c 0,6,7
 133 325 133 325 133 250 c 0,8,9
 133 95 133 95 185 -41.5 c 128,-1,10
 237 -178 237 -178 333 -270 c 1,11,-1
 309 -299 l 1,12,13
 119 -169 119 -169 56 75 c 0,14,15
 34 158 34 158 34 250 c 0,0,1
EndSplineSet
EndChar

StartChar: parenright
Encoding: 41 41 12
Width: 332
Flags: W
LayerCount: 2
Fore
SplineSet
199 250 m 0,0,1
 199 402 199 402 147.5 538.5 c 128,-1,2
 96 675 96 675 -1 770 c 1,3,-1
 23 799 l 1,4,5
 213 669 213 669 276 424 c 0,6,7
 298 341 298 341 298 250 c 0,8,9
 298 73 298 73 221.5 -71 c 128,-1,10
 145 -215 145 -215 23 -299 c 1,11,-1
 -1 -270 l 1,12,13
 145 -130 145 -130 186 100 c 0,14,15
 199 174 199 174 199 250 c 0,0,1
EndSplineSet
EndChar

StartChar: asterisk
Encoding: 42 42 13
Width: 471
Flags: W
LayerCount: 2
Fore
SplineSet
401 669 m 1,0,-1
 427 591 l 1,1,-1
 274 557 l 1,2,-1
 380 443 l 1,3,-1
 313 394 l 1,4,-1
 235 529 l 1,5,-1
 159 393 l 1,6,-1
 90 444 l 1,7,-1
 196 558 l 1,8,-1
 44 591 l 1,9,-1
 70 670 l 1,10,-1
 211 604 l 1,11,-1
 193 760 l 1,12,-1
 277 760 l 1,13,-1
 259 604 l 1,14,-1
 401 669 l 1,0,-1
EndSplineSet
EndChar

StartChar: plus
Encoding: 43 43 14
Width: 543
Flags: W
LayerCount: 2
Fore
SplineSet
304 586 m 1,0,-1
 304 391 l 1,1,-1
 501 391 l 1,2,-1
 501 323 l 1,3,-1
 304 323 l 1,4,-1
 304 127 l 1,5,-1
 237 127 l 1,6,-1
 237 323 l 1,7,-1
 42 323 l 1,8,-1
 42 391 l 1,9,-1
 237 391 l 1,10,-1
 237 586 l 1,11,-1
 304 586 l 1,0,-1
EndSplineSet
EndChar

StartChar: comma
Encoding: 44 44 15
Width: 238
Flags: W
LayerCount: 2
Fore
SplineSet
116 125 m 0,0,1
 191 125 191 125 191 45 c 0,2,3
 191 -36 191 -36 98 -134 c 0,4,5
 75 -159 75 -159 56 -173 c 1,6,-1
 19 -140 l 1,7,8
 77 -79 77 -79 109 -2 c 1,9,-1
 43 49 l 1,10,11
 43 84 43 84 66 104.5 c 128,-1,12
 89 125 89 125 116 125 c 0,0,1
EndSplineSet
EndChar

StartChar: hyphen
Encoding: 45 45 16
Width: 343
Flags: W
LayerCount: 2
Fore
SplineSet
62 312 m 1,0,-1
 281 312 l 1,1,-1
 281 235 l 1,2,-1
 62 235 l 1,3,-1
 62 312 l 1,0,-1
EndSplineSet
EndChar

StartChar: period
Encoding: 46 46 17
Width: 228
Flags: W
LayerCount: 2
Fore
SplineSet
46 53.5 m 128,-1,1
 46 81 46 81 66 100.5 c 128,-1,2
 86 120 86 120 114 120 c 128,-1,3
 142 120 142 120 161.5 100.5 c 128,-1,4
 181 81 181 81 181 53.5 c 128,-1,5
 181 26 181 26 161.5 5.5 c 128,-1,6
 142 -15 142 -15 114 -15 c 128,-1,7
 86 -15 86 -15 66 5.5 c 128,-1,0
 46 26 46 26 46 53.5 c 128,-1,1
EndSplineSet
EndChar

StartChar: slash
Encoding: 47 47 18
Width: 444
Flags: W
LayerCount: 2
Fore
SplineSet
106 0 m 1,0,-1
 29 0 l 1,1,-1
 340 700 l 1,2,-1
 416 700 l 1,3,-1
 106 0 l 1,0,-1
EndSplineSet
EndChar

StartChar: zero
Encoding: 48 48 19
Width: 632
Flags: W
LayerCount: 2
Fore
SplineSet
315.5 44 m 128,-1,1
 350 44 350 44 376 69.5 c 128,-1,2
 402 95 402 95 419 137.5 c 128,-1,3
 436 180 436 180 444.5 235 c 128,-1,4
 453 290 453 290 453 350 c 0,5,6
 453 478 453 478 417.5 567 c 128,-1,7
 382 656 382 656 316 656 c 128,-1,8
 250 656 250 656 214.5 567 c 128,-1,9
 179 478 179 478 179 384 c 128,-1,10
 179 290 179 290 187.5 235 c 128,-1,11
 196 180 196 180 213 137.5 c 128,-1,12
 230 95 230 95 255.5 69.5 c 128,-1,0
 281 44 281 44 315.5 44 c 128,-1,1
315.5 -15 m 128,-1,14
 248 -15 248 -15 198.5 15.5 c 128,-1,15
 149 46 149 46 116 96.5 c 128,-1,16
 83 147 83 147 67 213 c 128,-1,17
 51 279 51 279 51 350 c 0,18,19
 51 504 51 504 120 609.5 c 128,-1,20
 189 715 189 715 316 715 c 128,-1,21
 443 715 443 715 512 609.5 c 128,-1,22
 581 504 581 504 581 350 c 0,23,24
 581 106 581 106 433 16 c 0,25,13
 383 -15 383 -15 315.5 -15 c 128,-1,14
EndSplineSet
EndChar

StartChar: one
Encoding: 49 49 20
Width: 407
Flags: W
LayerCount: 2
Fore
SplineSet
368 0 m 1,0,-1
 46 0 l 1,1,-1
 46 43 l 1,2,-1
 161 63 l 1,3,-1
 161 599 l 1,4,-1
 41 548 l 1,5,-1
 25 589 l 1,6,-1
 236 700 l 1,7,-1
 283 700 l 1,8,-1
 283 62 l 1,9,-1
 368 43 l 1,10,-1
 368 0 l 1,0,-1
EndSplineSet
EndChar

StartChar: two
Encoding: 50 50 21
Width: 538
Flags: W
LayerCount: 2
Fore
SplineSet
44 665 m 1,0,1
 140 715 140 715 266 715 c 128,-1,2
 392 715 392 715 439 624 c 0,3,4
 455 593 455 593 455 541.5 c 128,-1,5
 455 490 455 490 426 427 c 0,6,7
 372 312 372 312 254 192 c 1,8,-1
 157 97 l 1,9,-1
 396 97 l 1,10,-1
 450 205 l 1,11,-1
 494 205 l 1,12,-1
 466 0 l 1,13,-1
 29 0 l 1,14,-1
 29 60 l 1,15,16
 33 65 33 65 57 89.5 c 128,-1,17
 81 114 81 114 114 152 c 1,18,19
 203 250 203 250 265.5 351.5 c 128,-1,20
 328 453 328 453 328 523.5 c 128,-1,21
 328 594 328 594 298.5 630 c 128,-1,22
 269 666 269 666 219 666 c 1,23,-1
 101 558 l 1,24,25
 48 598 48 598 44 665 c 1,0,1
EndSplineSet
EndChar

StartChar: three
Encoding: 51 51 22
Width: 539
Flags: W
LayerCount: 2
Fore
SplineSet
300 378 m 1,0,1
 491 346 491 346 491 184 c 0,2,3
 491 94 491 94 410 37 c 0,4,5
 336 -15 336 -15 225 -15 c 128,-1,6
 114 -15 114 -15 20 26 c 1,7,-1
 41 75 l 1,8,9
 119 47 119 47 176 47 c 0,10,11
 271 47 271 47 317.5 87.5 c 128,-1,12
 364 128 364 128 364 194 c 128,-1,13
 364 260 364 260 311 300 c 128,-1,14
 258 340 258 340 156 340 c 1,15,-1
 156 396 l 1,16,17
 233 396 233 396 280.5 438 c 128,-1,18
 328 480 328 480 328 540 c 128,-1,19
 328 600 328 600 296.5 634 c 128,-1,20
 265 668 265 668 213 668 c 1,21,-1
 101 566 l 1,22,23
 71 586 71 586 60 619.5 c 128,-1,24
 49 653 49 653 48 667 c 1,25,26
 133 715 133 715 215 715 c 0,27,28
 348 715 348 715 401 670.5 c 128,-1,29
 454 626 454 626 454 561 c 0,30,31
 454 427 454 427 300 378 c 1,0,1
EndSplineSet
EndChar

StartChar: four
Encoding: 52 52 23
Width: 568
Flags: W
LayerCount: 2
Fore
SplineSet
335 208 m 1,0,-1
 335 500 l 1,1,-1
 116 208 l 1,2,-1
 335 208 l 1,0,-1
442 700 m 1,3,-1
 442 208 l 1,4,-1
 521 208 l 1,5,-1
 521 138 l 1,6,-1
 442 138 l 1,7,-1
 442 -15 l 1,8,-1
 335 -15 l 1,9,-1
 335 138 l 1,10,-1
 8 138 l 1,11,-1
 8 181 l 1,12,-1
 393 700 l 1,13,-1
 442 700 l 1,3,-1
EndSplineSet
EndChar

StartChar: five
Encoding: 53 53 24
Width: 528
Flags: W
LayerCount: 2
Fore
SplineSet
305 92 m 128,-1,1
 356 138 356 138 356 214.5 c 128,-1,2
 356 291 356 291 326 324 c 0,3,4
 274 381 274 381 193 381 c 0,5,6
 159 381 159 381 98 368 c 1,7,-1
 76 381 l 1,8,-1
 105 700 l 1,9,-1
 402 700 l 1,10,-1
 444 740 l 1,11,-1
 484 722 l 1,12,-1
 438 604 l 1,13,-1
 162 604 l 1,14,-1
 147 433 l 1,15,16
 195 446 195 446 253 446 c 0,17,18
 361 446 361 446 421 381 c 128,-1,19
 481 316 481 316 481 244 c 0,20,21
 481 119 481 119 398 52 c 128,-1,22
 315 -15 315 -15 203.5 -15 c 128,-1,23
 92 -15 92 -15 22 27 c 1,24,-1
 44 74 l 1,25,26
 107 46 107 46 180.5 46 c 128,-1,0
 254 46 254 46 305 92 c 128,-1,1
EndSplineSet
EndChar

StartChar: six
Encoding: 54 54 25
Width: 569
Flags: W
LayerCount: 2
Fore
SplineSet
266.5 357 m 128,-1,1
 220 357 220 357 165 318 c 1,2,-1
 165 291 l 2,3,4
 165 121 165 121 241 60 c 0,5,6
 266 40 266 40 296 40 c 0,7,8
 349 40 349 40 380 87 c 128,-1,9
 411 134 411 134 411 182.5 c 128,-1,10
 411 231 411 231 402.5 260 c 128,-1,11
 394 289 394 289 378 310.5 c 128,-1,12
 362 332 362 332 337.5 344.5 c 128,-1,0
 313 357 313 357 266.5 357 c 128,-1,1
172 375 m 1,13,14
 241 436 241 436 333 436 c 128,-1,15
 425 436 425 436 480 374 c 128,-1,16
 535 312 535 312 535 214.5 c 128,-1,17
 535 117 535 117 475.5 51 c 128,-1,18
 416 -15 416 -15 299 -15 c 128,-1,19
 182 -15 182 -15 117 72 c 128,-1,20
 52 159 52 159 52 317.5 c 128,-1,21
 52 476 52 476 161 595.5 c 128,-1,22
 270 715 270 715 453 715 c 2,23,-1
 461 715 l 1,24,-1
 460 657 l 1,25,26
 342 657 342 657 266.5 577.5 c 128,-1,27
 191 498 191 498 172 375 c 1,13,14
EndSplineSet
EndChar

StartChar: seven
Encoding: 55 55 26
Width: 476
Flags: W
LayerCount: 2
Fore
SplineSet
475 700 m 1,0,-1
 475 656 l 1,1,2
 274 351 274 351 238 0 c 1,3,-1
 118 0 l 1,4,5
 146 218 146 218 292 484 c 0,6,7
 331 555 331 555 364 603 c 1,8,-1
 120 603 l 1,9,-1
 69 495 l 1,10,-1
 25 495 l 1,11,-1
 53 700 l 1,12,-1
 475 700 l 1,0,-1
EndSplineSet
EndChar

StartChar: eight
Encoding: 56 56 27
Width: 591
Flags: W
LayerCount: 2
Fore
SplineSet
341 416 m 1,0,1
 401 476 401 476 401 537 c 128,-1,2
 401 598 401 598 370 627 c 128,-1,3
 339 656 339 656 307 656 c 0,4,5
 255 656 255 656 226.5 631.5 c 128,-1,6
 198 607 198 607 198 573.5 c 128,-1,7
 198 540 198 540 214.5 511.5 c 128,-1,8
 231 483 231 483 288 448 c 2,9,-1
 341 416 l 1,0,1
317 297 m 1,10,-1
 261 333 l 1,11,12
 210 294 210 294 188.5 249 c 128,-1,13
 167 204 167 204 167 170 c 0,14,15
 167 108 167 108 204.5 75 c 128,-1,16
 242 42 242 42 278 42 c 128,-1,17
 314 42 314 42 336 49.5 c 128,-1,18
 358 57 358 57 374 72 c 0,19,20
 412 106 412 106 412 170 c 128,-1,21
 412 234 412 234 317 297 c 1,10,-1
527 180 m 0,22,23
 527 91 527 91 456.5 38 c 128,-1,24
 386 -15 386 -15 294.5 -15 c 128,-1,25
 203 -15 203 -15 134.5 34.5 c 128,-1,26
 66 84 66 84 66 169 c 0,27,28
 66 280 66 280 209 366 c 1,29,30
 84 451 84 451 84 550 c 0,31,32
 84 628 84 628 146.5 671.5 c 128,-1,33
 209 715 209 715 295 715 c 0,34,35
 430 715 430 715 484 626 c 1,36,37
 501 596 501 596 501 556 c 0,38,39
 501 461 501 461 393 385 c 1,40,41
 527 301 527 301 527 180 c 0,22,23
EndSplineSet
EndChar

StartChar: nine
Encoding: 57 57 28
Width: 569
Flags: W
LayerCount: 2
Fore
SplineSet
302.5 343 m 128,-1,1
 350 343 350 343 404 381 c 1,2,-1
 404 409 l 2,3,4
 404 579 404 579 328 640 c 0,5,6
 303 660 303 660 274 660 c 0,7,8
 219 660 219 660 188.5 612.5 c 128,-1,9
 158 565 158 565 158 517 c 128,-1,10
 158 469 158 469 166.5 440 c 128,-1,11
 175 411 175 411 191 389.5 c 128,-1,12
 207 368 207 368 231 355.5 c 128,-1,0
 255 343 255 343 302.5 343 c 128,-1,1
397 325 m 1,13,14
 328 264 328 264 236 264 c 128,-1,15
 144 264 144 264 89 326 c 128,-1,16
 34 388 34 388 34 485.5 c 128,-1,17
 34 583 34 583 93.5 649 c 128,-1,18
 153 715 153 715 270 715 c 128,-1,19
 387 715 387 715 452 628 c 128,-1,20
 517 541 517 541 517 382 c 128,-1,21
 517 223 517 223 407.5 104 c 128,-1,22
 298 -15 298 -15 116 -15 c 2,23,-1
 108 -15 l 1,24,-1
 108 43 l 1,25,26
 287 43 287 43 365 215 c 0,27,28
 388 266 388 266 397 325 c 1,13,14
EndSplineSet
EndChar

StartChar: colon
Encoding: 58 58 29
Width: 260
Flags: W
LayerCount: 2
Fore
SplineSet
130 460 m 128,-1,1
 158 460 158 460 177.5 440.5 c 128,-1,2
 197 421 197 421 197 393 c 128,-1,3
 197 365 197 365 177.5 345 c 128,-1,4
 158 325 158 325 130 325 c 128,-1,5
 102 325 102 325 82 345 c 128,-1,6
 62 365 62 365 62 393 c 128,-1,7
 62 421 62 421 82 440.5 c 128,-1,0
 102 460 102 460 130 460 c 128,-1,1
130 120 m 128,-1,9
 158 120 158 120 177.5 100.5 c 128,-1,10
 197 81 197 81 197 53.5 c 128,-1,11
 197 26 197 26 177.5 5.5 c 128,-1,12
 158 -15 158 -15 130 -15 c 128,-1,13
 102 -15 102 -15 82 5.5 c 128,-1,14
 62 26 62 26 62 53.5 c 128,-1,15
 62 81 62 81 82 100.5 c 128,-1,8
 102 120 102 120 130 120 c 128,-1,9
EndSplineSet
EndChar

StartChar: semicolon
Encoding: 59 59 30
Width: 275
Flags: W
LayerCount: 2
Fore
SplineSet
68 393 m 128,-1,1
 68 421 68 421 88.5 440.5 c 128,-1,2
 109 460 109 460 136.5 460 c 128,-1,3
 164 460 164 460 183.5 440.5 c 128,-1,4
 203 421 203 421 203 393 c 128,-1,5
 203 365 203 365 183.5 345 c 128,-1,6
 164 325 164 325 136.5 325 c 128,-1,7
 109 325 109 325 88.5 345 c 128,-1,0
 68 365 68 365 68 393 c 128,-1,1
137 125 m 0,8,9
 212 125 212 125 212 45 c 0,10,11
 212 -36 212 -36 120 -134 c 0,12,13
 96 -159 96 -159 77 -173 c 1,14,-1
 40 -140 l 1,15,16
 98 -79 98 -79 130 -2 c 1,17,-1
 64 49 l 1,18,19
 64 84 64 84 87 104.5 c 128,-1,20
 110 125 110 125 137 125 c 0,8,9
EndSplineSet
EndChar

StartChar: less
Encoding: 60 60 31
Width: 540
Flags: W
LayerCount: 2
Fore
SplineSet
38 330 m 1,0,-1
 38 385 l 1,1,-1
 467 616 l 1,2,-1
 467 539 l 1,3,-1
 132 357 l 1,4,-1
 467 177 l 1,5,-1
 467 100 l 1,6,-1
 38 330 l 1,0,-1
EndSplineSet
EndChar

StartChar: equal
Encoding: 61 61 32
Width: 597
Flags: W
LayerCount: 2
Fore
SplineSet
69 474 m 1,0,-1
 528 474 l 1,1,-1
 528 406 l 1,2,-1
 69 406 l 1,3,-1
 69 474 l 1,0,-1
69 308 m 1,4,-1
 528 308 l 1,5,-1
 528 241 l 1,6,-1
 69 241 l 1,7,-1
 69 308 l 1,4,-1
EndSplineSet
EndChar

StartChar: greater
Encoding: 62 62 33
Width: 540
Flags: W
LayerCount: 2
Fore
SplineSet
73 100 m 1,0,-1
 73 177 l 1,1,-1
 409 357 l 1,2,-1
 73 539 l 1,3,-1
 73 616 l 1,4,-1
 502 385 l 1,5,-1
 502 330 l 1,6,-1
 73 100 l 1,0,-1
EndSplineSet
EndChar

StartChar: question
Encoding: 63 63 34
Width: 491
Flags: W
LayerCount: 2
Fore
SplineSet
141 53.5 m 128,-1,1
 141 81 141 81 161.5 100.5 c 128,-1,2
 182 120 182 120 209.5 120 c 128,-1,3
 237 120 237 120 256.5 100.5 c 128,-1,4
 276 81 276 81 276 53.5 c 128,-1,5
 276 26 276 26 256.5 5.5 c 128,-1,6
 237 -15 237 -15 209.5 -15 c 128,-1,7
 182 -15 182 -15 161.5 5.5 c 128,-1,0
 141 26 141 26 141 53.5 c 128,-1,1
229.5 715 m 128,-1,9
 335 715 335 715 387 669 c 128,-1,10
 439 623 439 623 439 532.5 c 128,-1,11
 439 442 439 442 324 345 c 1,12,-1
 250 285 l 1,13,-1
 235 192 l 1,14,-1
 184 192 l 1,15,-1
 169 314 l 1,16,-1
 223 368 l 1,17,18
 312 463 312 463 312 548 c 0,19,20
 312 605 312 605 281 634 c 128,-1,21
 250 663 250 663 200 663 c 1,22,-1
 82 570 l 1,23,24
 40 606 40 606 35 667 c 1,25,8
 124 715 124 715 229.5 715 c 128,-1,9
EndSplineSet
EndChar

StartChar: at
Encoding: 64 64 35
Width: 909
Flags: W
LayerCount: 2
Fore
SplineSet
534.5 495 m 128,-1,1
 503 495 503 495 467.5 472 c 128,-1,2
 432 449 432 449 406 412 c 0,3,4
 351 334 351 334 351 248.5 c 128,-1,5
 351 163 351 163 396.5 163 c 128,-1,6
 442 163 442 163 500 230 c 0,7,8
 517 249 517 249 530 270 c 1,9,-1
 587 488 l 1,10,0
 566 495 566 495 534.5 495 c 128,-1,1
352 99 m 0,11,12
 253 99 253 99 253 237 c 0,13,14
 253 286 253 286 275 343.5 c 128,-1,15
 297 401 297 401 334 444 c 0,16,17
 415 535 415 535 528 535 c 0,18,19
 609 535 609 535 680 496 c 1,20,-1
 592 155 l 1,21,22
 681 155 681 155 743 232 c 128,-1,23
 805 309 805 309 805 413.5 c 128,-1,24
 805 518 805 518 717 590 c 128,-1,25
 629 662 629 662 491 662 c 128,-1,26
 353 662 353 662 248.5 555.5 c 128,-1,27
 144 449 144 449 144 286 c 128,-1,28
 144 123 144 123 247 34.5 c 128,-1,29
 350 -54 350 -54 498 -54 c 0,30,31
 596 -54 596 -54 684 -17 c 1,32,-1
 704 -51 l 1,33,34
 600 -110 600 -110 498 -110 c 0,35,36
 302 -110 302 -110 177.5 -7.5 c 128,-1,37
 53 95 53 95 53 283.5 c 128,-1,38
 53 472 53 472 180 593.5 c 128,-1,39
 307 715 307 715 484.5 715 c 128,-1,40
 662 715 662 715 765 627 c 128,-1,41
 868 539 868 539 868 405 c 128,-1,42
 868 271 868 271 762 179 c 0,43,44
 669 97 669 97 577 97 c 0,45,46
 564 97 564 97 551 99 c 0,47,48
 502 107 502 107 502 142 c 0,49,50
 502 170 502 170 507 182 c 1,51,52
 437 99 437 99 352 99 c 0,11,12
EndSplineSet
EndChar

StartChar: A
Encoding: 65 65 36
Width: 717
Flags: W
LayerCount: 2
Fore
SplineSet
228 257 m 1,0,-1
 429 257 l 1,1,-1
 331 530 l 1,2,-1
 228 257 l 1,0,-1
719 0 m 1,3,-1
 425 0 l 1,4,-1
 425 46 l 1,5,-1
 499 63 l 1,6,-1
 451 198 l 1,7,-1
 206 198 l 1,8,-1
 154 66 l 1,9,-1
 242 46 l 1,10,-1
 242 0 l 1,11,-1
 -10 0 l 1,12,-1
 -10 46 l 1,13,-1
 84 68 l 1,14,-1
 327 705 l 1,15,-1
 399 705 l 1,16,-1
 627 67 l 1,17,-1
 719 46 l 1,18,-1
 719 0 l 1,3,-1
EndSplineSet
EndChar

StartChar: B
Encoding: 66 66 37
Width: 679
Flags: W
LayerCount: 2
Fore
SplineSet
449 521 m 0,0,1
 449 639 449 639 310 639 c 2,2,-1
 259 639 l 1,3,-1
 259 395 l 1,4,-1
 316 395 l 2,5,6
 374 395 374 395 411.5 428.5 c 128,-1,7
 449 462 449 462 449 521 c 0,0,1
499 194 m 128,-1,9
 499 257 499 257 459 294.5 c 128,-1,10
 419 332 419 332 341 332 c 2,11,-1
 259 332 l 1,12,-1
 259 61 l 1,13,-1
 346 61 l 2,14,15
 419 61 419 61 459 96 c 128,-1,8
 499 131 499 131 499 194 c 128,-1,9
331 700 m 2,16,17
 575 700 575 700 575 530 c 0,18,19
 575 474 575 474 542 433.5 c 128,-1,20
 509 393 509 393 454 375 c 1,21,-1
 454 373 l 1,22,23
 536 358 536 358 580.5 312 c 128,-1,24
 625 266 625 266 625 209 c 0,25,26
 625 107 625 107 558 53.5 c 128,-1,27
 491 0 491 0 377 0 c 2,28,-1
 44 0 l 1,29,-1
 44 46 l 1,30,-1
 136 68 l 1,31,-1
 136 632 l 1,32,-1
 44 654 l 1,33,-1
 44 700 l 1,34,-1
 331 700 l 2,16,17
EndSplineSet
EndChar

StartChar: C
Encoding: 67 67 38
Width: 671
Flags: W
LayerCount: 2
Fore
SplineSet
51 350 m 0,0,1
 51 715 51 715 422 715 c 0,2,3
 523 715 523 715 608 680 c 1,4,-1
 608 491 l 1,5,-1
 562 491 l 1,6,-1
 516 639 l 1,7,8
 480 648 480 648 426 648 c 0,9,10
 177 648 177 648 177 350 c 128,-1,11
 177 52 177 52 406 52 c 0,12,13
 476 52 476 52 516 60 c 1,14,-1
 574 218 l 1,15,-1
 620 218 l 1,16,-1
 613 29 l 1,17,18
 540 -15 540 -15 382.5 -15 c 128,-1,19
 225 -15 225 -15 138 80.5 c 128,-1,20
 51 176 51 176 51 350 c 0,0,1
EndSplineSet
EndChar

StartChar: D
Encoding: 68 68 39
Width: 749
Flags: W
LayerCount: 2
Fore
SplineSet
573 350 m 0,0,1
 573 502 573 502 494.5 567.5 c 128,-1,2
 416 633 416 633 299 633 c 2,3,-1
 259 633 l 1,4,-1
 259 67 l 1,5,-1
 299 67 l 2,6,7
 573 67 573 67 573 350 c 0,0,1
44 700 m 1,8,-1
 304 700 l 2,9,10
 587 700 587 700 670 506 c 0,11,12
 699 440 699 440 699 356 c 0,13,14
 699 192 699 192 590 96 c 128,-1,15
 481 0 481 0 304 0 c 2,16,-1
 44 0 l 1,17,-1
 44 46 l 1,18,-1
 136 68 l 1,19,-1
 136 632 l 1,20,-1
 44 654 l 1,21,-1
 44 700 l 1,8,-1
EndSplineSet
EndChar

StartChar: E
Encoding: 69 69 40
Width: 641
Flags: W
LayerCount: 2
Fore
SplineSet
44 0 m 1,0,-1
 44 46 l 1,1,-1
 136 68 l 1,2,-1
 136 632 l 1,3,-1
 44 654 l 1,4,-1
 44 700 l 1,5,-1
 565 700 l 1,6,-1
 565 495 l 1,7,-1
 518 495 l 1,8,-1
 475 633 l 1,9,-1
 259 641 l 1,10,-1
 259 384 l 1,11,-1
 475 403 l 1,12,-1
 475 314 l 1,13,-1
 259 332 l 1,14,-1
 259 59 l 1,15,-1
 494 67 l 1,16,-1
 545 216 l 1,17,-1
 592 216 l 1,18,-1
 584 0 l 1,19,-1
 44 0 l 1,0,-1
EndSplineSet
EndChar

StartChar: F
Encoding: 70 70 41
Width: 590
Flags: W
LayerCount: 2
Fore
SplineSet
371 0 m 1,0,-1
 44 0 l 1,1,-1
 44 46 l 1,2,-1
 136 68 l 1,3,-1
 136 632 l 1,4,-1
 44 654 l 1,5,-1
 44 700 l 1,6,-1
 560 700 l 1,7,-1
 560 495 l 1,8,-1
 514 495 l 1,9,-1
 472 633 l 1,10,-1
 259 641 l 1,11,-1
 259 385 l 1,12,-1
 475 403 l 1,13,-1
 475 314 l 1,14,-1
 259 331 l 1,15,-1
 259 68 l 1,16,-1
 371 46 l 1,17,-1
 371 0 l 1,0,-1
EndSplineSet
EndChar

StartChar: G
Encoding: 71 71 42
Width: 726
Flags: W
LayerCount: 2
Fore
SplineSet
413 -15 m 0,0,1
 235 -15 235 -15 143 80.5 c 128,-1,2
 51 176 51 176 51 350 c 0,3,4
 51 616 51 616 266 690 c 0,5,6
 337 715 337 715 440.5 715 c 128,-1,7
 544 715 544 715 623 681 c 1,8,-1
 623 491 l 1,9,-1
 577 491 l 1,10,-1
 530 640 l 1,11,12
 479 648 479 648 446 648 c 0,13,14
 319 648 319 648 248 573.5 c 128,-1,15
 177 499 177 499 177 350 c 128,-1,16
 177 201 177 201 241 126.5 c 128,-1,17
 305 52 305 52 426 52 c 0,18,19
 472 52 472 52 505 59 c 1,20,-1
 505 268 l 1,21,-1
 391 289 l 1,22,-1
 391 324 l 1,23,-1
 702 324 l 1,24,-1
 702 289 l 1,25,-1
 628 268 l 1,26,-1
 628 34 l 1,27,28
 530 -15 530 -15 413 -15 c 0,0,1
EndSplineSet
EndChar

StartChar: H
Encoding: 72 72 43
Width: 827
Flags: W
LayerCount: 2
Fore
SplineSet
783 0 m 1,0,-1
 476 0 l 1,1,-1
 476 46 l 1,2,-1
 568 68 l 1,3,-1
 568 320 l 1,4,-1
 259 320 l 1,5,-1
 259 68 l 1,6,-1
 351 46 l 1,7,-1
 351 0 l 1,8,-1
 44 0 l 1,9,-1
 44 46 l 1,10,-1
 136 68 l 1,11,-1
 136 632 l 1,12,-1
 44 654 l 1,13,-1
 44 700 l 1,14,-1
 351 700 l 1,15,-1
 351 654 l 1,16,-1
 259 632 l 1,17,-1
 259 387 l 1,18,-1
 568 387 l 1,19,-1
 568 632 l 1,20,-1
 476 654 l 1,21,-1
 476 700 l 1,22,-1
 783 700 l 1,23,-1
 783 654 l 1,24,-1
 691 632 l 1,25,-1
 691 68 l 1,26,-1
 783 46 l 1,27,-1
 783 0 l 1,0,-1
EndSplineSet
EndChar

StartChar: I
Encoding: 73 73 44
Width: 395
Flags: W
LayerCount: 2
Fore
SplineSet
351 0 m 1,0,-1
 44 0 l 1,1,-1
 44 46 l 1,2,-1
 137 68 l 1,3,-1
 137 632 l 1,4,-1
 44 654 l 1,5,-1
 44 700 l 1,6,-1
 351 700 l 1,7,-1
 351 654 l 1,8,-1
 259 632 l 1,9,-1
 259 68 l 1,10,-1
 351 46 l 1,11,-1
 351 0 l 1,0,-1
EndSplineSet
EndChar

StartChar: J
Encoding: 74 74 45
Width: 375
Flags: W
LayerCount: 2
Fore
SplineSet
128 150 m 2,0,-1
 128 632 l 1,1,-1
 36 654 l 1,2,-1
 36 700 l 1,3,-1
 343 700 l 1,4,-1
 343 654 l 1,5,-1
 251 632 l 1,6,-1
 251 150 l 2,7,8
 251 45 251 45 186 -38 c 128,-1,9
 121 -121 121 -121 43 -154 c 1,10,-1
 8 -112 l 1,11,12
 128 -23 128 -23 128 150 c 2,0,-1
EndSplineSet
EndChar

StartChar: K
Encoding: 75 75 46
Width: 723
Flags: W
LayerCount: 2
Fore
SplineSet
456 700 m 1,0,-1
 696 700 l 1,1,-1
 696 654 l 1,2,-1
 607 632 l 1,3,-1
 392 393 l 1,4,-1
 627 78 l 1,5,-1
 722 46 l 1,6,-1
 722 0 l 1,7,-1
 529 0 l 1,8,-1
 281 359 l 1,9,-1
 528 637 l 1,10,-1
 456 654 l 1,11,-1
 456 700 l 1,0,-1
44 700 m 1,12,-1
 351 700 l 1,13,-1
 351 654 l 1,14,-1
 259 637 l 1,15,-1
 259 63 l 1,16,-1
 351 46 l 1,17,-1
 351 0 l 1,18,-1
 44 0 l 1,19,-1
 44 46 l 1,20,-1
 136 63 l 1,21,-1
 136 637 l 1,22,-1
 44 654 l 1,23,-1
 44 700 l 1,12,-1
EndSplineSet
EndChar

StartChar: L
Encoding: 76 76 47
Width: 618
Flags: W
LayerCount: 2
Fore
SplineSet
44 0 m 1,0,-1
 44 46 l 1,1,-1
 136 68 l 1,2,-1
 136 632 l 1,3,-1
 44 654 l 1,4,-1
 44 700 l 1,5,-1
 351 700 l 1,6,-1
 351 654 l 1,7,-1
 259 632 l 1,8,-1
 259 67 l 1,9,-1
 494 67 l 1,10,-1
 548 216 l 1,11,-1
 594 216 l 1,12,-1
 584 0 l 1,13,-1
 44 0 l 1,0,-1
EndSplineSet
EndChar

StartChar: M
Encoding: 77 77 48
Width: 1010
Flags: W
LayerCount: 2
Fore
SplineSet
942 700 m 1,0,-1
 942 654 l 1,1,-1
 852 633 l 1,2,-1
 886 68 l 1,3,-1
 982 46 l 1,4,-1
 982 0 l 1,5,-1
 678 0 l 1,6,-1
 678 46 l 1,7,-1
 766 67 l 1,8,-1
 739 541 l 1,9,-1
 502 -5 l 1,10,-1
 458 -5 l 1,11,-1
 218 542 l 1,12,-1
 193 67 l 1,13,-1
 282 46 l 1,14,-1
 282 0 l 1,15,-1
 30 0 l 1,16,-1
 30 46 l 1,17,-1
 125 69 l 1,18,-1
 157 633 l 1,19,-1
 69 654 l 1,20,-1
 70 700 l 1,21,-1
 284 700 l 1,22,-1
 509 178 l 1,23,-1
 736 700 l 1,24,-1
 942 700 l 1,0,-1
EndSplineSet
EndChar

StartChar: N
Encoding: 78 78 49
Width: 822
Flags: W
LayerCount: 2
Fore
SplineSet
696 0 m 1,0,-1
 636 0 l 1,1,-1
 206 507 l 1,2,-1
 206 68 l 1,3,-1
 298 46 l 1,4,-1
 298 0 l 1,5,-1
 44 0 l 1,6,-1
 44 46 l 1,7,-1
 136 68 l 1,8,-1
 136 632 l 1,9,-1
 44 654 l 1,10,-1
 44 700 l 1,11,-1
 206 700 l 1,12,-1
 623 205 l 1,13,-1
 623 632 l 1,14,-1
 531 654 l 1,15,-1
 531 700 l 1,16,-1
 788 700 l 1,17,-1
 788 654 l 1,18,-1
 696 632 l 1,19,-1
 696 0 l 1,0,-1
EndSplineSet
EndChar

StartChar: O
Encoding: 79 79 50
Width: 771
Flags: W
LayerCount: 2
Fore
SplineSet
386 44 m 128,-1,1
 439 44 439 44 478 68 c 128,-1,2
 517 92 517 92 542.5 133.5 c 128,-1,3
 568 175 568 175 580.5 231 c 128,-1,4
 593 287 593 287 593 350 c 128,-1,5
 593 413 593 413 580.5 469 c 128,-1,6
 568 525 568 525 542.5 566.5 c 128,-1,7
 517 608 517 608 478 632 c 128,-1,8
 439 656 439 656 386 656 c 128,-1,9
 333 656 333 656 294 632 c 128,-1,10
 255 608 255 608 229.5 566.5 c 128,-1,11
 204 525 204 525 191.5 469 c 128,-1,12
 179 413 179 413 179 350 c 128,-1,13
 179 287 179 287 191.5 231 c 128,-1,14
 204 175 204 175 229.5 133.5 c 128,-1,15
 255 92 255 92 294 68 c 128,-1,0
 333 44 333 44 386 44 c 128,-1,1
386 -15 m 128,-1,17
 299 -15 299 -15 236 14 c 128,-1,18
 173 43 173 43 131.5 92.5 c 128,-1,19
 90 142 90 142 70.5 208.5 c 128,-1,20
 51 275 51 275 51 350 c 128,-1,21
 51 425 51 425 70.5 491.5 c 128,-1,22
 90 558 90 558 131.5 607.5 c 128,-1,23
 173 657 173 657 236 686 c 128,-1,24
 299 715 299 715 386 715 c 128,-1,25
 473 715 473 715 536 686 c 128,-1,26
 599 657 599 657 640 607.5 c 128,-1,27
 681 558 681 558 701 491.5 c 128,-1,28
 721 425 721 425 721 350 c 128,-1,29
 721 275 721 275 701 208.5 c 128,-1,30
 681 142 681 142 640 92.5 c 128,-1,31
 599 43 599 43 536 14 c 128,-1,16
 473 -15 473 -15 386 -15 c 128,-1,17
EndSplineSet
EndChar

StartChar: P
Encoding: 80 80 51
Width: 634
Flags: W
LayerCount: 2
Fore
SplineSet
432 364 m 128,-1,1
 478 404 478 404 478 480.5 c 128,-1,2
 478 557 478 557 432 597 c 128,-1,3
 386 637 386 637 310 637 c 2,4,-1
 259 637 l 1,5,-1
 259 328 l 1,6,7
 281 324 281 324 333.5 324 c 128,-1,0
 386 324 386 324 432 364 c 128,-1,1
339 261 m 0,8,9
 294 261 294 261 259 266 c 1,10,-1
 259 68 l 1,11,-1
 381 46 l 1,12,-1
 381 0 l 1,13,-1
 44 0 l 1,14,-1
 44 46 l 1,15,-1
 136 68 l 1,16,-1
 136 632 l 1,17,-1
 44 654 l 1,18,-1
 44 700 l 1,19,-1
 310 700 l 2,20,21
 604 700 604 700 604 481 c 0,22,23
 604 371 604 371 527.5 316 c 128,-1,24
 451 261 451 261 339 261 c 0,8,9
EndSplineSet
EndChar

StartChar: Q
Encoding: 81 81 52
Width: 767
Flags: W
LayerCount: 2
Fore
SplineSet
588 350 m 0,0,1
 588 562 588 562 476 632 c 0,2,3
 437 656 437 656 384 656 c 128,-1,4
 331 656 331 656 292 632 c 128,-1,5
 253 608 253 608 228 566.5 c 128,-1,6
 203 525 203 525 191 469 c 128,-1,7
 179 413 179 413 179 350 c 0,8,9
 179 215 179 215 230.5 128.5 c 128,-1,10
 282 42 282 42 384 42 c 0,11,12
 588 42 588 42 588 350 c 0,0,1
659 -142 m 0,13,14
 461 -142 461 -142 387 -15 c 1,15,-1
 384 -15 l 2,16,17
 218 -15 218 -15 134.5 87.5 c 128,-1,18
 51 190 51 190 51 350 c 0,19,20
 51 602 51 602 234 686 c 0,21,22
 297 715 297 715 384 715 c 0,23,24
 549 715 549 715 632.5 612.5 c 128,-1,25
 716 510 716 510 716 350 c 0,26,27
 716 152 716 152 598 54 c 0,28,29
 557 20 557 20 502 2 c 1,30,31
 560 -72 560 -72 698 -89 c 0,32,33
 727 -93 727 -93 758 -93 c 0,34,35
 770 -93 770 -93 782 -92 c 1,36,-1
 770 -135 l 1,37,38
 707 -142 707 -142 659 -142 c 0,13,14
EndSplineSet
EndChar

StartChar: R
Encoding: 82 82 53
Width: 697
Flags: W
LayerCount: 2
Fore
SplineSet
479 505.5 m 128,-1,1
 479 572 479 572 434 604.5 c 128,-1,2
 389 637 389 637 317 637 c 2,3,-1
 259 637 l 1,4,-1
 259 369 l 1,5,-1
 317 369 l 2,6,7
 389 369 389 369 434 404 c 128,-1,0
 479 439 479 439 479 505.5 c 128,-1,1
605 504 m 0,8,9
 605 370 605 370 467 324 c 1,10,-1
 606 67 l 1,11,-1
 694 45 l 1,12,-1
 694 0 l 1,13,-1
 512 0 l 1,14,-1
 347 309 l 1,15,-1
 259 309 l 1,16,-1
 259 68 l 1,17,-1
 351 46 l 1,18,-1
 351 0 l 1,19,-1
 44 0 l 1,20,-1
 44 46 l 1,21,-1
 136 68 l 1,22,-1
 136 632 l 1,23,-1
 44 654 l 1,24,-1
 44 700 l 1,25,-1
 327 700 l 2,26,27
 446 700 446 700 500.5 670 c 128,-1,28
 555 640 555 640 580 602 c 128,-1,29
 605 564 605 564 605 504 c 0,8,9
EndSplineSet
EndChar

StartChar: S
Encoding: 83 83 54
Width: 589
Flags: W
LayerCount: 2
Fore
SplineSet
306 652 m 128,-1,1
 249 652 249 652 209.5 625.5 c 128,-1,2
 170 599 170 599 170 554 c 128,-1,3
 170 509 170 509 205 481.5 c 128,-1,4
 240 454 240 454 304 428 c 0,5,6
 430 375 430 375 474 336 c 0,7,8
 542 277 542 277 542 182.5 c 128,-1,9
 542 88 542 88 469 34 c 1,10,11
 401 -15 401 -15 289 -15 c 0,12,13
 279 -15 279 -15 269 -14 c 0,14,15
 143 -10 143 -10 63 17 c 1,16,-1
 63 214 l 1,17,-1
 109 214 l 1,18,-1
 160 64 l 1,19,20
 201 51 201 51 258 51 c 0,21,22
 432 51 432 51 432 165 c 0,23,24
 432 228 432 228 330 281 c 0,25,26
 299 297 299 297 254 316 c 0,27,28
 150 361 150 361 105.5 406 c 128,-1,29
 61 451 61 451 61 537 c 128,-1,30
 61 623 61 623 127.5 669 c 128,-1,31
 194 715 194 715 301.5 715 c 128,-1,32
 409 715 409 715 503 692 c 1,33,-1
 498 500 l 1,34,-1
 453 500 l 1,35,-1
 403 644 l 1,36,0
 363 652 363 652 306 652 c 128,-1,1
EndSplineSet
EndChar

StartChar: T
Encoding: 84 84 55
Width: 655
Flags: W
LayerCount: 2
Fore
SplineSet
30 488 m 1,0,-1
 30 700 l 1,1,-1
 625 700 l 1,2,-1
 625 488 l 1,3,-1
 578 488 l 1,4,-1
 533 633 l 1,5,-1
 389 641 l 1,6,-1
 389 68 l 1,7,-1
 481 46 l 1,8,-1
 481 0 l 1,9,-1
 174 0 l 1,10,-1
 174 46 l 1,11,-1
 266 68 l 1,12,-1
 266 641 l 1,13,-1
 121 633 l 1,14,-1
 77 488 l 1,15,-1
 30 488 l 1,0,-1
EndSplineSet
EndChar

StartChar: U
Encoding: 85 85 56
Width: 790
Flags: W
LayerCount: 2
Fore
SplineSet
676 262 m 2,0,1
 676 128 676 128 598 56.5 c 128,-1,2
 520 -15 520 -15 397 -15 c 0,3,4
 202 -15 202 -15 136 140 c 0,5,6
 114 192 114 192 114 262 c 2,7,-1
 114 632 l 1,8,-1
 22 654 l 1,9,-1
 22 700 l 1,10,-1
 329 700 l 1,11,-1
 329 654 l 1,12,-1
 237 632 l 1,13,-1
 237 262 l 2,14,15
 237 111 237 111 348 74 c 0,16,17
 381 62 381 62 420 62 c 0,18,19
 503 62 503 62 554 112 c 128,-1,20
 605 162 605 162 605 262 c 2,21,-1
 605 632 l 1,22,-1
 512 654 l 1,23,-1
 512 700 l 1,24,-1
 768 700 l 1,25,-1
 768 654 l 1,26,-1
 676 632 l 1,27,-1
 676 262 l 2,0,1
EndSplineSet
EndChar

StartChar: V
Encoding: 86 86 57
Width: 702
Flags: W
LayerCount: 2
Fore
SplineSet
-7 700 m 1,0,-1
 296 700 l 1,1,-1
 296 654 l 1,2,-1
 214 637 l 1,3,-1
 384 157 l 1,4,-1
 544 632 l 1,5,-1
 465 654 l 1,6,-1
 465 700 l 1,7,-1
 706 700 l 1,8,-1
 706 654 l 1,9,-1
 614 632 l 1,10,-1
 394 -7 l 1,11,-1
 315 -7 l 1,12,-1
 82 632 l 1,13,-1
 -7 654 l 1,14,-1
 -7 700 l 1,0,-1
EndSplineSet
EndChar

StartChar: W
Encoding: 87 87 58
Width: 1025
Flags: W
LayerCount: 2
Fore
SplineSet
-11 700 m 1,0,-1
 289 700 l 1,1,-1
 289 654 l 1,2,-1
 205 636 l 1,3,-1
 348 182 l 1,4,-1
 492 700 l 1,5,-1
 577 700 l 1,6,-1
 744 184 l 1,7,-1
 862 632 l 1,8,-1
 781 654 l 1,9,-1
 781 700 l 1,10,-1
 1023 700 l 1,11,-1
 1023 654 l 1,12,-1
 931 632 l 1,13,-1
 761 -7 l 1,14,-1
 682 -7 l 1,15,-1
 508 515 l 1,16,-1
 361 -7 l 1,17,-1
 284 -7 l 1,18,-1
 76 633 l 1,19,-1
 -11 654 l 1,20,-1
 -11 700 l 1,0,-1
EndSplineSet
EndChar

StartChar: X
Encoding: 88 88 59
Width: 732
Flags: W
LayerCount: 2
Fore
SplineSet
256 0 m 1,0,-1
 14 0 l 1,1,-1
 14 46 l 1,2,-1
 106 68 l 1,3,-1
 303 340 l 1,4,-1
 340 286 l 1,5,-1
 352 302 l 1,6,-1
 312 352 l 1,7,-1
 303 340 l 1,8,-1
 100 631 l 1,9,-1
 11 654 l 1,10,-1
 11 700 l 1,11,-1
 302 700 l 1,12,-1
 302 654 l 1,13,-1
 238 639 l 1,14,-1
 429 369 l 1,15,-1
 390 426 l 1,16,-1
 541 634 l 1,17,-1
 472 654 l 1,18,-1
 472 700 l 1,19,-1
 713 700 l 1,20,-1
 713 654 l 1,21,-1
 621 632 l 1,22,-1
 429 369 l 1,23,-1
 644 65 l 1,24,-1
 726 46 l 1,25,-1
 726 0 l 1,26,-1
 435 0 l 1,27,-1
 435 46 l 1,28,-1
 499 59 l 1,29,-1
 340 286 l 1,30,-1
 186 66 l 1,31,-1
 256 46 l 1,32,-1
 256 0 l 1,0,-1
EndSplineSet
EndChar

StartChar: Y
Encoding: 89 89 60
Width: 695
Flags: W
LayerCount: 2
Fore
SplineSet
453 700 m 1,0,-1
 698 700 l 1,1,-1
 698 654 l 1,2,-1
 606 632 l 1,3,-1
 412 323 l 1,4,-1
 412 68 l 1,5,-1
 504 46 l 1,6,-1
 504 0 l 1,7,-1
 197 0 l 1,8,-1
 197 46 l 1,9,-1
 289 68 l 1,10,-1
 289 320 l 1,11,-1
 72 634 l 1,12,-1
 -9 654 l 1,13,-1
 -9 700 l 1,14,-1
 279 700 l 1,15,-1
 279 654 l 1,16,-1
 214 641 l 1,17,-1
 379 398 l 1,18,-1
 527 634 l 1,19,-1
 453 654 l 1,20,-1
 453 700 l 1,0,-1
EndSplineSet
EndChar

StartChar: Z
Encoding: 90 90 61
Width: 643
Flags: W
LayerCount: 2
Fore
SplineSet
55 490 m 1,0,-1
 55 700 l 1,1,-1
 587 700 l 1,2,-1
 587 638 l 1,3,-1
 199 62 l 1,4,-1
 497 67 l 1,5,-1
 546 216 l 1,6,-1
 592 216 l 1,7,-1
 586 0 l 1,8,-1
 51 0 l 1,9,-1
 51 62 l 1,10,-1
 442 641 l 1,11,-1
 144 633 l 1,12,-1
 101 490 l 1,13,-1
 55 490 l 1,0,-1
EndSplineSet
EndChar

StartChar: bracketleft
Encoding: 91 91 62
Width: 333
Flags: W
LayerCount: 2
Fore
SplineSet
86 -128 m 1,0,-1
 86 760 l 1,1,-1
 314 760 l 1,2,-1
 314 705 l 1,3,-1
 200 705 l 1,4,-1
 200 -73 l 1,5,-1
 314 -73 l 1,6,-1
 314 -128 l 1,7,-1
 86 -128 l 1,0,-1
EndSplineSet
EndChar

StartChar: backslash
Encoding: 92 92 63
Width: 444
Flags: W
LayerCount: 2
Fore
SplineSet
28 700 m 1,0,-1
 104 700 l 1,1,-1
 415 0 l 1,2,-1
 338 0 l 1,3,-1
 28 700 l 1,0,-1
EndSplineSet
EndChar

StartChar: bracketright
Encoding: 93 93 64
Width: 333
Flags: W
LayerCount: 2
Fore
SplineSet
19 -128 m 1,0,-1
 19 -73 l 1,1,-1
 133 -73 l 1,2,-1
 133 705 l 1,3,-1
 19 705 l 1,4,-1
 19 760 l 1,5,-1
 247 760 l 1,6,-1
 247 -128 l 1,7,-1
 19 -128 l 1,0,-1
EndSplineSet
EndChar

StartChar: asciicircum
Encoding: 94 94 65
Width: 574
Flags: W
LayerCount: 2
Fore
SplineSet
261 715 m 1,0,-1
 311 715 l 1,1,-1
 522 267 l 1,2,-1
 447 267 l 1,3,-1
 285 623 l 1,4,-1
 125 267 l 1,5,-1
 51 267 l 1,6,-1
 261 715 l 1,0,-1
EndSplineSet
EndChar

StartChar: underscore
Encoding: 95 95 66
Width: 755
Flags: W
LayerCount: 2
Fore
SplineSet
607 -142 m 1,0,-1
 148 -142 l 1,1,-1
 148 -78 l 1,2,-1
 607 -78 l 1,3,-1
 607 -142 l 1,0,-1
EndSplineSet
EndChar

StartChar: grave
Encoding: 96 96 67
Width: 221
Flags: W
LayerCount: 2
Fore
SplineSet
151 591 m 1,0,-1
 109 562 l 1,1,-1
 -44 716 l 1,2,3
 -10 758 -10 758 50 769 c 1,4,-1
 151 591 l 1,0,-1
EndSplineSet
EndChar

StartChar: a
Encoding: 97 97 68
Width: 552
Flags: W
LayerCount: 2
Fore
SplineSet
248 55 m 0,0,1
 303 55 303 55 342 89 c 1,2,-1
 342 246 l 1,3,4
 249 246 249 246 205 212.5 c 128,-1,5
 161 179 161 179 161 128 c 0,6,7
 161 55 161 55 248 55 c 0,0,1
35 124 m 0,8,9
 35 297 35 297 342 297 c 1,10,-1
 342 332 l 2,11,12
 342 403 342 403 329 425 c 0,13,14
 305 466 305 466 241 466 c 1,15,-1
 124 366 l 1,16,17
 101 380 101 380 84 407.5 c 128,-1,18
 67 435 67 435 66 467 c 1,19,20
 155 515 155 515 257 515 c 0,21,22
 462 515 462 515 462 343 c 2,23,-1
 462 65 l 1,24,-1
 540 65 l 1,25,-1
 540 32 l 1,26,27
 493 -15 493 -15 433.5 -15 c 128,-1,28
 374 -15 374 -15 347 36 c 1,29,30
 278 -15 278 -15 184 -15 c 128,-1,31
 90 -15 90 -15 49 61 c 0,32,33
 35 87 35 87 35 124 c 0,8,9
EndSplineSet
EndChar

StartChar: b
Encoding: 98 98 69
Width: 593
Flags: W
LayerCount: 2
Fore
SplineSet
283 440 m 0,0,1
 247 440 247 440 193 414 c 1,2,-1
 193 48 l 1,3,4
 221 41 221 41 255 41 c 0,5,6
 328 41 328 41 377 98.5 c 128,-1,7
 426 156 426 156 426 265 c 0,8,9
 426 440 426 440 283 440 c 0,0,1
316 515 m 0,10,11
 426 515 426 515 488 452 c 128,-1,12
 550 389 550 389 550 261.5 c 128,-1,13
 550 134 550 134 465 59.5 c 128,-1,14
 380 -15 380 -15 268 -15 c 128,-1,15
 156 -15 156 -15 74 36 c 1,16,-1
 74 719 l 1,17,-1
 -11 719 l 1,18,-1
 -11 762 l 1,19,-1
 149 800 l 1,20,-1
 193 800 l 1,21,-1
 193 468 l 1,22,23
 256 515 256 515 316 515 c 0,10,11
EndSplineSet
EndChar

StartChar: c
Encoding: 99 99 70
Width: 490
Flags: W
LayerCount: 2
Fore
SplineSet
43 246 m 0,0,1
 43 367 43 367 115.5 441 c 128,-1,2
 188 515 188 515 283.5 515 c 128,-1,3
 379 515 379 515 451 473 c 1,4,5
 450 436 450 436 430 408 c 128,-1,6
 410 380 410 380 388 369 c 1,7,-1
 292 460 l 1,8,-1
 286 460 l 1,9,10
 205 447 205 447 175 334 c 0,11,12
 165 297 165 297 165 246 c 0,13,14
 165 146 165 146 212.5 98.5 c 128,-1,15
 260 51 260 51 329 51 c 128,-1,16
 398 51 398 51 450 79 c 1,17,-1
 467 30 l 1,18,19
 380 -16 380 -16 298 -16 c 0,20,21
 247 -16 247 -16 198 2 c 0,22,23
 103 37 103 37 63 135 c 0,24,25
 43 184 43 184 43 246 c 0,0,1
EndSplineSet
EndChar

StartChar: d
Encoding: 100 100 71
Width: 617
Flags: W
LayerCount: 2
Fore
SplineSet
334 460 m 0,0,1
 259 460 259 460 212.5 403 c 128,-1,2
 166 346 166 346 166 248 c 128,-1,3
 166 150 166 150 204.5 105 c 128,-1,4
 243 60 243 60 297.5 60 c 128,-1,5
 352 60 352 60 400 97 c 1,6,-1
 400 450 l 1,7,8
 369 460 369 460 334 460 c 0,0,1
320 515 m 128,-1,10
 368 515 368 515 400 506 c 1,11,-1
 400 719 l 1,12,-1
 315 719 l 1,13,-1
 315 762 l 1,14,-1
 475 800 l 1,15,-1
 520 800 l 1,16,-1
 520 65 l 1,17,-1
 598 65 l 1,18,-1
 598 32 l 1,19,20
 544 -15 544 -15 490 -15 c 128,-1,21
 436 -15 436 -15 408 35 c 0,22,23
 403 45 403 45 402 48 c 1,24,25
 341 -15 341 -15 254 -15 c 0,26,27
 114 -15 114 -15 61 122 c 0,28,29
 43 168 43 168 43 235.5 c 128,-1,30
 43 303 43 303 66.5 356 c 128,-1,31
 90 409 90 409 129.5 444.5 c 128,-1,32
 169 480 169 480 220.5 497.5 c 128,-1,9
 272 515 272 515 320 515 c 128,-1,10
EndSplineSet
EndChar

StartChar: e
Encoding: 101 101 72
Width: 536
Flags: W
LayerCount: 2
Fore
SplineSet
276 460 m 0,0,1
 226 460 226 460 194.5 412.5 c 128,-1,2
 163 365 163 365 161 296 c 1,3,-1
 375 312 l 1,4,5
 367 410 367 410 319 446 c 0,6,7
 301 460 301 460 276 460 c 0,0,1
42 256 m 0,8,9
 42 367 42 367 105.5 441 c 128,-1,10
 169 515 169 515 280.5 515 c 128,-1,11
 392 515 392 515 445.5 439 c 128,-1,12
 499 363 499 363 499 247 c 1,13,-1
 161 247 l 1,14,15
 167 167 167 167 215 108.5 c 128,-1,16
 263 50 263 50 331.5 50 c 128,-1,17
 400 50 400 50 462 73 c 1,18,-1
 479 26 l 1,19,20
 383 -16 383 -16 302 -16 c 0,21,22
 242 -16 242 -16 190 8 c 0,23,24
 94 52 94 52 59 154 c 0,25,26
 42 203 42 203 42 256 c 0,8,9
EndSplineSet
EndChar

StartChar: f
Encoding: 102 102 73
Width: 416
Flags: W
LayerCount: 2
Fore
SplineSet
311 815 m 0,0,1
 396 815 396 815 488 782 c 1,2,3
 484 713 484 713 427 683 c 1,4,-1
 329 760 l 1,5,6
 287 760 287 760 270 733 c 0,7,8
 236 681 236 681 236 574 c 2,9,-1
 236 507 l 1,10,-1
 388 518 l 1,11,-1
 388 446 l 1,12,-1
 236 446 l 1,13,-1
 236 63 l 1,14,-1
 369 43 l 1,15,-1
 369 0 l 1,16,-1
 32 0 l 1,17,-1
 32 43 l 1,18,-1
 117 63 l 1,19,-1
 117 446 l 1,20,-1
 33 446 l 1,21,-1
 33 493 l 1,22,-1
 117 499 l 1,23,-1
 117 574 l 2,24,25
 117 815 117 815 311 815 c 0,0,1
EndSplineSet
EndChar

StartChar: g
Encoding: 103 103 74
Width: 610
Flags: W
LayerCount: 2
Fore
SplineSet
288 215 m 128,-1,1
 345 215 345 215 375 248.5 c 128,-1,2
 405 282 405 282 405 334 c 128,-1,3
 405 386 405 386 375.5 420.5 c 128,-1,4
 346 455 346 455 288.5 455 c 128,-1,5
 231 455 231 455 202 420.5 c 128,-1,6
 173 386 173 386 173 334 c 128,-1,7
 173 282 173 282 202 248.5 c 128,-1,0
 231 215 231 215 288 215 c 128,-1,1
140 -125 m 0,8,9
 140 -232 140 -232 270 -232 c 0,10,11
 366 -232 366 -232 419 -200 c 128,-1,12
 472 -168 472 -168 472 -126 c 128,-1,13
 472 -84 472 -84 443.5 -64.5 c 128,-1,14
 415 -45 415 -45 341 -45 c 2,15,-1
 178 -45 l 1,16,17
 140 -90 140 -90 140 -125 c 0,8,9
520 342 m 0,18,19
 520 259 520 259 457.5 210 c 128,-1,20
 395 161 395 161 288 161 c 0,21,22
 251 161 251 161 218 167 c 1,23,-1
 160 99 l 1,24,25
 187 57 187 57 303 57 c 2,26,-1
 368 57 l 2,27,28
 509 57 509 57 550 -27 c 0,29,30
 564 -56 564 -56 564 -94 c 0,31,32
 564 -172 564 -172 483.5 -229.5 c 128,-1,33
 403 -287 403 -287 268 -287 c 0,34,35
 18 -287 18 -287 18 -152 c 0,36,37
 18 -64 18 -64 121 -16 c 1,38,39
 50 22 50 22 43 85 c 1,40,-1
 159 186 l 1,41,42
 58 233 58 233 58 334 c 0,43,44
 58 407 58 407 123 457 c 128,-1,45
 188 507 188 507 283 507 c 128,-1,46
 378 507 378 507 440 466 c 1,47,-1
 595 525 l 1,48,49
 607 501 607 501 607 476 c 128,-1,50
 607 451 607 451 603 431 c 1,51,-1
 482 431 l 1,52,53
 520 387 520 387 520 342 c 0,18,19
EndSplineSet
EndChar

StartChar: h
Encoding: 104 104 75
Width: 652
Flags: W
LayerCount: 2
Fore
SplineSet
349 442 m 0,0,1
 291 442 291 442 226 396 c 1,2,-1
 226 63 l 1,3,-1
 291 43 l 1,4,-1
 291 0 l 1,5,-1
 21 0 l 1,6,-1
 21 43 l 1,7,-1
 106 63 l 1,8,-1
 106 719 l 1,9,-1
 21 719 l 1,10,-1
 21 762 l 1,11,-1
 181 800 l 1,12,-1
 226 800 l 1,13,-1
 226 452 l 1,14,15
 300 515 300 515 387 515 c 0,16,17
 508 515 508 515 544 420 c 0,18,19
 555 392 555 392 555 358 c 2,20,-1
 555 63 l 1,21,-1
 640 43 l 1,22,-1
 640 0 l 1,23,-1
 371 0 l 1,24,-1
 371 43 l 1,25,-1
 436 63 l 1,26,-1
 436 340 l 2,27,28
 436 442 436 442 349 442 c 0,0,1
EndSplineSet
EndChar

StartChar: i
Encoding: 105 105 76
Width: 346
Flags: W
LayerCount: 2
Fore
SplineSet
109 652.5 m 128,-1,1
 109 684 109 684 130.5 705 c 128,-1,2
 152 726 152 726 183.5 726 c 128,-1,3
 215 726 215 726 236 705 c 128,-1,4
 257 684 257 684 257 652.5 c 128,-1,5
 257 621 257 621 236 599.5 c 128,-1,6
 215 578 215 578 183.5 578 c 128,-1,7
 152 578 152 578 130.5 599.5 c 128,-1,0
 109 621 109 621 109 652.5 c 128,-1,1
121 419 m 1,8,-1
 36 419 l 1,9,-1
 36 462 l 1,10,-1
 196 500 l 1,11,-1
 240 500 l 1,12,-1
 240 63 l 1,13,-1
 325 43 l 1,14,-1
 325 0 l 1,15,-1
 36 0 l 1,16,-1
 36 43 l 1,17,-1
 121 63 l 1,18,-1
 121 419 l 1,8,-1
EndSplineSet
EndChar

StartChar: j
Encoding: 106 106 77
Width: 303
Flags: W
LayerCount: 2
Fore
SplineSet
94 652.5 m 128,-1,1
 94 684 94 684 115.5 705 c 128,-1,2
 137 726 137 726 168.5 726 c 128,-1,3
 200 726 200 726 221 705 c 128,-1,4
 242 684 242 684 242 652.5 c 128,-1,5
 242 621 242 621 221 599.5 c 128,-1,6
 200 578 200 578 168.5 578 c 128,-1,7
 137 578 137 578 115.5 599.5 c 128,-1,0
 94 621 94 621 94 652.5 c 128,-1,1
106 0 m 2,8,-1
 106 419 l 1,9,-1
 21 419 l 1,10,-1
 21 462 l 1,11,-1
 181 500 l 1,12,-1
 225 500 l 1,13,-1
 225 0 l 2,14,15
 225 -105 225 -105 161 -188.5 c 128,-1,16
 97 -272 97 -272 17 -306 c 1,17,-1
 -15 -260 l 1,18,19
 106 -176 106 -176 106 0 c 2,8,-1
EndSplineSet
EndChar

StartChar: k
Encoding: 107 107 78
Width: 616
Flags: W
LayerCount: 2
Fore
SplineSet
605 0 m 1,0,-1
 419 0 l 1,1,-1
 243 241 l 1,2,-1
 426 440 l 1,3,-1
 359 457 l 1,4,-1
 359 500 l 1,5,-1
 585 500 l 1,6,-1
 585 457 l 1,7,-1
 497 437 l 1,8,-1
 358 285 l 1,9,-1
 523 62 l 1,10,-1
 605 43 l 1,11,-1
 605 0 l 1,0,-1
106 719 m 1,12,-1
 21 719 l 1,13,-1
 21 762 l 1,14,-1
 181 800 l 1,15,-1
 226 800 l 1,16,-1
 226 63 l 1,17,-1
 291 43 l 1,18,-1
 291 0 l 1,19,-1
 21 0 l 1,20,-1
 21 43 l 1,21,-1
 106 63 l 1,22,-1
 106 719 l 1,12,-1
EndSplineSet
EndChar

StartChar: l
Encoding: 108 108 79
Width: 332
Flags: W
LayerCount: 2
Fore
SplineSet
106 719 m 1,0,-1
 21 719 l 1,1,-1
 21 762 l 1,2,-1
 181 800 l 1,3,-1
 226 800 l 1,4,-1
 226 63 l 1,5,-1
 311 43 l 1,6,-1
 311 0 l 1,7,-1
 21 0 l 1,8,-1
 21 43 l 1,9,-1
 106 63 l 1,10,-1
 106 719 l 1,0,-1
EndSplineSet
EndChar

StartChar: m
Encoding: 109 109 80
Width: 986
Flags: W
LayerCount: 2
Fore
SplineSet
544 439 m 1,0,1
 633 515 633 515 716 515 c 128,-1,2
 799 515 799 515 844 471 c 0,3,4
 889 428 889 428 889 358 c 2,5,-1
 889 63 l 1,6,-1
 974 43 l 1,7,-1
 974 0 l 1,8,-1
 705 0 l 1,9,-1
 705 43 l 1,10,-1
 770 63 l 1,11,-1
 770 345 l 2,12,13
 770 442 770 442 684 442 c 0,14,15
 626 442 626 442 561 396 c 1,16,17
 565 378 565 378 565 358 c 2,18,-1
 565 63 l 1,19,-1
 630 43 l 1,20,-1
 630 0 l 1,21,-1
 380 0 l 1,22,-1
 380 43 l 1,23,-1
 445 63 l 1,24,-1
 445 345 l 2,25,26
 445 442 445 442 359 442 c 0,27,28
 302 442 302 442 240 400 c 1,29,-1
 240 63 l 1,30,-1
 305 43 l 1,31,-1
 305 0 l 1,32,-1
 36 0 l 1,33,-1
 36 43 l 1,34,-1
 121 63 l 1,35,-1
 121 419 l 1,36,-1
 36 419 l 1,37,-1
 36 462 l 1,38,-1
 196 500 l 1,39,-1
 240 500 l 1,40,-1
 240 455 l 1,41,42
 316 515 316 515 408.5 515 c 128,-1,43
 501 515 501 515 544 439 c 1,0,1
EndSplineSet
EndChar

StartChar: n
Encoding: 110 110 81
Width: 667
Flags: W
LayerCount: 2
Fore
SplineSet
364 442 m 0,0,1
 306 442 306 442 241 396 c 1,2,-1
 241 63 l 1,3,-1
 306 43 l 1,4,-1
 306 0 l 1,5,-1
 36 0 l 1,6,-1
 36 43 l 1,7,-1
 121 63 l 1,8,-1
 121 419 l 1,9,-1
 36 419 l 1,10,-1
 36 462 l 1,11,-1
 196 500 l 1,12,-1
 241 500 l 1,13,-1
 241 452 l 1,14,15
 315 515 315 515 402 515 c 0,16,17
 523 515 523 515 559 420 c 0,18,19
 570 392 570 392 570 358 c 2,20,-1
 570 63 l 1,21,-1
 655 43 l 1,22,-1
 655 0 l 1,23,-1
 386 0 l 1,24,-1
 386 43 l 1,25,-1
 451 63 l 1,26,-1
 451 340 l 2,27,28
 451 442 451 442 364 442 c 0,0,1
EndSplineSet
EndChar

StartChar: o
Encoding: 111 111 82
Width: 593
Flags: W
LayerCount: 2
Fore
SplineSet
297 515 m 128,-1,1
 407 515 407 515 479 441.5 c 128,-1,2
 551 368 551 368 551 251.5 c 128,-1,3
 551 135 551 135 479.5 60 c 128,-1,4
 408 -15 408 -15 297 -15 c 128,-1,5
 186 -15 186 -15 114 60.5 c 128,-1,6
 42 136 42 136 42 251.5 c 128,-1,7
 42 367 42 367 114.5 441 c 128,-1,0
 187 515 187 515 297 515 c 128,-1,1
426 227 m 0,8,9
 426 460 426 460 297 460 c 0,10,11
 204 460 204 460 176 336 c 0,12,13
 168 297 168 297 168 250.5 c 128,-1,14
 168 204 168 204 176.5 165.5 c 128,-1,15
 185 127 185 127 201 99 c 128,-1,16
 217 71 217 71 241 55.5 c 128,-1,17
 265 40 265 40 296 40 c 0,18,19
 359 40 359 40 392.5 98.5 c 128,-1,20
 426 157 426 157 426 227 c 0,8,9
EndSplineSet
EndChar

StartChar: p
Encoding: 112 112 83
Width: 625
Flags: W
LayerCount: 2
Fore
SplineSet
313 434 m 128,-1,1
 271 434 271 434 226 399 c 1,2,-1
 226 50 l 1,3,4
 256 40 256 40 290 40 c 0,5,6
 364 40 364 40 411 98 c 128,-1,7
 458 156 458 156 458 273 c 128,-1,8
 458 390 458 390 378 424 c 0,9,0
 355 434 355 434 313 434 c 128,-1,1
331 -300 m 1,10,-1
 21 -300 l 1,11,-1
 21 -257 l 1,12,-1
 106 -237 l 1,13,-1
 106 419 l 1,14,-1
 21 419 l 1,15,-1
 21 462 l 1,16,-1
 181 500 l 1,17,-1
 226 500 l 1,18,-1
 226 454 l 1,19,20
 287 515 287 515 374 515 c 128,-1,21
 461 515 461 515 521.5 452.5 c 128,-1,22
 582 390 582 390 582 262 c 128,-1,23
 582 134 582 134 499 59.5 c 128,-1,24
 416 -15 416 -15 303 -15 c 0,25,26
 253 -15 253 -15 226 -7 c 1,27,-1
 226 -237 l 1,28,-1
 331 -257 l 1,29,-1
 331 -300 l 1,10,-1
EndSplineSet
EndChar

StartChar: q
Encoding: 113 113 84
Width: 593
Flags: W
LayerCount: 2
Fore
SplineSet
315 66 m 0,0,1
 355 66 355 66 399 97 c 1,2,-1
 399 452 l 1,3,4
 367 460 367 460 341 460 c 0,5,6
 263 460 263 460 214.5 404 c 128,-1,7
 166 348 166 348 166 229 c 0,8,9
 166 66 166 66 315 66 c 0,0,1
43 235 m 0,10,11
 43 366 43 366 128 440.5 c 128,-1,12
 213 515 213 515 325 515 c 128,-1,13
 437 515 437 515 519 464 c 1,14,-1
 519 -237 l 1,15,-1
 604 -257 l 1,16,-1
 604 -300 l 1,17,-1
 294 -300 l 1,18,-1
 294 -257 l 1,19,-1
 399 -237 l 1,20,-1
 399 42 l 1,21,22
 346 -15 346 -15 254 -15 c 0,23,24
 115 -15 115 -15 62 120 c 0,25,26
 43 167 43 167 43 235 c 0,10,11
EndSplineSet
EndChar

StartChar: r
Encoding: 114 114 85
Width: 452
Flags: W
LayerCount: 2
Fore
SplineSet
345 0 m 1,0,-1
 36 0 l 1,1,-1
 36 43 l 1,2,-1
 121 63 l 1,3,-1
 121 419 l 1,4,-1
 36 419 l 1,5,-1
 36 462 l 1,6,-1
 196 500 l 1,7,-1
 240 500 l 1,8,-1
 240 438 l 1,9,10
 320 515 320 515 428 515 c 1,11,12
 434 495 434 495 434 464.5 c 128,-1,13
 434 434 434 434 425 407 c 1,14,-1
 298 418 l 1,15,16
 266 402 266 402 240 384 c 1,17,-1
 240 63 l 1,18,-1
 345 43 l 1,19,-1
 345 0 l 1,0,-1
EndSplineSet
EndChar

StartChar: s
Encoding: 115 115 86
Width: 479
Flags: W
LayerCount: 2
Fore
SplineSet
221 40 m 0,0,1
 328 40 328 40 328 100 c 0,2,3
 328 144 328 144 299 164 c 128,-1,4
 270 184 270 184 219 205 c 0,5,6
 58 270 58 270 58 365 c 0,7,8
 58 515 58 515 278 515 c 0,9,10
 338 515 338 515 405 496 c 1,11,-1
 405 360 l 1,12,-1
 363 360 l 1,13,-1
 330 454 l 1,14,15
 303 462 303 462 253 462 c 0,16,17
 165 462 165 462 165 396 c 0,18,19
 165 368 165 368 187 353 c 128,-1,20
 209 338 209 338 230 328 c 2,21,-1
 276 307 l 1,22,23
 356 272 356 272 384 246 c 0,24,25
 437 198 437 198 437 148 c 0,26,27
 437 62 437 62 378 23.5 c 128,-1,28
 319 -15 319 -15 225 -15 c 128,-1,29
 131 -15 131 -15 49 8 c 1,30,-1
 49 151 l 1,31,-1
 95 151 l 1,32,-1
 133 46 l 1,33,34
 167 40 167 40 221 40 c 0,0,1
EndSplineSet
EndChar

StartChar: t
Encoding: 116 116 87
Width: 375
Flags: W
LayerCount: 2
Fore
SplineSet
88 139 m 2,0,-1
 88 440 l 1,1,-1
 35 440 l 1,2,-1
 35 470 l 1,3,-1
 177 591 l 1,4,-1
 207 591 l 1,5,-1
 207 494 l 1,6,-1
 351 500 l 1,7,-1
 351 440 l 1,8,-1
 207 440 l 1,9,-1
 207 134 l 2,10,11
 207 45 207 45 278 45 c 0,12,13
 308 45 308 45 350 63 c 1,14,-1
 367 17 l 1,15,16
 303 -16 303 -16 241 -16 c 0,17,18
 210 -16 210 -16 180 -9 c 0,19,20
 88 15 88 15 88 139 c 2,0,-1
EndSplineSet
EndChar

StartChar: u
Encoding: 117 117 88
Width: 647
Flags: W
LayerCount: 2
Fore
SplineSet
98 142 m 2,0,-1
 98 437 l 1,1,-1
 13 457 l 1,2,-1
 13 500 l 1,3,-1
 217 500 l 1,4,-1
 217 155 l 2,5,6
 217 55 217 55 303 55 c 0,7,8
 370 55 370 55 431 106 c 1,9,-1
 431 437 l 1,10,-1
 366 457 l 1,11,-1
 366 500 l 1,12,-1
 550 500 l 1,13,-1
 550 65 l 1,14,-1
 628 65 l 1,15,-1
 628 32 l 1,16,17
 574 -15 574 -15 513.5 -15 c 128,-1,18
 453 -15 453 -15 431 51 c 1,19,20
 354 -15 354 -15 261 -15 c 0,21,22
 141 -15 141 -15 108 80 c 0,23,24
 98 108 98 108 98 142 c 2,0,-1
EndSplineSet
EndChar

StartChar: v
Encoding: 118 118 89
Width: 575
Flags: W
LayerCount: 2
Fore
SplineSet
367 500 m 1,0,-1
 574 500 l 1,1,-1
 574 457 l 1,2,-1
 494 435 l 1,3,-1
 319 -7 l 1,4,-1
 259 -7 l 1,5,-1
 69 438 l 1,6,-1
 2 457 l 1,7,-1
 2 500 l 1,8,-1
 268 500 l 1,9,-1
 268 457 l 1,10,-1
 197 441 l 1,11,-1
 321 148 l 1,12,-1
 437 438 l 1,13,-1
 367 457 l 1,14,-1
 367 500 l 1,0,-1
EndSplineSet
EndChar

StartChar: w
Encoding: 119 119 90
Width: 821
Flags: W
LayerCount: 2
Fore
SplineSet
3 500 m 1,0,-1
 261 500 l 1,1,-1
 261 457 l 1,2,-1
 194 440 l 1,3,-1
 292 167 l 1,4,-1
 405 500 l 1,5,-1
 476 500 l 1,6,-1
 592 172 l 1,7,-1
 683 437 l 1,8,-1
 601 457 l 1,9,-1
 601 500 l 1,10,-1
 818 500 l 1,11,-1
 818 457 l 1,12,-1
 741 437 l 1,13,-1
 593 -7 l 1,14,-1
 529 -7 l 1,15,-1
 408 333 l 1,16,-1
 293 -7 l 1,17,-1
 230 -7 l 1,18,-1
 66 439 l 1,19,-1
 3 457 l 1,20,-1
 3 500 l 1,0,-1
EndSplineSet
EndChar

StartChar: x
Encoding: 120 120 91
Width: 628
Flags: W
LayerCount: 2
Fore
SplineSet
232 0 m 1,0,-1
 16 0 l 1,1,-1
 16 43 l 1,2,-1
 97 61 l 1,3,-1
 253 247 l 1,4,-1
 105 438 l 1,5,-1
 23 457 l 1,6,-1
 23 500 l 1,7,-1
 303 500 l 1,8,-1
 303 457 l 1,9,-1
 241 445 l 1,10,-1
 339 317 l 1,11,-1
 438 440 l 1,12,-1
 369 457 l 1,13,-1
 369 500 l 1,14,-1
 590 500 l 1,15,-1
 590 457 l 1,16,-1
 508 437 l 1,17,-1
 372 274 l 1,18,-1
 536 62 l 1,19,-1
 620 43 l 1,20,-1
 620 0 l 1,21,-1
 340 0 l 1,22,-1
 340 43 l 1,23,-1
 404 53 l 1,24,-1
 287 203 l 1,25,-1
 167 59 l 1,26,-1
 232 43 l 1,27,-1
 232 0 l 1,0,-1
EndSplineSet
EndChar

StartChar: y
Encoding: 121 121 92
Width: 601
Flags: W
LayerCount: 2
Fore
SplineSet
1 500 m 1,0,-1
 274 500 l 1,1,-1
 274 457 l 1,2,-1
 197 442 l 1,3,-1
 339 125 l 1,4,-1
 459 437 l 1,5,-1
 379 457 l 1,6,-1
 379 500 l 1,7,-1
 600 500 l 1,8,-1
 600 457 l 1,9,-1
 521 436 l 1,10,-1
 238 -299 l 1,11,-1
 225 -299 l 2,12,13
 162 -299 162 -299 136 -254 c 1,14,-1
 279 -27 l 1,15,-1
 69 438 l 1,16,-1
 1 457 l 1,17,-1
 1 500 l 1,0,-1
EndSplineSet
EndChar

StartChar: z
Encoding: 122 122 93
Width: 510
Flags: W
LayerCount: 2
Fore
SplineSet
463 500 m 1,0,-1
 463 451 l 1,1,-1
 184 55 l 1,2,-1
 371 55 l 1,3,-1
 423 166 l 1,4,-1
 462 166 l 1,5,-1
 452 0 l 1,6,-1
 39 0 l 1,7,-1
 39 50 l 1,8,-1
 318 446 l 1,9,-1
 137 446 l 1,10,-1
 89 345 l 1,11,-1
 53 345 l 1,12,-1
 64 500 l 1,13,-1
 463 500 l 1,0,-1
EndSplineSet
EndChar

StartChar: braceleft
Encoding: 123 123 94
Width: 378
Flags: W
LayerCount: 2
Fore
SplineSet
247 193 m 2,0,-1
 247 25 l 2,1,2
 247 -26 247 -26 265.5 -53 c 128,-1,3
 284 -80 284 -80 329 -80 c 2,4,-1
 359 -80 l 1,5,-1
 359 -128 l 1,6,-1
 273 -128 l 2,7,8
 203 -128 203 -128 166 -89 c 128,-1,9
 129 -50 129 -50 129 16 c 2,10,-1
 129 187 l 2,11,12
 129 273 129 273 58 288 c 0,13,14
 36 292 36 292 11 293 c 1,15,-1
 11 340 l 1,16,17
 129 345 129 345 129 445 c 2,18,-1
 129 617 l 2,19,20
 129 760 129 760 273 760 c 2,21,-1
 359 760 l 1,22,-1
 359 712 l 1,23,-1
 329 712 l 2,24,25
 284 712 284 712 265.5 685.5 c 128,-1,26
 247 659 247 659 247 607 c 2,27,-1
 247 441 l 2,28,29
 247 336 247 336 136 318 c 1,30,-1
 136 317 l 1,31,32
 247 298 247 298 247 193 c 2,0,-1
EndSplineSet
EndChar

StartChar: bar
Encoding: 124 124 95
Width: 235
Flags: W
LayerCount: 2
Fore
SplineSet
150 -240 m 1,0,-1
 85 -240 l 1,1,-1
 85 760 l 1,2,-1
 150 760 l 1,3,-1
 150 -240 l 1,0,-1
EndSplineSet
EndChar

StartChar: braceright
Encoding: 125 125 96
Width: 377
Flags: W
LayerCount: 2
Fore
SplineSet
249 445 m 2,0,1
 249 345 249 345 367 340 c 1,2,-1
 367 293 l 1,3,4
 309 291 309 291 288 275 c 0,5,6
 249 245 249 245 249 187 c 2,7,-1
 249 16 l 2,8,9
 249 -83 249 -83 150 -118 c 0,10,11
 120 -128 120 -128 85 -128 c 2,12,-1
 19 -128 l 1,13,-1
 19 -80 l 1,14,-1
 49 -80 l 2,15,16
 94 -80 94 -80 112.5 -53 c 128,-1,17
 131 -26 131 -26 131 25 c 2,18,-1
 131 193 l 2,19,20
 131 298 131 298 242 317 c 1,21,-1
 242 318 l 1,22,23
 131 336 131 336 131 441 c 2,24,-1
 131 607 l 2,25,26
 131 659 131 659 112.5 685.5 c 128,-1,27
 94 712 94 712 49 712 c 2,28,-1
 19 712 l 1,29,-1
 19 760 l 1,30,-1
 105 760 l 2,31,32
 249 760 249 760 249 617 c 2,33,-1
 249 445 l 2,0,1
EndSplineSet
EndChar

StartChar: asciitilde
Encoding: 126 126 97
Width: 549
Flags: W
LayerCount: 2
Fore
SplineSet
175 370 m 0,0,1
 121 370 121 370 112 269 c 1,2,-1
 49 282 l 1,3,4
 65 444 65 444 179 444 c 0,5,6
 221 444 221 444 266.5 409.5 c 128,-1,7
 312 375 312 375 335.5 359 c 128,-1,8
 359 343 359 343 382 343 c 0,9,10
 430 343 430 343 443 444 c 1,11,-1
 506 432 l 1,12,13
 484 269 484 269 377 269 c 0,14,15
 337 269 337 269 269 320 c 1,16,-1
 221 354 l 2,17,18
 198 370 198 370 175 370 c 0,0,1
EndSplineSet
EndChar

StartChar: exclamdown
Encoding: 161 161 99
Width: 267
Flags: W
LayerCount: 2
Fore
SplineSet
66 446 m 128,-1,1
 66 474 66 474 86 494.5 c 128,-1,2
 106 515 106 515 134 515 c 128,-1,3
 162 515 162 515 181.5 494.5 c 128,-1,4
 201 474 201 474 201 446 c 128,-1,5
 201 418 201 418 181.5 398.5 c 128,-1,6
 162 379 162 379 134 379 c 128,-1,7
 106 379 106 379 86 398.5 c 128,-1,0
 66 418 66 418 66 446 c 128,-1,1
91 293 m 1,8,-1
 177 293 l 1,9,-1
 197 -199 l 1,10,-1
 71 -199 l 1,11,-1
 91 293 l 1,8,-1
EndSplineSet
EndChar

StartChar: cent
Encoding: 162 162 100
Width: 512
Flags: W
LayerCount: 2
Fore
SplineSet
170 260 m 128,-1,1
 170 114 170 114 257 68 c 1,2,-1
 257 446 l 1,3,0
 170 406 170 406 170 260 c 128,-1,1
322 50 m 1,4,-1
 326 50 l 2,5,6
 330 50 330 50 334 50 c 0,7,8
 390 50 390 50 455 68 c 1,9,-1
 467 19 l 1,10,11
 394 -12 394 -12 322 -15 c 1,12,-1
 322 -140 l 1,13,-1
 257 -140 l 1,14,-1
 257 -12 l 1,15,16
 112 11 112 11 64 148 c 0,17,18
 48 193 48 193 48 250 c 0,19,20
 48 362 48 362 105.5 431 c 128,-1,21
 163 500 163 500 257 512 c 1,22,-1
 257 648 l 1,23,-1
 322 648 l 1,24,-1
 322 514 l 1,25,26
 396 511 396 511 466 473 c 1,27,28
 466 446 466 446 449.5 415 c 128,-1,29
 433 384 433 384 408 368 c 1,30,-1
 322 459 l 1,31,-1
 322 50 l 1,4,-1
EndSplineSet
EndChar

StartChar: sterling
Encoding: 163 163 101
Width: 559
Flags: W
LayerCount: 2
Fore
SplineSet
296 274 m 0,0,1
 296 184 296 184 190 97 c 1,2,-1
 415 97 l 1,3,-1
 468 205 l 1,4,-1
 512 205 l 1,5,-1
 484 0 l 1,6,-1
 49 0 l 1,7,-1
 49 55 l 1,8,9
 193 163 193 163 193 267 c 0,10,11
 193 293 193 293 179 333 c 1,12,-1
 57 333 l 1,13,-1
 57 380 l 1,14,-1
 155 386 l 1,15,-1
 131 430 l 2,16,17
 86 512 86 512 86 572 c 0,18,19
 86 643 86 643 150 682 c 0,20,21
 204 715 204 715 307 715 c 128,-1,22
 410 715 410 715 503 665 c 1,23,24
 498 596 498 596 445 558 c 1,25,-1
 329 666 l 1,26,27
 214 666 214 666 214 545 c 0,28,29
 214 507 214 507 230 470 c 1,30,-1
 265 395 l 1,31,-1
 413 405 l 1,32,-1
 402 333 l 1,33,-1
 287 333 l 1,34,35
 296 303 296 303 296 274 c 0,0,1
EndSplineSet
EndChar

StartChar: currency
Encoding: 164 164 102
Width: 609
Flags: W
LayerCount: 2
Fore
SplineSet
437 359 m 128,-1,1
 437 386 437 386 426.5 410 c 128,-1,2
 416 434 416 434 398 451.5 c 128,-1,3
 380 469 380 469 356 479.5 c 128,-1,4
 332 490 332 490 305 490 c 128,-1,5
 278 490 278 490 254 479.5 c 128,-1,6
 230 469 230 469 212 451.5 c 128,-1,7
 194 434 194 434 183.5 410 c 128,-1,8
 173 386 173 386 173 359 c 128,-1,9
 173 332 173 332 183.5 308 c 128,-1,10
 194 284 194 284 212 266 c 128,-1,11
 230 248 230 248 254 237.5 c 128,-1,12
 278 227 278 227 305 227 c 128,-1,13
 332 227 332 227 356 237.5 c 128,-1,14
 380 248 380 248 398 266 c 128,-1,15
 416 284 416 284 426.5 308 c 128,-1,0
 437 332 437 332 437 359 c 128,-1,1
94 357 m 128,-1,17
 94 420 94 420 131 478 c 1,18,-1
 64 546 l 1,19,-1
 118 600 l 1,20,-1
 185 532 l 1,21,22
 241 569 241 569 304 569 c 128,-1,23
 367 569 367 569 424 531 c 1,24,-1
 492 599 l 1,25,-1
 545 545 l 1,26,-1
 478 478 l 1,27,28
 516 418 516 418 516 357 c 128,-1,29
 516 296 516 296 478 239 c 1,30,-1
 545 172 l 1,31,-1
 492 119 l 1,32,-1
 425 185 l 1,33,34
 370 148 370 148 304.5 148 c 128,-1,35
 239 148 239 148 185 185 c 1,36,-1
 119 118 l 1,37,-1
 65 172 l 1,38,-1
 132 239 l 1,39,16
 94 294 94 294 94 357 c 128,-1,17
EndSplineSet
EndChar

StartChar: yen
Encoding: 165 165 103
Width: 770
Flags: W
LayerCount: 2
Fore
SplineSet
493 700 m 1,0,-1
 738 700 l 1,1,-1
 738 654 l 1,2,-1
 646 632 l 1,3,-1
 483 374 l 1,4,-1
 625 381 l 1,5,-1
 615 310 l 1,6,-1
 452 310 l 1,7,-1
 452 256 l 1,8,-1
 625 266 l 1,9,-1
 615 193 l 1,10,-1
 452 193 l 1,11,-1
 452 68 l 1,12,-1
 544 46 l 1,13,-1
 544 0 l 1,14,-1
 237 0 l 1,15,-1
 237 46 l 1,16,-1
 329 68 l 1,17,-1
 329 193 l 1,18,-1
 159 193 l 1,19,-1
 159 240 l 1,20,-1
 329 250 l 1,21,-1
 329 310 l 1,22,-1
 159 310 l 1,23,-1
 159 356 l 1,24,-1
 299 364 l 1,25,-1
 112 634 l 1,26,-1
 31 654 l 1,27,-1
 31 700 l 1,28,-1
 319 700 l 1,29,-1
 319 654 l 1,30,-1
 254 641 l 1,31,-1
 419 398 l 1,32,-1
 567 634 l 1,33,-1
 493 654 l 1,34,-1
 493 700 l 1,0,-1
EndSplineSet
EndChar

StartChar: brokenbar
Encoding: 166 166 104
Width: 241
Flags: W
LayerCount: 2
Fore
SplineSet
153 -240 m 1,0,-1
 88 -240 l 1,1,-1
 88 160 l 1,2,-1
 153 160 l 1,3,-1
 153 -240 l 1,0,-1
153 360 m 1,4,-1
 88 360 l 1,5,-1
 88 760 l 1,6,-1
 153 760 l 1,7,-1
 153 360 l 1,4,-1
EndSplineSet
EndChar

StartChar: section
Encoding: 167 167 105
Width: 534
Flags: W
LayerCount: 2
Fore
SplineSet
192 448 m 1,0,1
 147 419 147 419 147 368.5 c 128,-1,2
 147 318 147 318 227 283 c 1,3,-1
 275 264 l 1,4,5
 326 246 326 246 363 226 c 1,6,7
 388 254 388 254 388 288 c 0,8,9
 388 342 388 342 351.5 371 c 128,-1,10
 315 400 315 400 261 420 c 128,-1,11
 207 440 207 440 192 448 c 1,0,1
79 113 m 1,12,-1
 119 113 l 1,13,-1
 162 -14 l 1,14,15
 203 -26 203 -26 232 -26 c 0,16,17
 365 -26 365 -26 365 65 c 0,18,19
 365 103 365 103 333.5 127.5 c 128,-1,20
 302 152 302 152 253 171 c 0,21,22
 156 209 156 209 109 251.5 c 128,-1,23
 62 294 62 294 62 363.5 c 128,-1,24
 62 433 62 433 143 477 c 1,25,26
 67 529 67 529 67 604.5 c 128,-1,27
 67 680 67 680 124.5 719.5 c 128,-1,28
 182 759 182 759 270 759 c 128,-1,29
 358 759 358 759 434 733 c 1,30,-1
 434 576 l 1,31,-1
 393 576 l 1,32,-1
 352 698 l 1,33,34
 315 705 315 705 273 705 c 128,-1,35
 231 705 231 705 200 682.5 c 128,-1,36
 169 660 169 660 169 620.5 c 128,-1,37
 169 581 169 581 202.5 556 c 128,-1,38
 236 531 236 531 278 514 c 0,39,40
 377 476 377 476 417 444 c 0,41,42
 481 394 481 394 481 318 c 128,-1,43
 481 242 481 242 413 194 c 1,44,45
 475 143 475 143 475 70.5 c 128,-1,46
 475 -2 475 -2 413 -42.5 c 128,-1,47
 351 -83 351 -83 254 -83 c 128,-1,48
 157 -83 157 -83 79 -43 c 1,49,-1
 79 113 l 1,12,-1
EndSplineSet
EndChar

StartChar: dieresis
Encoding: 168 168 106
Width: 400
Flags: W
LayerCount: 2
Fore
SplineSet
232 667 m 128,-1,1
 232 695 232 695 251 713.5 c 128,-1,2
 270 732 270 732 298 732 c 128,-1,3
 326 732 326 732 344.5 713.5 c 128,-1,4
 363 695 363 695 363 667 c 128,-1,5
 363 639 363 639 344.5 620 c 128,-1,6
 326 601 326 601 298 601 c 128,-1,7
 270 601 270 601 251 620 c 128,-1,0
 232 639 232 639 232 667 c 128,-1,1
98 732 m 128,-1,9
 126 732 126 732 144.5 713.5 c 128,-1,10
 163 695 163 695 163 667 c 128,-1,11
 163 639 163 639 144.5 620 c 128,-1,12
 126 601 126 601 98 601 c 128,-1,13
 70 601 70 601 51 620 c 128,-1,14
 32 639 32 639 32 667 c 128,-1,15
 32 695 32 695 51 713.5 c 128,-1,8
 70 732 70 732 98 732 c 128,-1,9
EndSplineSet
EndChar

StartChar: copyright
Encoding: 169 169 107
Width: 831
Flags: W
LayerCount: 2
Fore
SplineSet
443 530 m 0,0,1
 301 530 301 530 301 357.5 c 128,-1,2
 301 185 301 185 441 185 c 2,3,-1
 458 185 l 2,4,5
 468 185 468 185 478 187 c 1,6,-1
 523 278 l 1,7,-1
 556 278 l 1,8,-1
 541 167 l 1,9,10
 486 138 486 138 426 138 c 0,11,12
 324 138 324 138 271 195 c 128,-1,13
 218 252 218 252 218 356 c 0,14,15
 218 576 218 576 436 576 c 0,16,17
 500 576 500 576 549 553 c 1,18,-1
 549 442 l 1,19,-1
 514 442 l 1,20,-1
 488 526 l 1,21,22
 466 530 466 530 443 530 c 0,0,1
634 576 m 128,-1,24
 544 666 544 666 415 666 c 128,-1,25
 286 666 286 666 197 575.5 c 128,-1,26
 108 485 108 485 108 357.5 c 128,-1,27
 108 230 108 230 197 139.5 c 128,-1,28
 286 49 286 49 416 49 c 0,29,30
 544 49 544 49 634 139 c 128,-1,31
 724 229 724 229 724 357.5 c 128,-1,23
 724 486 724 486 634 576 c 128,-1,24
155 616.5 m 128,-1,33
 262 725 262 725 414.5 725 c 128,-1,34
 567 725 567 725 675 617 c 128,-1,35
 783 509 783 509 783 356.5 c 128,-1,36
 783 204 783 204 674.5 97 c 128,-1,37
 566 -10 566 -10 414.5 -10 c 128,-1,38
 263 -10 263 -10 155.5 97.5 c 128,-1,39
 48 205 48 205 48 356.5 c 128,-1,32
 48 508 48 508 155 616.5 c 128,-1,33
EndSplineSet
EndChar

StartChar: ordfeminine
Encoding: 170 170 108
Width: 392
Flags: W
LayerCount: 2
Fore
SplineSet
128 482 m 0,0,1
 128 438 128 438 182 438 c 0,2,3
 210 438 210 438 230 460 c 1,4,-1
 230 551 l 1,5,6
 165 551 165 551 138 514 c 0,7,8
 128 501 128 501 128 482 c 0,0,1
161 394 m 0,9,10
 42 394 42 394 42 479 c 0,11,12
 42 584 42 584 230 584 c 1,13,-1
 230 605 l 2,14,15
 230 643 230 643 218.5 663.5 c 128,-1,16
 207 684 207 684 171 684 c 1,17,-1
 104 617 l 1,18,19
 89 625 89 625 75.5 646 c 128,-1,20
 62 667 62 667 60 687 c 1,21,22
 116 715 116 715 182 715 c 0,23,24
 313 715 313 715 313 611 c 2,25,-1
 313 445 l 1,26,-1
 354 445 l 1,27,-1
 354 423 l 1,28,29
 328 394 328 394 290 394 c 128,-1,30
 252 394 252 394 233 426 c 1,31,32
 195 394 195 394 161 394 c 0,9,10
EndSplineSet
EndChar

StartChar: guillemotleft
Encoding: 171 171 109
Width: 477
Flags: W
LayerCount: 2
Fore
SplineSet
245 284 m 1,0,-1
 362 441 l 1,1,-1
 411 441 l 1,2,-1
 350 270 l 1,3,-1
 411 99 l 1,4,-1
 362 99 l 1,5,-1
 245 256 l 1,6,-1
 245 284 l 1,0,-1
48 286 m 1,7,-1
 201 460 l 1,8,-1
 256 460 l 1,9,-1
 165 270 l 1,10,-1
 256 80 l 1,11,-1
 201 80 l 1,12,-1
 48 254 l 1,13,-1
 48 286 l 1,7,-1
EndSplineSet
EndChar

StartChar: logicalnot
Encoding: 172 172 110
Width: 557
Flags: W
LayerCount: 2
Fore
SplineSet
484 390 m 1,0,-1
 484 123 l 1,1,-1
 419 123 l 1,2,-1
 419 326 l 1,3,-1
 55 326 l 1,4,-1
 55 390 l 1,5,-1
 484 390 l 1,0,-1
EndSplineSet
EndChar

StartChar: uni00AD
Encoding: 173 173 111
Width: 402
Flags: W
LayerCount: 2
Fore
SplineSet
71 317 m 1,0,-1
 71 397 l 1,1,-1
 331 397 l 1,2,-1
 331 317 l 1,3,-1
 71 317 l 1,0,-1
EndSplineSet
EndChar

StartChar: registered
Encoding: 174 174 112
Width: 831
Flags: W
LayerCount: 2
Fore
SplineSet
488 453 m 0,0,1
 488 532 488 532 391 532 c 2,2,-1
 356 532 l 1,3,-1
 356 372 l 1,4,-1
 391 372 l 2,5,6
 434 372 434 372 461 392.5 c 128,-1,7
 488 413 488 413 488 453 c 0,0,1
564 454 m 0,8,9
 564 361 564 361 467 342 c 1,10,-1
 560 190 l 1,11,-1
 613 177 l 1,12,-1
 613 150 l 1,13,-1
 500 150 l 1,14,-1
 396 335 l 1,15,-1
 356 335 l 1,16,-1
 356 191 l 1,17,-1
 412 178 l 1,18,-1
 412 150 l 1,19,-1
 227 150 l 1,20,-1
 227 178 l 1,21,-1
 283 191 l 1,22,-1
 283 529 l 1,23,-1
 227 542 l 1,24,-1
 227 570 l 1,25,-1
 397 570 l 2,26,27
 564 570 564 570 564 454 c 0,8,9
634 575.5 m 128,-1,29
 545 666 545 666 416 666 c 128,-1,30
 287 666 287 666 197 576 c 128,-1,31
 107 486 107 486 107 357.5 c 128,-1,32
 107 229 107 229 197 139 c 128,-1,33
 287 49 287 49 416 49 c 128,-1,34
 545 49 545 49 634 139.5 c 128,-1,35
 723 230 723 230 723 357.5 c 128,-1,28
 723 485 723 485 634 575.5 c 128,-1,29
155 616.5 m 128,-1,37
 262 725 262 725 414.5 725 c 128,-1,38
 567 725 567 725 675 617 c 128,-1,39
 783 509 783 509 783 356.5 c 128,-1,40
 783 204 783 204 674.5 97 c 128,-1,41
 566 -10 566 -10 414.5 -10 c 128,-1,42
 263 -10 263 -10 155.5 97.5 c 128,-1,43
 48 205 48 205 48 356.5 c 128,-1,36
 48 508 48 508 155 616.5 c 128,-1,37
EndSplineSet
EndChar

StartChar: macron
Encoding: 175 175 113
Width: 459
Flags: W
LayerCount: 2
Fore
SplineSet
459 636 m 1,0,-1
 0 636 l 1,1,-1
 0 700 l 1,2,-1
 459 700 l 1,3,-1
 459 636 l 1,0,-1
EndSplineSet
EndChar

StartChar: degree
Encoding: 176 176 114
Width: 369
Flags: W
LayerCount: 2
Fore
SplineSet
101 608.5 m 128,-1,1
 101 574 101 574 125.5 549.5 c 128,-1,2
 150 525 150 525 184.5 525 c 128,-1,3
 219 525 219 525 243.5 549.5 c 128,-1,4
 268 574 268 574 268 608.5 c 128,-1,5
 268 643 268 643 243.5 667.5 c 128,-1,6
 219 692 219 692 184.5 692 c 128,-1,7
 150 692 150 692 125.5 667.5 c 128,-1,0
 101 643 101 643 101 608.5 c 128,-1,1
80.5 712.5 m 128,-1,9
 123 755 123 755 169 755 c 128,-1,10
 215 755 215 755 241.5 743.5 c 128,-1,11
 268 732 268 732 288 712.5 c 128,-1,12
 308 693 308 693 319.5 666 c 128,-1,13
 331 639 331 639 331 609 c 0,14,15
 331 548 331 548 288 505 c 128,-1,16
 245 462 245 462 199.5 462 c 128,-1,17
 154 462 154 462 127 473.5 c 128,-1,18
 100 485 100 485 80 505 c 0,19,20
 38 549 38 549 38 609.5 c 128,-1,8
 38 670 38 670 80.5 712.5 c 128,-1,9
EndSplineSet
EndChar

StartChar: plusminus
Encoding: 177 177 115
Width: 557
Flags: W
LayerCount: 2
Fore
SplineSet
306 586 m 1,0,-1
 306 391 l 1,1,-1
 503 391 l 1,2,-1
 503 323 l 1,3,-1
 306 323 l 1,4,-1
 306 127 l 1,5,-1
 239 127 l 1,6,-1
 239 323 l 1,7,-1
 54 323 l 1,8,-1
 54 391 l 1,9,-1
 239 391 l 1,10,-1
 239 586 l 1,11,-1
 306 586 l 1,0,-1
54 67 m 1,12,-1
 503 67 l 1,13,-1
 503 0 l 1,14,-1
 54 0 l 1,15,-1
 54 67 l 1,12,-1
EndSplineSet
EndChar

StartChar: twosuperior
Encoding: 178 178 116
Width: 384
Flags: W
LayerCount: 2
Fore
SplineSet
313 611 m 0,0,1
 313 494 313 494 138 354 c 1,2,-1
 277 354 l 1,3,-1
 307 415 l 1,4,-1
 337 415 l 1,5,-1
 319 285 l 1,6,-1
 46 285 l 1,7,-1
 46 321 l 1,8,9
 174 435 174 435 212 550 c 0,10,11
 223 582 223 582 223 614 c 0,12,13
 223 676 223 676 166 676 c 1,14,-1
 104 599 l 1,15,16
 84 609 84 609 70 632.5 c 128,-1,17
 56 656 56 656 54 679 c 1,18,19
 118 710 118 710 167 710 c 0,20,21
 244 710 244 710 278.5 686.5 c 128,-1,22
 313 663 313 663 313 611 c 0,0,1
EndSplineSet
EndChar

StartChar: threesuperior
Encoding: 179 179 117
Width: 384
Flags: W
LayerCount: 2
Fore
SplineSet
181 710 m 128,-1,1
 252 710 252 710 286 681.5 c 128,-1,2
 320 653 320 653 320 613 c 0,3,4
 320 541 320 541 223 512 c 1,5,6
 286 503 286 503 314.5 473 c 128,-1,7
 343 443 343 443 343 406 c 0,8,9
 343 340 343 340 293.5 308 c 128,-1,10
 244 276 244 276 171.5 276 c 128,-1,11
 99 276 99 276 38 301 c 1,12,-1
 52 337 l 1,13,14
 99 319 99 319 147 319 c 128,-1,15
 195 319 195 319 224 341 c 128,-1,16
 253 363 253 363 253 401.5 c 128,-1,17
 253 440 253 440 221 463 c 128,-1,18
 189 486 189 486 124 486 c 1,19,-1
 124 523 l 1,20,21
 173 523 173 523 202 550 c 128,-1,22
 231 577 231 577 231 607 c 0,23,24
 231 671 231 671 161 679 c 1,25,-1
 102 606 l 1,26,27
 87 616 87 616 72 638 c 128,-1,28
 57 660 57 660 56 681 c 1,29,0
 110 710 110 710 181 710 c 128,-1,1
EndSplineSet
EndChar

StartChar: acute
Encoding: 180 180 118
Width: 234
Flags: W
LayerCount: 2
Fore
SplineSet
122 770 m 1,0,1
 181 758 181 758 215 717 c 1,2,-1
 61 559 l 1,3,-1
 18 588 l 1,4,-1
 122 770 l 1,0,1
EndSplineSet
EndChar

StartChar: mu
Encoding: 181 181 119
AltUni2: 0003bc.ffffffff.0
Width: 658
Flags: W
LayerCount: 2
Fore
SplineSet
147 -250 m 128,-1,1
 98 -250 98 -250 98 -204 c 2,2,-1
 98 500 l 1,3,-1
 217 500 l 1,4,-1
 217 160 l 2,5,6
 217 55 217 55 307 55 c 0,7,8
 368 55 368 55 428 102 c 1,9,-1
 428 500 l 1,10,-1
 547 500 l 1,11,-1
 547 143 l 2,12,13
 547 96 547 96 568.5 80 c 128,-1,14
 590 64 590 64 613 64 c 2,15,-1
 625 64 l 1,16,-1
 625 32 l 1,17,18
 578 -15 578 -15 514 -15 c 128,-1,19
 450 -15 450 -15 429 47 c 1,20,21
 364 -15 364 -15 287 -15 c 128,-1,22
 210 -15 210 -15 174 32 c 1,23,24
 174 -110 174 -110 238 -217 c 1,25,0
 196 -250 196 -250 147 -250 c 128,-1,1
EndSplineSet
EndChar

StartChar: paragraph
Encoding: 182 182 120
Width: 638
Flags: W
LayerCount: 2
Fore
SplineSet
36 582 m 0,0,1
 36 760 36 760 261 760 c 2,2,-1
 587 760 l 1,3,-1
 587 717 l 1,4,-1
 502 697 l 1,5,-1
 502 -112 l 1,6,-1
 430 -112 l 1,7,-1
 430 692 l 1,8,-1
 341 692 l 1,9,-1
 341 -112 l 1,10,-1
 269 -112 l 1,11,-1
 269 386 l 1,12,-1
 259 386 l 2,13,14
 82 386 82 386 46 508 c 0,15,16
 36 543 36 543 36 582 c 0,0,1
EndSplineSet
EndChar

StartChar: periodcentered
Encoding: 183 183 121
Width: 258
Flags: W
LayerCount: 2
Fore
SplineSet
52 299 m 128,-1,1
 52 331 52 331 74.5 353.5 c 128,-1,2
 97 376 97 376 129 376 c 128,-1,3
 161 376 161 376 183.5 353.5 c 128,-1,4
 206 331 206 331 206 299 c 128,-1,5
 206 267 206 267 183.5 244.5 c 128,-1,6
 161 222 161 222 129 222 c 128,-1,7
 97 222 97 222 74.5 244.5 c 128,-1,0
 52 267 52 267 52 299 c 128,-1,1
EndSplineSet
EndChar

StartChar: cedilla
Encoding: 184 184 122
Width: 343
Flags: W
LayerCount: 2
Fore
SplineSet
174 -34 m 1,0,1
 279 -38 279 -38 279 -133 c 0,2,3
 279 -180 279 -180 242 -210 c 128,-1,4
 205 -240 205 -240 157.5 -240 c 128,-1,5
 110 -240 110 -240 60 -229 c 1,6,-1
 60 -173 l 1,7,8
 96 -181 96 -181 122 -181 c 0,9,10
 184 -181 184 -181 184 -127.5 c 128,-1,11
 184 -74 184 -74 111 -69 c 1,12,-1
 132 9 l 1,13,-1
 185 9 l 1,14,-1
 174 -34 l 1,0,1
EndSplineSet
EndChar

StartChar: onesuperior
Encoding: 185 185 123
Width: 308
Flags: W
LayerCount: 2
Fore
SplineSet
268 285 m 1,0,-1
 56 285 l 1,1,-1
 56 315 l 1,2,-1
 128 327 l 1,3,-1
 128 644 l 1,4,-1
 52 611 l 1,5,-1
 43 640 l 1,6,-1
 175 710 l 1,7,-1
 216 710 l 1,8,-1
 216 327 l 1,9,-1
 268 315 l 1,10,-1
 268 285 l 1,0,-1
EndSplineSet
EndChar

StartChar: ordmasculine
Encoding: 186 186 124
Width: 390
Flags: W
LayerCount: 2
Fore
SplineSet
195 681 m 0,0,1
 126 681 126 681 126 555 c 128,-1,2
 126 429 126 429 195 429 c 0,3,4
 230 429 230 429 247.5 465 c 128,-1,5
 265 501 265 501 265 555.5 c 128,-1,6
 265 610 265 610 247.5 645.5 c 128,-1,7
 230 681 230 681 195 681 c 0,0,1
81.5 439.5 m 128,-1,9
 40 485 40 485 40 537 c 0,10,11
 40 626 40 626 81.5 670.5 c 128,-1,12
 123 715 123 715 195 715 c 128,-1,13
 267 715 267 715 308.5 670 c 128,-1,14
 350 625 350 625 350 573.5 c 128,-1,15
 350 522 350 522 340 492.5 c 128,-1,16
 330 463 330 463 310 441 c 0,17,18
 267 394 267 394 195 394 c 128,-1,8
 123 394 123 394 81.5 439.5 c 128,-1,9
EndSplineSet
EndChar

StartChar: guillemotright
Encoding: 187 187 125
Width: 477
Flags: W
LayerCount: 2
Fore
SplineSet
233 256 m 1,0,-1
 115 99 l 1,1,-1
 66 99 l 1,2,-1
 127 270 l 1,3,-1
 66 441 l 1,4,-1
 115 441 l 1,5,-1
 233 284 l 1,6,-1
 233 256 l 1,0,-1
429 254 m 1,7,-1
 276 80 l 1,8,-1
 221 80 l 1,9,-1
 312 270 l 1,10,-1
 221 460 l 1,11,-1
 276 460 l 1,12,-1
 429 286 l 1,13,-1
 429 254 l 1,7,-1
EndSplineSet
EndChar

StartChar: onequarter
Encoding: 188 188 126
Width: 768
Flags: W
LayerCount: 2
Fore
SplineSet
262 0 m 1,0,-1
 191 0 l 1,1,-1
 548 715 l 1,2,-1
 618 715 l 1,3,-1
 262 0 l 1,0,-1
595 132 m 1,4,-1
 595 302 l 1,5,-1
 462 132 l 1,6,-1
 595 132 l 1,4,-1
676 424 m 1,7,-1
 676 132 l 1,8,-1
 725 132 l 1,9,-1
 725 85 l 1,10,-1
 676 85 l 1,11,-1
 676 0 l 1,12,-1
 596 0 l 1,13,-1
 596 85 l 1,14,-1
 391 85 l 1,15,-1
 391 119 l 1,16,-1
 628 424 l 1,17,-1
 676 424 l 1,7,-1
267 285 m 1,18,-1
 55 285 l 1,19,-1
 55 315 l 1,20,-1
 127 327 l 1,21,-1
 127 644 l 1,22,-1
 51 611 l 1,23,-1
 42 640 l 1,24,-1
 174 710 l 1,25,-1
 215 710 l 1,26,-1
 215 327 l 1,27,-1
 267 315 l 1,28,-1
 267 285 l 1,18,-1
EndSplineSet
EndChar

StartChar: onehalf
Encoding: 189 189 127
Width: 837
Flags: W
LayerCount: 2
Fore
SplineSet
263 0 m 1,0,-1
 192 0 l 1,1,-1
 549 715 l 1,2,-1
 619 715 l 1,3,-1
 263 0 l 1,0,-1
771 325 m 0,4,5
 771 208 771 208 596 68 c 1,6,-1
 735 68 l 1,7,-1
 765 129 l 1,8,-1
 795 129 l 1,9,-1
 777 -1 l 1,10,-1
 504 -1 l 1,11,-1
 504 35 l 1,12,13
 632 149 632 149 670 264 c 0,14,15
 681 296 681 296 681 328 c 0,16,17
 681 390 681 390 624 390 c 1,18,-1
 562 313 l 1,19,20
 542 323 542 323 528 346.5 c 128,-1,21
 514 370 514 370 512 393 c 1,22,23
 576 424 576 424 625 424 c 0,24,25
 702 424 702 424 736.5 400.5 c 128,-1,26
 771 377 771 377 771 325 c 0,4,5
267 285 m 1,27,-1
 55 285 l 1,28,-1
 55 315 l 1,29,-1
 127 327 l 1,30,-1
 127 644 l 1,31,-1
 51 611 l 1,32,-1
 42 640 l 1,33,-1
 174 710 l 1,34,-1
 215 710 l 1,35,-1
 215 327 l 1,36,-1
 267 315 l 1,37,-1
 267 285 l 1,27,-1
EndSplineSet
EndChar

StartChar: threequarters
Encoding: 190 190 128
Width: 820
Flags: W
LayerCount: 2
Fore
SplineSet
314 0 m 1,0,-1
 243 0 l 1,1,-1
 600 715 l 1,2,-1
 670 715 l 1,3,-1
 314 0 l 1,0,-1
183 710 m 128,-1,5
 254 710 254 710 288 681.5 c 128,-1,6
 322 653 322 653 322 613 c 0,7,8
 322 541 322 541 225 512 c 1,9,10
 288 503 288 503 316.5 473 c 128,-1,11
 345 443 345 443 345 406 c 0,12,13
 345 340 345 340 295.5 308 c 128,-1,14
 246 276 246 276 173.5 276 c 128,-1,15
 101 276 101 276 40 301 c 1,16,-1
 54 337 l 1,17,18
 101 319 101 319 149 319 c 128,-1,19
 197 319 197 319 226 341 c 128,-1,20
 255 363 255 363 255 401.5 c 128,-1,21
 255 440 255 440 223 463 c 128,-1,22
 191 486 191 486 126 486 c 1,23,-1
 126 523 l 1,24,25
 175 523 175 523 204 550 c 128,-1,26
 233 577 233 577 233 607 c 0,27,28
 233 671 233 671 163 679 c 1,29,-1
 104 606 l 1,30,31
 89 616 89 616 74 638 c 128,-1,32
 59 660 59 660 58 681 c 1,33,4
 112 710 112 710 183 710 c 128,-1,5
646 132 m 1,34,-1
 646 302 l 1,35,-1
 513 132 l 1,36,-1
 646 132 l 1,34,-1
727 424 m 1,37,-1
 727 132 l 1,38,-1
 776 132 l 1,39,-1
 776 85 l 1,40,-1
 727 85 l 1,41,-1
 727 0 l 1,42,-1
 647 0 l 1,43,-1
 647 85 l 1,44,-1
 442 85 l 1,45,-1
 442 119 l 1,46,-1
 679 424 l 1,47,-1
 727 424 l 1,37,-1
EndSplineSet
EndChar

StartChar: questiondown
Encoding: 191 191 129
Width: 481
Flags: W
LayerCount: 2
Fore
SplineSet
344 446.5 m 128,-1,1
 344 419 344 419 323.5 399.5 c 128,-1,2
 303 380 303 380 275.5 380 c 128,-1,3
 248 380 248 380 228.5 399.5 c 128,-1,4
 209 419 209 419 209 446.5 c 128,-1,5
 209 474 209 474 228.5 494.5 c 128,-1,6
 248 515 248 515 275.5 515 c 128,-1,7
 303 515 303 515 323.5 494.5 c 128,-1,0
 344 474 344 474 344 446.5 c 128,-1,1
255.5 -215 m 128,-1,9
 150 -215 150 -215 98 -169 c 128,-1,10
 46 -123 46 -123 46 -32.5 c 128,-1,11
 46 58 46 58 162 155 c 1,12,-1
 235 215 l 1,13,-1
 250 308 l 1,14,-1
 301 308 l 1,15,-1
 316 186 l 1,16,17
 173 48 173 48 173 -48 c 0,18,19
 173 -105 173 -105 204 -134 c 128,-1,20
 235 -163 235 -163 285 -163 c 1,21,-1
 403 -70 l 1,22,23
 445 -106 445 -106 450 -167 c 1,24,8
 361 -215 361 -215 255.5 -215 c 128,-1,9
EndSplineSet
EndChar

StartChar: Agrave
Encoding: 192 192 130
Width: 717
Flags: W
LayerCount: 2
Fore
SplineSet
434 767 m 1,0,-1
 407 735 l 1,1,-1
 193 826 l 1,2,3
 224 888 224 888 276 904 c 1,4,-1
 434 767 l 1,0,-1
228 257 m 1,5,-1
 429 257 l 1,6,-1
 331 530 l 1,7,-1
 228 257 l 1,5,-1
719 0 m 1,8,-1
 425 0 l 1,9,-1
 425 46 l 1,10,-1
 499 63 l 1,11,-1
 451 198 l 1,12,-1
 206 198 l 1,13,-1
 154 66 l 1,14,-1
 242 46 l 1,15,-1
 242 0 l 1,16,-1
 -10 0 l 1,17,-1
 -10 46 l 1,18,-1
 84 68 l 1,19,-1
 327 705 l 1,20,-1
 399 705 l 1,21,-1
 627 67 l 1,22,-1
 719 46 l 1,23,-1
 719 0 l 1,8,-1
EndSplineSet
EndChar

StartChar: Aacute
Encoding: 193 193 131
Width: 717
Flags: W
LayerCount: 2
Fore
SplineSet
420 904 m 1,0,1
 469 889 469 889 503 826 c 1,2,-1
 289 735 l 1,3,-1
 262 767 l 1,4,-1
 420 904 l 1,0,1
228 257 m 1,5,-1
 429 257 l 1,6,-1
 331 530 l 1,7,-1
 228 257 l 1,5,-1
719 0 m 1,8,-1
 425 0 l 1,9,-1
 425 46 l 1,10,-1
 499 63 l 1,11,-1
 451 198 l 1,12,-1
 206 198 l 1,13,-1
 154 66 l 1,14,-1
 242 46 l 1,15,-1
 242 0 l 1,16,-1
 -10 0 l 1,17,-1
 -10 46 l 1,18,-1
 84 68 l 1,19,-1
 327 705 l 1,20,-1
 399 705 l 1,21,-1
 627 67 l 1,22,-1
 719 46 l 1,23,-1
 719 0 l 1,8,-1
EndSplineSet
EndChar

StartChar: Acircumflex
Encoding: 194 194 132
Width: 717
Flags: W
LayerCount: 2
Fore
SplineSet
532 757 m 1,0,-1
 482 734 l 1,1,-1
 360 826 l 1,2,-1
 229 733 l 1,3,-1
 183 757 l 1,4,-1
 318 903 l 1,5,-1
 402 903 l 1,6,-1
 532 757 l 1,0,-1
228 257 m 1,7,-1
 429 257 l 1,8,-1
 331 530 l 1,9,-1
 228 257 l 1,7,-1
719 0 m 1,10,-1
 425 0 l 1,11,-1
 425 46 l 1,12,-1
 499 63 l 1,13,-1
 451 198 l 1,14,-1
 206 198 l 1,15,-1
 154 66 l 1,16,-1
 242 46 l 1,17,-1
 242 0 l 1,18,-1
 -10 0 l 1,19,-1
 -10 46 l 1,20,-1
 84 68 l 1,21,-1
 327 705 l 1,22,-1
 399 705 l 1,23,-1
 627 67 l 1,24,-1
 719 46 l 1,25,-1
 719 0 l 1,10,-1
EndSplineSet
EndChar

StartChar: Atilde
Encoding: 195 195 133
Width: 717
Flags: W
LayerCount: 2
Fore
SplineSet
444 847 m 128,-1,1
 466 847 466 847 518 889 c 1,2,-1
 548 860 l 1,3,4
 500 767 500 767 425 767 c 0,5,6
 401 767 401 767 360 795.5 c 128,-1,7
 319 824 319 824 294.5 824 c 128,-1,8
 270 824 270 824 254 813.5 c 128,-1,9
 238 803 238 803 209 782 c 1,10,-1
 178 813 l 1,11,12
 233 904 233 904 302 904 c 0,13,14
 333 904 333 904 376 876 c 2,15,-1
 407 856 l 2,16,0
 422 847 422 847 444 847 c 128,-1,1
228 257 m 1,17,-1
 429 257 l 1,18,-1
 331 530 l 1,19,-1
 228 257 l 1,17,-1
719 0 m 1,20,-1
 425 0 l 1,21,-1
 425 46 l 1,22,-1
 499 63 l 1,23,-1
 451 198 l 1,24,-1
 206 198 l 1,25,-1
 154 66 l 1,26,-1
 242 46 l 1,27,-1
 242 0 l 1,28,-1
 -10 0 l 1,29,-1
 -10 46 l 1,30,-1
 84 68 l 1,31,-1
 327 705 l 1,32,-1
 399 705 l 1,33,-1
 627 67 l 1,34,-1
 719 46 l 1,35,-1
 719 0 l 1,20,-1
EndSplineSet
EndChar

StartChar: Adieresis
Encoding: 196 196 134
Width: 717
Flags: W
LayerCount: 2
Fore
SplineSet
402 822 m 128,-1,1
 402 850 402 850 421 868.5 c 128,-1,2
 440 887 440 887 468 887 c 128,-1,3
 496 887 496 887 514.5 868.5 c 128,-1,4
 533 850 533 850 533 822 c 128,-1,5
 533 794 533 794 514.5 775 c 128,-1,6
 496 756 496 756 468 756 c 128,-1,7
 440 756 440 756 421 775 c 128,-1,0
 402 794 402 794 402 822 c 128,-1,1
188 822 m 128,-1,9
 188 850 188 850 206.5 868.5 c 128,-1,10
 225 887 225 887 253 887 c 128,-1,11
 281 887 281 887 299.5 868.5 c 128,-1,12
 318 850 318 850 318 822 c 128,-1,13
 318 794 318 794 299.5 775 c 128,-1,14
 281 756 281 756 253 756 c 128,-1,15
 225 756 225 756 206.5 775 c 128,-1,8
 188 794 188 794 188 822 c 128,-1,9
228 257 m 1,16,-1
 429 257 l 1,17,-1
 331 530 l 1,18,-1
 228 257 l 1,16,-1
719 0 m 1,19,-1
 425 0 l 1,20,-1
 425 46 l 1,21,-1
 499 63 l 1,22,-1
 451 198 l 1,23,-1
 206 198 l 1,24,-1
 154 66 l 1,25,-1
 242 46 l 1,26,-1
 242 0 l 1,27,-1
 -10 0 l 1,28,-1
 -10 46 l 1,29,-1
 84 68 l 1,30,-1
 327 705 l 1,31,-1
 399 705 l 1,32,-1
 627 67 l 1,33,-1
 719 46 l 1,34,-1
 719 0 l 1,19,-1
EndSplineSet
EndChar

StartChar: Aring
Encoding: 197 197 135
Width: 718
Flags: W
LayerCount: 2
Fore
SplineSet
309 763.5 m 128,-1,1
 309 741 309 741 325 725 c 128,-1,2
 341 709 341 709 364 709 c 128,-1,3
 387 709 387 709 403 725 c 128,-1,4
 419 741 419 741 419 763.5 c 128,-1,5
 419 786 419 786 403 802.5 c 128,-1,6
 387 819 387 819 364 819 c 128,-1,7
 341 819 341 819 325 802.5 c 128,-1,0
 309 786 309 786 309 763.5 c 128,-1,1
229 257 m 1,8,-1
 430 257 l 1,9,-1
 332 530 l 1,10,-1
 229 257 l 1,8,-1
441 841 m 128,-1,12
 473 809 473 809 473 754 c 128,-1,13
 473 699 473 699 413 667 c 1,14,-1
 628 67 l 1,15,-1
 720 46 l 1,16,-1
 720 0 l 1,17,-1
 426 0 l 1,18,-1
 426 46 l 1,19,-1
 500 63 l 1,20,-1
 452 198 l 1,21,-1
 207 198 l 1,22,-1
 155 66 l 1,23,-1
 243 46 l 1,24,-1
 243 0 l 1,25,-1
 -9 0 l 1,26,-1
 -9 46 l 1,27,-1
 85 68 l 1,28,-1
 313 667 l 1,29,30
 255 698 255 698 255 753.5 c 128,-1,31
 255 809 255 809 287 841 c 128,-1,32
 319 873 319 873 364 873 c 128,-1,11
 409 873 409 873 441 841 c 128,-1,12
EndSplineSet
EndChar

StartChar: AE
Encoding: 198 198 136
Width: 1040
Flags: W
LayerCount: 2
Fore
SplineSet
533 301 m 1,0,-1
 533 584 l 1,1,-1
 331 301 l 1,2,-1
 533 301 l 1,0,-1
533 237 m 1,3,-1
 286 237 l 1,4,-1
 165 67 l 1,5,-1
 254 46 l 1,6,-1
 254 0 l 1,7,-1
 -11 0 l 1,8,-1
 -11 46 l 1,9,-1
 81 68 l 1,10,-1
 533 700 l 1,11,-1
 967 700 l 1,12,-1
 967 495 l 1,13,-1
 921 495 l 1,14,-1
 878 633 l 1,15,-1
 656 633 l 1,16,-1
 656 383 l 1,17,-1
 877 403 l 1,18,-1
 877 314 l 1,19,-1
 656 333 l 1,20,-1
 656 67 l 1,21,-1
 878 67 l 1,22,-1
 951 216 l 1,23,-1
 997 216 l 1,24,-1
 967 0 l 1,25,-1
 441 0 l 1,26,-1
 441 46 l 1,27,-1
 533 68 l 1,28,-1
 533 237 l 1,3,-1
EndSplineSet
EndChar

StartChar: Ccedilla
Encoding: 199 199 137
Width: 671
Flags: W
LayerCount: 2
Fore
SplineSet
51 350 m 0,0,1
 51 715 51 715 422 715 c 0,2,3
 523 715 523 715 608 680 c 1,4,-1
 608 491 l 1,5,-1
 562 491 l 1,6,-1
 516 639 l 1,7,8
 480 648 480 648 426 648 c 0,9,10
 177 648 177 648 177 350 c 128,-1,11
 177 52 177 52 406 52 c 0,12,13
 476 52 476 52 516 60 c 1,14,-1
 574 218 l 1,15,-1
 620 218 l 1,16,-1
 613 29 l 1,17,18
 539 -10 539 -10 409 -15 c 1,19,-1
 399 -54 l 1,20,21
 504 -58 504 -58 504 -153 c 0,22,23
 504 -200 504 -200 467 -230 c 128,-1,24
 430 -260 430 -260 382 -260 c 128,-1,25
 334 -260 334 -260 285 -249 c 1,26,-1
 285 -193 l 1,27,28
 321 -201 321 -201 347 -201 c 0,29,30
 409 -201 409 -201 409 -147.5 c 128,-1,31
 409 -94 409 -94 336 -89 c 1,32,-1
 356 -13 l 1,33,34
 205 -2 205 -2 128 91.5 c 128,-1,35
 51 185 51 185 51 350 c 0,0,1
EndSplineSet
EndChar

StartChar: Egrave
Encoding: 200 200 138
Width: 641
Flags: W
LayerCount: 2
Fore
SplineSet
405 767 m 1,0,-1
 378 735 l 1,1,-1
 164 826 l 1,2,3
 195 888 195 888 247 904 c 1,4,-1
 405 767 l 1,0,-1
44 0 m 1,5,-1
 44 46 l 1,6,-1
 136 68 l 1,7,-1
 136 632 l 1,8,-1
 44 654 l 1,9,-1
 44 700 l 1,10,-1
 565 700 l 1,11,-1
 565 495 l 1,12,-1
 518 495 l 1,13,-1
 475 633 l 1,14,-1
 259 641 l 1,15,-1
 259 384 l 1,16,-1
 475 403 l 1,17,-1
 475 314 l 1,18,-1
 259 332 l 1,19,-1
 259 59 l 1,20,-1
 494 67 l 1,21,-1
 545 216 l 1,22,-1
 592 216 l 1,23,-1
 584 0 l 1,24,-1
 44 0 l 1,5,-1
EndSplineSet
EndChar

StartChar: Eacute
Encoding: 201 201 139
Width: 641
Flags: W
LayerCount: 2
Fore
SplineSet
420 904 m 1,0,1
 469 889 469 889 503 826 c 1,2,-1
 289 735 l 1,3,-1
 262 767 l 1,4,-1
 420 904 l 1,0,1
44 0 m 1,5,-1
 44 46 l 1,6,-1
 136 68 l 1,7,-1
 136 632 l 1,8,-1
 44 654 l 1,9,-1
 44 700 l 1,10,-1
 565 700 l 1,11,-1
 565 495 l 1,12,-1
 518 495 l 1,13,-1
 475 633 l 1,14,-1
 259 641 l 1,15,-1
 259 384 l 1,16,-1
 475 403 l 1,17,-1
 475 314 l 1,18,-1
 259 332 l 1,19,-1
 259 59 l 1,20,-1
 494 67 l 1,21,-1
 545 216 l 1,22,-1
 592 216 l 1,23,-1
 584 0 l 1,24,-1
 44 0 l 1,5,-1
EndSplineSet
EndChar

StartChar: Ecircumflex
Encoding: 202 202 140
Width: 641
Flags: W
LayerCount: 2
Fore
SplineSet
512 767 m 1,0,-1
 462 744 l 1,1,-1
 340 836 l 1,2,-1
 209 743 l 1,3,-1
 163 767 l 1,4,-1
 298 913 l 1,5,-1
 382 913 l 1,6,-1
 512 767 l 1,0,-1
44 0 m 1,7,-1
 44 46 l 1,8,-1
 136 68 l 1,9,-1
 136 632 l 1,10,-1
 44 654 l 1,11,-1
 44 700 l 1,12,-1
 565 700 l 1,13,-1
 565 495 l 1,14,-1
 518 495 l 1,15,-1
 475 633 l 1,16,-1
 259 641 l 1,17,-1
 259 384 l 1,18,-1
 475 403 l 1,19,-1
 475 314 l 1,20,-1
 259 332 l 1,21,-1
 259 59 l 1,22,-1
 494 67 l 1,23,-1
 545 216 l 1,24,-1
 592 216 l 1,25,-1
 584 0 l 1,26,-1
 44 0 l 1,7,-1
EndSplineSet
EndChar

StartChar: Edieresis
Encoding: 203 203 141
Width: 641
Flags: W
LayerCount: 2
Fore
SplineSet
392 827 m 128,-1,1
 392 855 392 855 411 873.5 c 128,-1,2
 430 892 430 892 458 892 c 128,-1,3
 486 892 486 892 504.5 873.5 c 128,-1,4
 523 855 523 855 523 827 c 128,-1,5
 523 799 523 799 504.5 780 c 128,-1,6
 486 761 486 761 458 761 c 128,-1,7
 430 761 430 761 411 780 c 128,-1,0
 392 799 392 799 392 827 c 128,-1,1
178 827 m 128,-1,9
 178 855 178 855 196.5 873.5 c 128,-1,10
 215 892 215 892 243 892 c 128,-1,11
 271 892 271 892 289.5 873.5 c 128,-1,12
 308 855 308 855 308 827 c 128,-1,13
 308 799 308 799 289.5 780 c 128,-1,14
 271 761 271 761 243 761 c 128,-1,15
 215 761 215 761 196.5 780 c 128,-1,8
 178 799 178 799 178 827 c 128,-1,9
44 0 m 1,16,-1
 44 46 l 1,17,-1
 136 68 l 1,18,-1
 136 632 l 1,19,-1
 44 654 l 1,20,-1
 44 700 l 1,21,-1
 565 700 l 1,22,-1
 565 495 l 1,23,-1
 518 495 l 1,24,-1
 475 633 l 1,25,-1
 259 641 l 1,26,-1
 259 384 l 1,27,-1
 475 403 l 1,28,-1
 475 314 l 1,29,-1
 259 332 l 1,30,-1
 259 59 l 1,31,-1
 494 67 l 1,32,-1
 545 216 l 1,33,-1
 592 216 l 1,34,-1
 584 0 l 1,35,-1
 44 0 l 1,16,-1
EndSplineSet
EndChar

StartChar: Igrave
Encoding: 204 204 142
Width: 395
Flags: W
LayerCount: 2
Fore
SplineSet
240 767 m 1,0,-1
 213 735 l 1,1,-1
 -1 826 l 1,2,3
 30 888 30 888 82 904 c 1,4,-1
 240 767 l 1,0,-1
351 0 m 1,5,-1
 44 0 l 1,6,-1
 44 46 l 1,7,-1
 137 68 l 1,8,-1
 137 632 l 1,9,-1
 44 654 l 1,10,-1
 44 700 l 1,11,-1
 351 700 l 1,12,-1
 351 654 l 1,13,-1
 259 632 l 1,14,-1
 259 68 l 1,15,-1
 351 46 l 1,16,-1
 351 0 l 1,5,-1
EndSplineSet
EndChar

StartChar: Iacute
Encoding: 205 205 143
Width: 395
Flags: W
LayerCount: 2
Fore
SplineSet
289 904 m 1,0,1
 338 889 338 889 372 826 c 1,2,-1
 158 735 l 1,3,-1
 131 767 l 1,4,-1
 289 904 l 1,0,1
351 0 m 1,5,-1
 44 0 l 1,6,-1
 44 46 l 1,7,-1
 137 68 l 1,8,-1
 137 632 l 1,9,-1
 44 654 l 1,10,-1
 44 700 l 1,11,-1
 351 700 l 1,12,-1
 351 654 l 1,13,-1
 259 632 l 1,14,-1
 259 68 l 1,15,-1
 351 46 l 1,16,-1
 351 0 l 1,5,-1
EndSplineSet
EndChar

StartChar: Icircumflex
Encoding: 206 206 144
Width: 395
Flags: W
LayerCount: 2
Fore
SplineSet
372 767 m 1,0,-1
 322 744 l 1,1,-1
 200 836 l 1,2,-1
 69 743 l 1,3,-1
 23 767 l 1,4,-1
 158 913 l 1,5,-1
 242 913 l 1,6,-1
 372 767 l 1,0,-1
351 0 m 1,7,-1
 44 0 l 1,8,-1
 44 46 l 1,9,-1
 137 68 l 1,10,-1
 137 632 l 1,11,-1
 44 654 l 1,12,-1
 44 700 l 1,13,-1
 351 700 l 1,14,-1
 351 654 l 1,15,-1
 259 632 l 1,16,-1
 259 68 l 1,17,-1
 351 46 l 1,18,-1
 351 0 l 1,7,-1
EndSplineSet
EndChar

StartChar: Idieresis
Encoding: 207 207 145
Width: 395
Flags: W
LayerCount: 2
Fore
SplineSet
247 827 m 128,-1,1
 247 855 247 855 266 873.5 c 128,-1,2
 285 892 285 892 313 892 c 128,-1,3
 341 892 341 892 359.5 873.5 c 128,-1,4
 378 855 378 855 378 827 c 128,-1,5
 378 799 378 799 359.5 780 c 128,-1,6
 341 761 341 761 313 761 c 128,-1,7
 285 761 285 761 266 780 c 128,-1,0
 247 799 247 799 247 827 c 128,-1,1
33 827 m 128,-1,9
 33 855 33 855 51.5 873.5 c 128,-1,10
 70 892 70 892 98 892 c 128,-1,11
 126 892 126 892 144.5 873.5 c 128,-1,12
 163 855 163 855 163 827 c 128,-1,13
 163 799 163 799 144.5 780 c 128,-1,14
 126 761 126 761 98 761 c 128,-1,15
 70 761 70 761 51.5 780 c 128,-1,8
 33 799 33 799 33 827 c 128,-1,9
351 0 m 1,16,-1
 44 0 l 1,17,-1
 44 46 l 1,18,-1
 137 68 l 1,19,-1
 137 632 l 1,20,-1
 44 654 l 1,21,-1
 44 700 l 1,22,-1
 351 700 l 1,23,-1
 351 654 l 1,24,-1
 259 632 l 1,25,-1
 259 68 l 1,26,-1
 351 46 l 1,27,-1
 351 0 l 1,16,-1
EndSplineSet
EndChar

StartChar: Eth
Encoding: 208 208 146
Width: 751
Flags: W
LayerCount: 2
Fore
SplineSet
574 350 m 0,0,1
 574 502 574 502 495.5 567.5 c 128,-1,2
 417 633 417 633 300 633 c 2,3,-1
 260 633 l 1,4,-1
 260 375 l 1,5,-1
 413 375 l 1,6,-1
 413 329 l 1,7,-1
 260 329 l 1,8,-1
 260 67 l 1,9,-1
 300 67 l 2,10,11
 487 67 487 67 550 214 c 0,12,13
 574 268 574 268 574 350 c 0,0,1
45 375 m 1,14,-1
 137 375 l 1,15,-1
 137 632 l 1,16,-1
 45 654 l 1,17,-1
 45 700 l 1,18,-1
 305 700 l 2,19,20
 588 700 588 700 672 506 c 0,21,22
 700 440 700 440 700 350 c 0,23,24
 700 175 700 175 594 87.5 c 128,-1,25
 488 0 488 0 305 0 c 2,26,-1
 45 0 l 1,27,-1
 45 46 l 1,28,-1
 137 68 l 1,29,-1
 137 329 l 1,30,-1
 45 329 l 1,31,-1
 45 375 l 1,14,-1
EndSplineSet
EndChar

StartChar: Ntilde
Encoding: 209 209 147
Width: 822
Flags: W
LayerCount: 2
Fore
SplineSet
491 842 m 128,-1,1
 513 842 513 842 565 884 c 1,2,-1
 595 855 l 1,3,4
 547 762 547 762 472 762 c 0,5,6
 448 762 448 762 407 790.5 c 128,-1,7
 366 819 366 819 341.5 819 c 128,-1,8
 317 819 317 819 301 808.5 c 128,-1,9
 285 798 285 798 256 777 c 1,10,-1
 225 808 l 1,11,12
 280 899 280 899 349 899 c 0,13,14
 380 899 380 899 423 870 c 1,15,-1
 454 851 l 2,16,0
 469 842 469 842 491 842 c 128,-1,1
696 0 m 1,17,-1
 636 0 l 1,18,-1
 206 507 l 1,19,-1
 206 68 l 1,20,-1
 298 46 l 1,21,-1
 298 0 l 1,22,-1
 44 0 l 1,23,-1
 44 46 l 1,24,-1
 136 68 l 1,25,-1
 136 632 l 1,26,-1
 44 654 l 1,27,-1
 44 700 l 1,28,-1
 206 700 l 1,29,-1
 623 205 l 1,30,-1
 623 632 l 1,31,-1
 531 654 l 1,32,-1
 531 700 l 1,33,-1
 788 700 l 1,34,-1
 788 654 l 1,35,-1
 696 632 l 1,36,-1
 696 0 l 1,17,-1
EndSplineSet
EndChar

StartChar: Ograve
Encoding: 210 210 148
Width: 771
Flags: W
LayerCount: 2
Fore
SplineSet
487 767 m 1,0,-1
 460 735 l 1,1,-1
 246 826 l 1,2,3
 277 888 277 888 329 904 c 1,4,-1
 487 767 l 1,0,-1
386 44 m 128,-1,6
 439 44 439 44 478 68 c 128,-1,7
 517 92 517 92 542.5 133.5 c 128,-1,8
 568 175 568 175 580.5 231 c 128,-1,9
 593 287 593 287 593 350 c 128,-1,10
 593 413 593 413 580.5 469 c 128,-1,11
 568 525 568 525 542.5 566.5 c 128,-1,12
 517 608 517 608 478 632 c 128,-1,13
 439 656 439 656 386 656 c 128,-1,14
 333 656 333 656 294 632 c 128,-1,15
 255 608 255 608 229.5 566.5 c 128,-1,16
 204 525 204 525 191.5 469 c 128,-1,17
 179 413 179 413 179 350 c 128,-1,18
 179 287 179 287 191.5 231 c 128,-1,19
 204 175 204 175 229.5 133.5 c 128,-1,20
 255 92 255 92 294 68 c 128,-1,5
 333 44 333 44 386 44 c 128,-1,6
386 -15 m 128,-1,22
 299 -15 299 -15 236 14 c 128,-1,23
 173 43 173 43 131.5 92.5 c 128,-1,24
 90 142 90 142 70.5 208.5 c 128,-1,25
 51 275 51 275 51 350 c 128,-1,26
 51 425 51 425 70.5 491.5 c 128,-1,27
 90 558 90 558 131.5 607.5 c 128,-1,28
 173 657 173 657 236 686 c 128,-1,29
 299 715 299 715 386 715 c 128,-1,30
 473 715 473 715 536 686 c 128,-1,31
 599 657 599 657 640 607.5 c 128,-1,32
 681 558 681 558 701 491.5 c 128,-1,33
 721 425 721 425 721 350 c 128,-1,34
 721 275 721 275 701 208.5 c 128,-1,35
 681 142 681 142 640 92.5 c 128,-1,36
 599 43 599 43 536 14 c 128,-1,21
 473 -15 473 -15 386 -15 c 128,-1,22
EndSplineSet
EndChar

StartChar: Oacute
Encoding: 211 211 149
Width: 771
Flags: W
LayerCount: 2
Fore
SplineSet
472 904 m 1,0,1
 521 889 521 889 555 826 c 1,2,-1
 341 735 l 1,3,-1
 314 767 l 1,4,-1
 472 904 l 1,0,1
386 44 m 128,-1,6
 439 44 439 44 478 68 c 128,-1,7
 517 92 517 92 542.5 133.5 c 128,-1,8
 568 175 568 175 580.5 231 c 128,-1,9
 593 287 593 287 593 350 c 128,-1,10
 593 413 593 413 580.5 469 c 128,-1,11
 568 525 568 525 542.5 566.5 c 128,-1,12
 517 608 517 608 478 632 c 128,-1,13
 439 656 439 656 386 656 c 128,-1,14
 333 656 333 656 294 632 c 128,-1,15
 255 608 255 608 229.5 566.5 c 128,-1,16
 204 525 204 525 191.5 469 c 128,-1,17
 179 413 179 413 179 350 c 128,-1,18
 179 287 179 287 191.5 231 c 128,-1,19
 204 175 204 175 229.5 133.5 c 128,-1,20
 255 92 255 92 294 68 c 128,-1,5
 333 44 333 44 386 44 c 128,-1,6
386 -15 m 128,-1,22
 299 -15 299 -15 236 14 c 128,-1,23
 173 43 173 43 131.5 92.5 c 128,-1,24
 90 142 90 142 70.5 208.5 c 128,-1,25
 51 275 51 275 51 350 c 128,-1,26
 51 425 51 425 70.5 491.5 c 128,-1,27
 90 558 90 558 131.5 607.5 c 128,-1,28
 173 657 173 657 236 686 c 128,-1,29
 299 715 299 715 386 715 c 128,-1,30
 473 715 473 715 536 686 c 128,-1,31
 599 657 599 657 640 607.5 c 128,-1,32
 681 558 681 558 701 491.5 c 128,-1,33
 721 425 721 425 721 350 c 128,-1,34
 721 275 721 275 701 208.5 c 128,-1,35
 681 142 681 142 640 92.5 c 128,-1,36
 599 43 599 43 536 14 c 128,-1,21
 473 -15 473 -15 386 -15 c 128,-1,22
EndSplineSet
EndChar

StartChar: Ocircumflex
Encoding: 212 212 150
Width: 771
Flags: W
LayerCount: 2
Fore
SplineSet
560 767 m 1,0,-1
 510 744 l 1,1,-1
 388 836 l 1,2,-1
 257 743 l 1,3,-1
 211 767 l 1,4,-1
 346 913 l 1,5,-1
 430 913 l 1,6,-1
 560 767 l 1,0,-1
386 44 m 128,-1,8
 439 44 439 44 478 68 c 128,-1,9
 517 92 517 92 542.5 133.5 c 128,-1,10
 568 175 568 175 580.5 231 c 128,-1,11
 593 287 593 287 593 350 c 128,-1,12
 593 413 593 413 580.5 469 c 128,-1,13
 568 525 568 525 542.5 566.5 c 128,-1,14
 517 608 517 608 478 632 c 128,-1,15
 439 656 439 656 386 656 c 128,-1,16
 333 656 333 656 294 632 c 128,-1,17
 255 608 255 608 229.5 566.5 c 128,-1,18
 204 525 204 525 191.5 469 c 128,-1,19
 179 413 179 413 179 350 c 128,-1,20
 179 287 179 287 191.5 231 c 128,-1,21
 204 175 204 175 229.5 133.5 c 128,-1,22
 255 92 255 92 294 68 c 128,-1,7
 333 44 333 44 386 44 c 128,-1,8
386 -15 m 128,-1,24
 299 -15 299 -15 236 14 c 128,-1,25
 173 43 173 43 131.5 92.5 c 128,-1,26
 90 142 90 142 70.5 208.5 c 128,-1,27
 51 275 51 275 51 350 c 128,-1,28
 51 425 51 425 70.5 491.5 c 128,-1,29
 90 558 90 558 131.5 607.5 c 128,-1,30
 173 657 173 657 236 686 c 128,-1,31
 299 715 299 715 386 715 c 128,-1,32
 473 715 473 715 536 686 c 128,-1,33
 599 657 599 657 640 607.5 c 128,-1,34
 681 558 681 558 701 491.5 c 128,-1,35
 721 425 721 425 721 350 c 128,-1,36
 721 275 721 275 701 208.5 c 128,-1,37
 681 142 681 142 640 92.5 c 128,-1,38
 599 43 599 43 536 14 c 128,-1,23
 473 -15 473 -15 386 -15 c 128,-1,24
EndSplineSet
EndChar

StartChar: Otilde
Encoding: 213 213 151
Width: 771
Flags: W
LayerCount: 2
Fore
SplineSet
467 857 m 128,-1,1
 489 857 489 857 541 899 c 1,2,-1
 571 870 l 1,3,4
 523 777 523 777 448 777 c 0,5,6
 424 777 424 777 383 805.5 c 128,-1,7
 342 834 342 834 317.5 834 c 128,-1,8
 293 834 293 834 277 823.5 c 128,-1,9
 261 813 261 813 232 792 c 1,10,-1
 201 823 l 1,11,12
 256 914 256 914 325 914 c 0,13,14
 356 914 356 914 399 886 c 2,15,-1
 430 866 l 2,16,0
 445 857 445 857 467 857 c 128,-1,1
386 44 m 128,-1,18
 439 44 439 44 478 68 c 128,-1,19
 517 92 517 92 542.5 133.5 c 128,-1,20
 568 175 568 175 580.5 231 c 128,-1,21
 593 287 593 287 593 350 c 128,-1,22
 593 413 593 413 580.5 469 c 128,-1,23
 568 525 568 525 542.5 566.5 c 128,-1,24
 517 608 517 608 478 632 c 128,-1,25
 439 656 439 656 386 656 c 128,-1,26
 333 656 333 656 294 632 c 128,-1,27
 255 608 255 608 229.5 566.5 c 128,-1,28
 204 525 204 525 191.5 469 c 128,-1,29
 179 413 179 413 179 350 c 128,-1,30
 179 287 179 287 191.5 231 c 128,-1,31
 204 175 204 175 229.5 133.5 c 128,-1,32
 255 92 255 92 294 68 c 128,-1,17
 333 44 333 44 386 44 c 128,-1,18
386 -15 m 128,-1,34
 299 -15 299 -15 236 14 c 128,-1,35
 173 43 173 43 131.5 92.5 c 128,-1,36
 90 142 90 142 70.5 208.5 c 128,-1,37
 51 275 51 275 51 350 c 128,-1,38
 51 425 51 425 70.5 491.5 c 128,-1,39
 90 558 90 558 131.5 607.5 c 128,-1,40
 173 657 173 657 236 686 c 128,-1,41
 299 715 299 715 386 715 c 128,-1,42
 473 715 473 715 536 686 c 128,-1,43
 599 657 599 657 640 607.5 c 128,-1,44
 681 558 681 558 701 491.5 c 128,-1,45
 721 425 721 425 721 350 c 128,-1,46
 721 275 721 275 701 208.5 c 128,-1,47
 681 142 681 142 640 92.5 c 128,-1,48
 599 43 599 43 536 14 c 128,-1,33
 473 -15 473 -15 386 -15 c 128,-1,34
EndSplineSet
EndChar

StartChar: Odieresis
Encoding: 214 214 152
Width: 771
Flags: W
LayerCount: 2
Fore
SplineSet
435 827 m 128,-1,1
 435 855 435 855 454 873.5 c 128,-1,2
 473 892 473 892 501 892 c 128,-1,3
 529 892 529 892 547.5 873.5 c 128,-1,4
 566 855 566 855 566 827 c 128,-1,5
 566 799 566 799 547.5 780 c 128,-1,6
 529 761 529 761 501 761 c 128,-1,7
 473 761 473 761 454 780 c 128,-1,0
 435 799 435 799 435 827 c 128,-1,1
221 827 m 128,-1,9
 221 855 221 855 239.5 873.5 c 128,-1,10
 258 892 258 892 286 892 c 128,-1,11
 314 892 314 892 332.5 873.5 c 128,-1,12
 351 855 351 855 351 827 c 128,-1,13
 351 799 351 799 332.5 780 c 128,-1,14
 314 761 314 761 286 761 c 128,-1,15
 258 761 258 761 239.5 780 c 128,-1,8
 221 799 221 799 221 827 c 128,-1,9
386 44 m 128,-1,17
 439 44 439 44 478 68 c 128,-1,18
 517 92 517 92 542.5 133.5 c 128,-1,19
 568 175 568 175 580.5 231 c 128,-1,20
 593 287 593 287 593 350 c 128,-1,21
 593 413 593 413 580.5 469 c 128,-1,22
 568 525 568 525 542.5 566.5 c 128,-1,23
 517 608 517 608 478 632 c 128,-1,24
 439 656 439 656 386 656 c 128,-1,25
 333 656 333 656 294 632 c 128,-1,26
 255 608 255 608 229.5 566.5 c 128,-1,27
 204 525 204 525 191.5 469 c 128,-1,28
 179 413 179 413 179 350 c 128,-1,29
 179 287 179 287 191.5 231 c 128,-1,30
 204 175 204 175 229.5 133.5 c 128,-1,31
 255 92 255 92 294 68 c 128,-1,16
 333 44 333 44 386 44 c 128,-1,17
386 -15 m 128,-1,33
 299 -15 299 -15 236 14 c 128,-1,34
 173 43 173 43 131.5 92.5 c 128,-1,35
 90 142 90 142 70.5 208.5 c 128,-1,36
 51 275 51 275 51 350 c 128,-1,37
 51 425 51 425 70.5 491.5 c 128,-1,38
 90 558 90 558 131.5 607.5 c 128,-1,39
 173 657 173 657 236 686 c 128,-1,40
 299 715 299 715 386 715 c 128,-1,41
 473 715 473 715 536 686 c 128,-1,42
 599 657 599 657 640 607.5 c 128,-1,43
 681 558 681 558 701 491.5 c 128,-1,44
 721 425 721 425 721 350 c 128,-1,45
 721 275 721 275 701 208.5 c 128,-1,46
 681 142 681 142 640 92.5 c 128,-1,47
 599 43 599 43 536 14 c 128,-1,32
 473 -15 473 -15 386 -15 c 128,-1,33
EndSplineSet
EndChar

StartChar: multiply
Encoding: 215 215 153
Width: 549
Flags: W
LayerCount: 2
Fore
SplineSet
107 572 m 1,0,-1
 274 405 l 1,1,-1
 443 573 l 1,2,-1
 490 525 l 1,3,-1
 322 357 l 1,4,-1
 490 189 l 1,5,-1
 443 142 l 1,6,-1
 275 310 l 1,7,-1
 107 143 l 1,8,-1
 59 190 l 1,9,-1
 227 357 l 1,10,-1
 59 525 l 1,11,-1
 107 572 l 1,0,-1
EndSplineSet
EndChar

StartChar: Oslash
Encoding: 216 216 154
Width: 771
Flags: W
LayerCount: 2
Fore
SplineSet
294 632 m 0,0,1
 179 561 179 561 179 348 c 0,2,3
 179 211 179 211 233 130 c 1,4,-1
 492 623 l 1,5,6
 447 656 447 656 390 656 c 128,-1,7
 333 656 333 656 294 632 c 0,0,1
378 44 m 0,8,9
 488 44 488 44 540.5 130 c 128,-1,10
 593 216 593 216 593 355 c 128,-1,11
 593 494 593 494 533 580 c 1,12,-1
 273 83 l 1,13,14
 318 44 318 44 378 44 c 0,8,9
721 350 m 0,15,16
 721 99 721 99 536 14 c 0,17,18
 473 -15 473 -15 386.5 -15 c 128,-1,19
 300 -15 300 -15 236 13 c 1,20,-1
 209 -40 l 1,21,-1
 144 -40 l 1,22,-1
 186 42 l 1,23,24
 51 136 51 136 51 350 c 0,25,26
 51 601 51 601 236 686 c 0,27,28
 299 715 299 715 382.5 715 c 128,-1,29
 466 715 466 715 527 689 c 1,30,-1
 554 739 l 1,31,-1
 618 739 l 1,32,-1
 577 663 l 1,33,34
 721 570 721 570 721 350 c 0,15,16
EndSplineSet
EndChar

StartChar: Ugrave
Encoding: 217 217 155
Width: 790
Flags: W
LayerCount: 2
Fore
SplineSet
459 767 m 1,0,-1
 432 735 l 1,1,-1
 218 826 l 1,2,3
 249 888 249 888 301 904 c 1,4,-1
 459 767 l 1,0,-1
676 262 m 2,5,6
 676 128 676 128 598 56.5 c 128,-1,7
 520 -15 520 -15 397 -15 c 0,8,9
 202 -15 202 -15 136 140 c 0,10,11
 114 192 114 192 114 262 c 2,12,-1
 114 632 l 1,13,-1
 22 654 l 1,14,-1
 22 700 l 1,15,-1
 329 700 l 1,16,-1
 329 654 l 1,17,-1
 237 632 l 1,18,-1
 237 262 l 2,19,20
 237 111 237 111 348 74 c 0,21,22
 381 62 381 62 420 62 c 0,23,24
 503 62 503 62 554 112 c 128,-1,25
 605 162 605 162 605 262 c 2,26,-1
 605 632 l 1,27,-1
 512 654 l 1,28,-1
 512 700 l 1,29,-1
 768 700 l 1,30,-1
 768 654 l 1,31,-1
 676 632 l 1,32,-1
 676 262 l 2,5,6
EndSplineSet
EndChar

StartChar: Uacute
Encoding: 218 218 156
Width: 790
Flags: W
LayerCount: 2
Fore
SplineSet
504 904 m 1,0,1
 553 889 553 889 587 826 c 1,2,-1
 373 735 l 1,3,-1
 346 767 l 1,4,-1
 504 904 l 1,0,1
676 262 m 2,5,6
 676 128 676 128 598 56.5 c 128,-1,7
 520 -15 520 -15 397 -15 c 0,8,9
 202 -15 202 -15 136 140 c 0,10,11
 114 192 114 192 114 262 c 2,12,-1
 114 632 l 1,13,-1
 22 654 l 1,14,-1
 22 700 l 1,15,-1
 329 700 l 1,16,-1
 329 654 l 1,17,-1
 237 632 l 1,18,-1
 237 262 l 2,19,20
 237 111 237 111 348 74 c 0,21,22
 381 62 381 62 420 62 c 0,23,24
 503 62 503 62 554 112 c 128,-1,25
 605 162 605 162 605 262 c 2,26,-1
 605 632 l 1,27,-1
 512 654 l 1,28,-1
 512 700 l 1,29,-1
 768 700 l 1,30,-1
 768 654 l 1,31,-1
 676 632 l 1,32,-1
 676 262 l 2,5,6
EndSplineSet
EndChar

StartChar: Ucircumflex
Encoding: 219 219 157
Width: 790
Flags: W
LayerCount: 2
Fore
SplineSet
596 767 m 1,0,-1
 546 744 l 1,1,-1
 424 836 l 1,2,-1
 293 743 l 1,3,-1
 247 767 l 1,4,-1
 382 913 l 1,5,-1
 466 913 l 1,6,-1
 596 767 l 1,0,-1
676 262 m 2,7,8
 676 128 676 128 598 56.5 c 128,-1,9
 520 -15 520 -15 397 -15 c 0,10,11
 202 -15 202 -15 136 140 c 0,12,13
 114 192 114 192 114 262 c 2,14,-1
 114 632 l 1,15,-1
 22 654 l 1,16,-1
 22 700 l 1,17,-1
 329 700 l 1,18,-1
 329 654 l 1,19,-1
 237 632 l 1,20,-1
 237 262 l 2,21,22
 237 111 237 111 348 74 c 0,23,24
 381 62 381 62 420 62 c 0,25,26
 503 62 503 62 554 112 c 128,-1,27
 605 162 605 162 605 262 c 2,28,-1
 605 632 l 1,29,-1
 512 654 l 1,30,-1
 512 700 l 1,31,-1
 768 700 l 1,32,-1
 768 654 l 1,33,-1
 676 632 l 1,34,-1
 676 262 l 2,7,8
EndSplineSet
EndChar

StartChar: Udieresis
Encoding: 220 220 158
Width: 790
Flags: W
LayerCount: 2
Fore
SplineSet
466 827 m 128,-1,1
 466 855 466 855 485 873.5 c 128,-1,2
 504 892 504 892 532 892 c 128,-1,3
 560 892 560 892 578.5 873.5 c 128,-1,4
 597 855 597 855 597 827 c 128,-1,5
 597 799 597 799 578.5 780 c 128,-1,6
 560 761 560 761 532 761 c 128,-1,7
 504 761 504 761 485 780 c 128,-1,0
 466 799 466 799 466 827 c 128,-1,1
317 892 m 128,-1,9
 345 892 345 892 363.5 873.5 c 128,-1,10
 382 855 382 855 382 827 c 128,-1,11
 382 799 382 799 363.5 780 c 128,-1,12
 345 761 345 761 317 761 c 128,-1,13
 289 761 289 761 270.5 780 c 128,-1,14
 252 799 252 799 252 827 c 128,-1,15
 252 855 252 855 270.5 873.5 c 128,-1,8
 289 892 289 892 317 892 c 128,-1,9
676 262 m 2,16,17
 676 128 676 128 598 56.5 c 128,-1,18
 520 -15 520 -15 397 -15 c 0,19,20
 202 -15 202 -15 136 140 c 0,21,22
 114 192 114 192 114 262 c 2,23,-1
 114 632 l 1,24,-1
 22 654 l 1,25,-1
 22 700 l 1,26,-1
 329 700 l 1,27,-1
 329 654 l 1,28,-1
 237 632 l 1,29,-1
 237 262 l 2,30,31
 237 111 237 111 348 74 c 0,32,33
 381 62 381 62 420 62 c 0,34,35
 503 62 503 62 554 112 c 128,-1,36
 605 162 605 162 605 262 c 2,37,-1
 605 632 l 1,38,-1
 512 654 l 1,39,-1
 512 700 l 1,40,-1
 768 700 l 1,41,-1
 768 654 l 1,42,-1
 676 632 l 1,43,-1
 676 262 l 2,16,17
EndSplineSet
EndChar

StartChar: Yacute
Encoding: 221 221 159
Width: 695
Flags: W
LayerCount: 2
Fore
SplineSet
441 904 m 1,0,1
 490 889 490 889 524 826 c 1,2,-1
 310 735 l 1,3,-1
 283 767 l 1,4,-1
 441 904 l 1,0,1
453 700 m 1,5,-1
 698 700 l 1,6,-1
 698 654 l 1,7,-1
 606 632 l 1,8,-1
 412 323 l 1,9,-1
 412 68 l 1,10,-1
 504 46 l 1,11,-1
 504 0 l 1,12,-1
 197 0 l 1,13,-1
 197 46 l 1,14,-1
 289 68 l 1,15,-1
 289 320 l 1,16,-1
 72 634 l 1,17,-1
 -9 654 l 1,18,-1
 -9 700 l 1,19,-1
 279 700 l 1,20,-1
 279 654 l 1,21,-1
 214 641 l 1,22,-1
 379 398 l 1,23,-1
 527 634 l 1,24,-1
 453 654 l 1,25,-1
 453 700 l 1,5,-1
EndSplineSet
EndChar

StartChar: Thorn
Encoding: 222 222 160
Width: 634
Flags: W
LayerCount: 2
Fore
SplineSet
479 350 m 0,0,1
 479 483 479 483 312 483 c 2,2,-1
 259 483 l 1,3,-1
 259 212 l 1,4,-1
 312 212 l 2,5,6
 429 212 429 212 466 289 c 0,7,8
 479 315 479 315 479 350 c 0,0,1
327 546 m 2,9,10
 605 546 605 546 605 349 c 128,-1,11
 605 152 605 152 327 152 c 2,12,-1
 259 152 l 1,13,-1
 259 68 l 1,14,-1
 351 46 l 1,15,-1
 351 0 l 1,16,-1
 44 0 l 1,17,-1
 44 46 l 1,18,-1
 136 68 l 1,19,-1
 136 632 l 1,20,-1
 44 654 l 1,21,-1
 44 700 l 1,22,-1
 351 700 l 1,23,-1
 351 654 l 1,24,-1
 259 632 l 1,25,-1
 259 546 l 1,26,-1
 327 546 l 2,9,10
EndSplineSet
EndChar

StartChar: germandbls
Encoding: 223 223 161
Width: 665
Flags: W
LayerCount: 2
Fore
SplineSet
446 543 m 2,0,1
 446 705 446 705 339 705 c 0,2,3
 259 705 259 705 234 615 c 0,4,5
 225 583 225 583 225 538 c 2,6,-1
 225 0 l 1,7,-1
 21 0 l 1,8,-1
 21 43 l 1,9,-1
 106 63 l 1,10,-1
 106 538 l 2,11,12
 106 695 106 695 230 744 c 0,13,14
 273 760 273 760 332 760 c 0,15,16
 446 760 446 760 505.5 699 c 128,-1,17
 565 638 565 638 565 538 c 2,18,-1
 565 466 l 1,19,-1
 469 466 l 2,20,21
 376 466 376 466 376 397 c 0,22,23
 376 344 376 344 472 306 c 0,24,25
 638 239 638 239 638 143 c 0,26,27
 638 60 638 60 582.5 22.5 c 128,-1,28
 527 -15 527 -15 444.5 -15 c 128,-1,29
 362 -15 362 -15 288 8 c 1,30,-1
 288 151 l 1,31,-1
 334 151 l 1,32,-1
 376 42 l 1,33,34
 392 40 392 40 403 40 c 0,35,36
 524 40 524 40 524 118 c 0,37,38
 524 153 524 153 495 173 c 128,-1,39
 466 193 466 193 406 218 c 0,40,41
 278 270 278 270 278 377 c 0,42,43
 278 443 278 443 324.5 481 c 128,-1,44
 371 519 371 519 446 519 c 1,45,-1
 446 543 l 2,0,1
EndSplineSet
EndChar

StartChar: agrave
Encoding: 224 224 162
Width: 552
Flags: W
LayerCount: 2
Fore
SplineSet
299 591 m 1,0,-1
 257 562 l 1,1,-1
 104 716 l 1,2,3
 138 758 138 758 198 769 c 1,4,-1
 299 591 l 1,0,-1
248 55 m 0,5,6
 303 55 303 55 342 89 c 1,7,-1
 342 246 l 1,8,9
 249 246 249 246 205 212.5 c 128,-1,10
 161 179 161 179 161 128 c 0,11,12
 161 55 161 55 248 55 c 0,5,6
35 124 m 0,13,14
 35 297 35 297 342 297 c 1,15,-1
 342 332 l 2,16,17
 342 403 342 403 329 425 c 0,18,19
 305 466 305 466 241 466 c 1,20,-1
 124 366 l 1,21,22
 101 380 101 380 84 407.5 c 128,-1,23
 67 435 67 435 66 467 c 1,24,25
 155 515 155 515 257 515 c 0,26,27
 462 515 462 515 462 343 c 2,28,-1
 462 65 l 1,29,-1
 540 65 l 1,30,-1
 540 32 l 1,31,32
 493 -15 493 -15 433.5 -15 c 128,-1,33
 374 -15 374 -15 347 36 c 1,34,35
 278 -15 278 -15 184 -15 c 128,-1,36
 90 -15 90 -15 49 61 c 0,37,38
 35 87 35 87 35 124 c 0,13,14
EndSplineSet
EndChar

StartChar: aacute
Encoding: 225 225 163
Width: 552
Flags: W
LayerCount: 2
Fore
SplineSet
333 770 m 1,0,1
 392 758 392 758 426 717 c 1,2,-1
 272 559 l 1,3,-1
 229 588 l 1,4,-1
 333 770 l 1,0,1
248 55 m 0,5,6
 303 55 303 55 342 89 c 1,7,-1
 342 246 l 1,8,9
 249 246 249 246 205 212.5 c 128,-1,10
 161 179 161 179 161 128 c 0,11,12
 161 55 161 55 248 55 c 0,5,6
35 124 m 0,13,14
 35 297 35 297 342 297 c 1,15,-1
 342 332 l 2,16,17
 342 403 342 403 329 425 c 0,18,19
 305 466 305 466 241 466 c 1,20,-1
 124 366 l 1,21,22
 101 380 101 380 84 407.5 c 128,-1,23
 67 435 67 435 66 467 c 1,24,25
 155 515 155 515 257 515 c 0,26,27
 462 515 462 515 462 343 c 2,28,-1
 462 65 l 1,29,-1
 540 65 l 1,30,-1
 540 32 l 1,31,32
 493 -15 493 -15 433.5 -15 c 128,-1,33
 374 -15 374 -15 347 36 c 1,34,35
 278 -15 278 -15 184 -15 c 128,-1,36
 90 -15 90 -15 49 61 c 0,37,38
 35 87 35 87 35 124 c 0,13,14
EndSplineSet
EndChar

StartChar: acircumflex
Encoding: 226 226 164
Width: 552
Flags: W
LayerCount: 2
Fore
SplineSet
428 581 m 1,0,-1
 382 557 l 1,1,-1
 269 684 l 1,2,-1
 157 557 l 1,3,-1
 112 581 l 1,4,-1
 227 766 l 1,5,-1
 311 766 l 1,6,-1
 428 581 l 1,0,-1
248 55 m 0,7,8
 303 55 303 55 342 89 c 1,9,-1
 342 246 l 1,10,11
 249 246 249 246 205 212.5 c 128,-1,12
 161 179 161 179 161 128 c 0,13,14
 161 55 161 55 248 55 c 0,7,8
35 124 m 0,15,16
 35 297 35 297 342 297 c 1,17,-1
 342 332 l 2,18,19
 342 403 342 403 329 425 c 0,20,21
 305 466 305 466 241 466 c 1,22,-1
 124 366 l 1,23,24
 101 380 101 380 84 407.5 c 128,-1,25
 67 435 67 435 66 467 c 1,26,27
 155 515 155 515 257 515 c 0,28,29
 462 515 462 515 462 343 c 2,30,-1
 462 65 l 1,31,-1
 540 65 l 1,32,-1
 540 32 l 1,33,34
 493 -15 493 -15 433.5 -15 c 128,-1,35
 374 -15 374 -15 347 36 c 1,36,37
 278 -15 278 -15 184 -15 c 128,-1,38
 90 -15 90 -15 49 61 c 0,39,40
 35 87 35 87 35 124 c 0,15,16
EndSplineSet
EndChar

StartChar: atilde
Encoding: 227 227 165
Width: 552
Flags: W
LayerCount: 2
Fore
SplineSet
216 733 m 0,0,1
 253 733 253 733 277 714.5 c 128,-1,2
 301 696 301 696 314 687.5 c 128,-1,3
 327 679 327 679 358 679 c 128,-1,4
 389 679 389 679 436 719 c 1,5,-1
 467 692 l 1,6,7
 408 602 408 602 334 602 c 0,8,9
 296 602 296 602 272 620.5 c 128,-1,10
 248 639 248 639 235 647.5 c 128,-1,11
 222 656 222 656 196 656 c 128,-1,12
 170 656 170 656 113 615 c 1,13,-1
 82 643 l 1,14,15
 147 733 147 733 216 733 c 0,0,1
248 55 m 0,16,17
 303 55 303 55 342 89 c 1,18,-1
 342 246 l 1,19,20
 249 246 249 246 205 212.5 c 128,-1,21
 161 179 161 179 161 128 c 0,22,23
 161 55 161 55 248 55 c 0,16,17
35 124 m 0,24,25
 35 297 35 297 342 297 c 1,26,-1
 342 332 l 2,27,28
 342 403 342 403 329 425 c 0,29,30
 305 466 305 466 241 466 c 1,31,-1
 124 366 l 1,32,33
 101 380 101 380 84 407.5 c 128,-1,34
 67 435 67 435 66 467 c 1,35,36
 155 515 155 515 257 515 c 0,37,38
 462 515 462 515 462 343 c 2,39,-1
 462 65 l 1,40,-1
 540 65 l 1,41,-1
 540 32 l 1,42,43
 493 -15 493 -15 433.5 -15 c 128,-1,44
 374 -15 374 -15 347 36 c 1,45,46
 278 -15 278 -15 184 -15 c 128,-1,47
 90 -15 90 -15 49 61 c 0,48,49
 35 87 35 87 35 124 c 0,24,25
EndSplineSet
EndChar

StartChar: adieresis
Encoding: 228 228 166
Width: 552
Flags: W
LayerCount: 2
Fore
SplineSet
309 667 m 128,-1,1
 309 695 309 695 328 713.5 c 128,-1,2
 347 732 347 732 375 732 c 128,-1,3
 403 732 403 732 421.5 713.5 c 128,-1,4
 440 695 440 695 440 667 c 128,-1,5
 440 639 440 639 421.5 620 c 128,-1,6
 403 601 403 601 375 601 c 128,-1,7
 347 601 347 601 328 620 c 128,-1,0
 309 639 309 639 309 667 c 128,-1,1
109 667 m 128,-1,9
 109 695 109 695 128 713.5 c 128,-1,10
 147 732 147 732 175 732 c 128,-1,11
 203 732 203 732 221.5 713.5 c 128,-1,12
 240 695 240 695 240 667 c 128,-1,13
 240 639 240 639 221.5 620 c 128,-1,14
 203 601 203 601 175 601 c 128,-1,15
 147 601 147 601 128 620 c 128,-1,8
 109 639 109 639 109 667 c 128,-1,9
248 55 m 0,16,17
 303 55 303 55 342 89 c 1,18,-1
 342 246 l 1,19,20
 249 246 249 246 205 212.5 c 128,-1,21
 161 179 161 179 161 128 c 0,22,23
 161 55 161 55 248 55 c 0,16,17
35 124 m 0,24,25
 35 297 35 297 342 297 c 1,26,-1
 342 332 l 2,27,28
 342 403 342 403 329 425 c 0,29,30
 305 466 305 466 241 466 c 1,31,-1
 124 366 l 1,32,33
 101 380 101 380 84 407.5 c 128,-1,34
 67 435 67 435 66 467 c 1,35,36
 155 515 155 515 257 515 c 0,37,38
 462 515 462 515 462 343 c 2,39,-1
 462 65 l 1,40,-1
 540 65 l 1,41,-1
 540 32 l 1,42,43
 493 -15 493 -15 433.5 -15 c 128,-1,44
 374 -15 374 -15 347 36 c 1,45,46
 278 -15 278 -15 184 -15 c 128,-1,47
 90 -15 90 -15 49 61 c 0,48,49
 35 87 35 87 35 124 c 0,24,25
EndSplineSet
EndChar

StartChar: aring
Encoding: 229 229 167
Width: 552
Flags: W
LayerCount: 2
Fore
SplineSet
225 670.5 m 128,-1,1
 225 648 225 648 241 632 c 128,-1,2
 257 616 257 616 280 616 c 128,-1,3
 303 616 303 616 319 632 c 128,-1,4
 335 648 335 648 335 670.5 c 128,-1,5
 335 693 335 693 319 709.5 c 128,-1,6
 303 726 303 726 280 726 c 128,-1,7
 257 726 257 726 241 709.5 c 128,-1,0
 225 693 225 693 225 670.5 c 128,-1,1
203 748 m 128,-1,9
 235 780 235 780 268 780 c 0,10,11
 325 780 325 780 357 748 c 128,-1,12
 389 716 389 716 389 682 c 0,13,14
 389 626 389 626 357 594 c 128,-1,15
 325 562 325 562 291 562 c 128,-1,16
 257 562 257 562 237.5 570.5 c 128,-1,17
 218 579 218 579 203 594 c 0,18,19
 171 626 171 626 171 671 c 128,-1,8
 171 716 171 716 203 748 c 128,-1,9
248 55 m 0,20,21
 303 55 303 55 342 89 c 1,22,-1
 342 246 l 1,23,24
 249 246 249 246 205 212.5 c 128,-1,25
 161 179 161 179 161 128 c 0,26,27
 161 55 161 55 248 55 c 0,20,21
35 124 m 0,28,29
 35 297 35 297 342 297 c 1,30,-1
 342 332 l 2,31,32
 342 403 342 403 329 425 c 0,33,34
 305 466 305 466 241 466 c 1,35,-1
 124 366 l 1,36,37
 101 380 101 380 84 407.5 c 128,-1,38
 67 435 67 435 66 467 c 1,39,40
 155 515 155 515 257 515 c 0,41,42
 462 515 462 515 462 343 c 2,43,-1
 462 65 l 1,44,-1
 540 65 l 1,45,-1
 540 32 l 1,46,47
 493 -15 493 -15 433.5 -15 c 128,-1,48
 374 -15 374 -15 347 36 c 1,49,50
 278 -15 278 -15 184 -15 c 128,-1,51
 90 -15 90 -15 49 61 c 0,52,53
 35 87 35 87 35 124 c 0,28,29
EndSplineSet
EndChar

StartChar: ae
Encoding: 230 230 168
Width: 833
Flags: W
LayerCount: 2
Fore
SplineSet
673 307 m 1,0,1
 667 457 667 457 580 460 c 1,2,3
 500 460 500 460 470 358 c 0,4,5
 461 327 461 327 459 293 c 1,6,-1
 673 307 l 1,0,1
231 52 m 0,7,8
 300 52 300 52 339 116 c 1,9,-1
 339 246 l 1,10,11
 205 246 205 246 170 172 c 0,12,13
 160 151 160 151 160 122.5 c 128,-1,14
 160 94 160 94 179 73 c 128,-1,15
 198 52 198 52 231 52 c 0,7,8
420 449 m 1,16,17
 484 515 484 515 588.5 515 c 128,-1,18
 693 515 693 515 744.5 440 c 128,-1,19
 796 365 796 365 796 247 c 1,20,-1
 459 247 l 1,21,22
 469 115 469 115 567 66 c 0,23,24
 600 50 600 50 648.5 50 c 128,-1,25
 697 50 697 50 759 73 c 1,26,-1
 774 26 l 1,27,28
 678 -16 678 -16 596 -16 c 0,29,30
 505 -16 505 -16 433 37 c 0,31,32
 406 57 406 57 387 88 c 1,33,34
 320 -15 320 -15 189 -15 c 0,35,36
 87 -15 87 -15 48 61 c 0,37,38
 34 87 34 87 34 124 c 0,39,40
 34 297 34 297 339 297 c 1,41,-1
 339 332 l 2,42,43
 339 401 339 401 324 424 c 1,44,45
 298 468 298 468 234 468 c 1,46,-1
 122 366 l 1,47,48
 74 406 74 406 69 467 c 1,49,50
 150 515 150 515 261.5 515 c 128,-1,51
 373 515 373 515 420 449 c 1,16,17
EndSplineSet
EndChar

StartChar: ccedilla
Encoding: 231 231 169
Width: 490
Flags: W
LayerCount: 2
Fore
SplineSet
284 -34 m 1,0,1
 389 -38 389 -38 389 -133 c 0,2,3
 389 -180 389 -180 352 -210 c 128,-1,4
 315 -240 315 -240 267.5 -240 c 128,-1,5
 220 -240 220 -240 170 -229 c 1,6,-1
 170 -173 l 1,7,8
 206 -181 206 -181 232 -181 c 0,9,10
 294 -181 294 -181 294 -127.5 c 128,-1,11
 294 -74 294 -74 221 -69 c 1,12,-1
 237 -9 l 1,13,14
 102 21 102 21 58 150 c 0,15,16
 43 193 43 193 43 251 c 0,17,18
 43 367 43 367 115.5 441 c 128,-1,19
 188 515 188 515 283.5 515 c 128,-1,20
 379 515 379 515 451 473 c 1,21,22
 450 436 450 436 430 408 c 128,-1,23
 410 380 410 380 388 369 c 1,24,-1
 292 460 l 1,25,-1
 286 460 l 1,26,27
 205 447 205 447 175 334 c 0,28,29
 165 297 165 297 165 246 c 0,30,31
 165 146 165 146 212.5 98.5 c 128,-1,32
 260 51 260 51 329 51 c 128,-1,33
 398 51 398 51 450 79 c 1,34,-1
 467 30 l 1,35,36
 382 -15 382 -15 296 -15 c 2,37,-1
 289 -15 l 1,38,-1
 284 -34 l 1,0,1
EndSplineSet
EndChar

StartChar: egrave
Encoding: 232 232 170
Width: 536
Flags: W
LayerCount: 2
Fore
SplineSet
328 591 m 1,0,-1
 286 562 l 1,1,-1
 133 716 l 1,2,3
 167 758 167 758 227 769 c 1,4,-1
 328 591 l 1,0,-1
276 460 m 0,5,6
 226 460 226 460 194.5 412.5 c 128,-1,7
 163 365 163 365 161 296 c 1,8,-1
 375 312 l 1,9,10
 367 410 367 410 319 446 c 0,11,12
 301 460 301 460 276 460 c 0,5,6
42 256 m 0,13,14
 42 367 42 367 105.5 441 c 128,-1,15
 169 515 169 515 280.5 515 c 128,-1,16
 392 515 392 515 445.5 439 c 128,-1,17
 499 363 499 363 499 247 c 1,18,-1
 161 247 l 1,19,20
 167 167 167 167 215 108.5 c 128,-1,21
 263 50 263 50 331.5 50 c 128,-1,22
 400 50 400 50 462 73 c 1,23,-1
 479 26 l 1,24,25
 383 -16 383 -16 302 -16 c 0,26,27
 242 -16 242 -16 190 8 c 0,28,29
 94 52 94 52 59 154 c 0,30,31
 42 203 42 203 42 256 c 0,13,14
EndSplineSet
EndChar

StartChar: eacute
Encoding: 233 233 171
Width: 536
Flags: W
LayerCount: 2
Fore
SplineSet
362 770 m 1,0,1
 421 758 421 758 455 717 c 1,2,-1
 301 559 l 1,3,-1
 258 588 l 1,4,-1
 362 770 l 1,0,1
276 460 m 0,5,6
 226 460 226 460 194.5 412.5 c 128,-1,7
 163 365 163 365 161 296 c 1,8,-1
 375 312 l 1,9,10
 367 410 367 410 319 446 c 0,11,12
 301 460 301 460 276 460 c 0,5,6
42 256 m 0,13,14
 42 367 42 367 105.5 441 c 128,-1,15
 169 515 169 515 280.5 515 c 128,-1,16
 392 515 392 515 445.5 439 c 128,-1,17
 499 363 499 363 499 247 c 1,18,-1
 161 247 l 1,19,20
 167 167 167 167 215 108.5 c 128,-1,21
 263 50 263 50 331.5 50 c 128,-1,22
 400 50 400 50 462 73 c 1,23,-1
 479 26 l 1,24,25
 383 -16 383 -16 302 -16 c 0,26,27
 242 -16 242 -16 190 8 c 0,28,29
 94 52 94 52 59 154 c 0,30,31
 42 203 42 203 42 256 c 0,13,14
EndSplineSet
EndChar

StartChar: ecircumflex
Encoding: 234 234 172
Width: 536
Flags: W
LayerCount: 2
Fore
SplineSet
438 581 m 1,0,-1
 392 557 l 1,1,-1
 279 684 l 1,2,-1
 167 557 l 1,3,-1
 122 581 l 1,4,-1
 237 766 l 1,5,-1
 321 766 l 1,6,-1
 438 581 l 1,0,-1
276 460 m 0,7,8
 226 460 226 460 194.5 412.5 c 128,-1,9
 163 365 163 365 161 296 c 1,10,-1
 375 312 l 1,11,12
 367 410 367 410 319 446 c 0,13,14
 301 460 301 460 276 460 c 0,7,8
42 256 m 0,15,16
 42 367 42 367 105.5 441 c 128,-1,17
 169 515 169 515 280.5 515 c 128,-1,18
 392 515 392 515 445.5 439 c 128,-1,19
 499 363 499 363 499 247 c 1,20,-1
 161 247 l 1,21,22
 167 167 167 167 215 108.5 c 128,-1,23
 263 50 263 50 331.5 50 c 128,-1,24
 400 50 400 50 462 73 c 1,25,-1
 479 26 l 1,26,27
 383 -16 383 -16 302 -16 c 0,28,29
 242 -16 242 -16 190 8 c 0,30,31
 94 52 94 52 59 154 c 0,32,33
 42 203 42 203 42 256 c 0,15,16
EndSplineSet
EndChar

StartChar: edieresis
Encoding: 235 235 173
Width: 536
Flags: W
LayerCount: 2
Fore
SplineSet
314 667 m 128,-1,1
 314 695 314 695 333 713.5 c 128,-1,2
 352 732 352 732 380 732 c 128,-1,3
 408 732 408 732 426.5 713.5 c 128,-1,4
 445 695 445 695 445 667 c 128,-1,5
 445 639 445 639 426.5 620 c 128,-1,6
 408 601 408 601 380 601 c 128,-1,7
 352 601 352 601 333 620 c 128,-1,0
 314 639 314 639 314 667 c 128,-1,1
114 667 m 128,-1,9
 114 695 114 695 133 713.5 c 128,-1,10
 152 732 152 732 180 732 c 128,-1,11
 208 732 208 732 226.5 713.5 c 128,-1,12
 245 695 245 695 245 667 c 128,-1,13
 245 639 245 639 226.5 620 c 128,-1,14
 208 601 208 601 180 601 c 128,-1,15
 152 601 152 601 133 620 c 128,-1,8
 114 639 114 639 114 667 c 128,-1,9
276 460 m 0,16,17
 226 460 226 460 194.5 412.5 c 128,-1,18
 163 365 163 365 161 296 c 1,19,-1
 375 312 l 1,20,21
 367 410 367 410 319 446 c 0,22,23
 301 460 301 460 276 460 c 0,16,17
42 256 m 0,24,25
 42 367 42 367 105.5 441 c 128,-1,26
 169 515 169 515 280.5 515 c 128,-1,27
 392 515 392 515 445.5 439 c 128,-1,28
 499 363 499 363 499 247 c 1,29,-1
 161 247 l 1,30,31
 167 167 167 167 215 108.5 c 128,-1,32
 263 50 263 50 331.5 50 c 128,-1,33
 400 50 400 50 462 73 c 1,34,-1
 479 26 l 1,35,36
 383 -16 383 -16 302 -16 c 0,37,38
 242 -16 242 -16 190 8 c 0,39,40
 94 52 94 52 59 154 c 0,41,42
 42 203 42 203 42 256 c 0,24,25
EndSplineSet
EndChar

StartChar: igrave
Encoding: 236 236 174
Width: 347
Flags: W
LayerCount: 2
Fore
SplineSet
205 591 m 1,0,-1
 163 562 l 1,1,-1
 10 716 l 1,2,3
 44 758 44 758 104 769 c 1,4,-1
 205 591 l 1,0,-1
326 0 m 1,5,-1
 36 0 l 1,6,-1
 36 43 l 1,7,-1
 121 63 l 1,8,-1
 121 419 l 1,9,-1
 36 419 l 1,10,-1
 36 462 l 1,11,-1
 196 500 l 1,12,-1
 241 500 l 1,13,-1
 241 63 l 1,14,-1
 326 43 l 1,15,-1
 326 0 l 1,5,-1
EndSplineSet
EndChar

StartChar: iacute
Encoding: 237 237 175
Width: 347
Flags: W
LayerCount: 2
Fore
SplineSet
234 770 m 1,0,1
 293 758 293 758 327 717 c 1,2,-1
 173 559 l 1,3,-1
 130 588 l 1,4,-1
 234 770 l 1,0,1
326 0 m 1,5,-1
 36 0 l 1,6,-1
 36 43 l 1,7,-1
 121 63 l 1,8,-1
 121 419 l 1,9,-1
 36 419 l 1,10,-1
 36 462 l 1,11,-1
 196 500 l 1,12,-1
 241 500 l 1,13,-1
 241 63 l 1,14,-1
 326 43 l 1,15,-1
 326 0 l 1,5,-1
EndSplineSet
EndChar

StartChar: icircumflex
Encoding: 238 238 176
Width: 347
Flags: W
LayerCount: 2
Fore
SplineSet
325 581 m 1,0,-1
 279 557 l 1,1,-1
 166 684 l 1,2,-1
 54 557 l 1,3,-1
 9 581 l 1,4,-1
 124 766 l 1,5,-1
 208 766 l 1,6,-1
 325 581 l 1,0,-1
326 0 m 1,7,-1
 36 0 l 1,8,-1
 36 43 l 1,9,-1
 121 63 l 1,10,-1
 121 419 l 1,11,-1
 36 419 l 1,12,-1
 36 462 l 1,13,-1
 196 500 l 1,14,-1
 241 500 l 1,15,-1
 241 63 l 1,16,-1
 326 43 l 1,17,-1
 326 0 l 1,7,-1
EndSplineSet
EndChar

StartChar: idieresis
Encoding: 239 239 177
Width: 347
Flags: W
LayerCount: 2
Fore
SplineSet
216 667 m 128,-1,1
 216 695 216 695 235 713.5 c 128,-1,2
 254 732 254 732 282 732 c 128,-1,3
 310 732 310 732 328.5 713.5 c 128,-1,4
 347 695 347 695 347 667 c 128,-1,5
 347 639 347 639 328.5 620 c 128,-1,6
 310 601 310 601 282 601 c 128,-1,7
 254 601 254 601 235 620 c 128,-1,0
 216 639 216 639 216 667 c 128,-1,1
82 732 m 128,-1,9
 110 732 110 732 128.5 713.5 c 128,-1,10
 147 695 147 695 147 667 c 128,-1,11
 147 639 147 639 128.5 620 c 128,-1,12
 110 601 110 601 82 601 c 128,-1,13
 54 601 54 601 35 620 c 128,-1,14
 16 639 16 639 16 667 c 128,-1,15
 16 695 16 695 35 713.5 c 128,-1,8
 54 732 54 732 82 732 c 128,-1,9
326 0 m 1,16,-1
 36 0 l 1,17,-1
 36 43 l 1,18,-1
 121 63 l 1,19,-1
 121 419 l 1,20,-1
 36 419 l 1,21,-1
 36 462 l 1,22,-1
 196 500 l 1,23,-1
 241 500 l 1,24,-1
 241 63 l 1,25,-1
 326 43 l 1,26,-1
 326 0 l 1,16,-1
EndSplineSet
EndChar

StartChar: eth
Encoding: 240 240 178
Width: 615
Flags: W
LayerCount: 2
Fore
SplineSet
292 39 m 0,0,1
 420 39 420 39 420 274 c 0,2,3
 420 314 420 314 415 372 c 1,4,5
 366 408 366 408 325 408 c 0,6,7
 171 408 171 408 171 236 c 0,8,9
 171 102 171 102 236 56 c 0,10,11
 259 39 259 39 292 39 c 0,0,1
396 657 m 1,12,13
 548 534 548 534 548 307.5 c 128,-1,14
 548 81 548 81 412 10 c 0,15,16
 362 -16 362 -16 292 -16 c 0,17,18
 163 -16 163 -16 104 54 c 128,-1,19
 45 124 45 124 45 233 c 128,-1,20
 45 342 45 342 104.5 410 c 128,-1,21
 164 478 164 478 257.5 478 c 128,-1,22
 351 478 351 478 412 426 c 1,23,24
 395 540 395 540 319 610 c 1,25,-1
 177 523 l 1,26,-1
 177 591 l 1,27,-1
 269 647 l 1,28,29
 215 681 215 681 147 692 c 1,30,-1
 147 757 l 1,31,32
 254 747 254 747 344 693 c 1,33,-1
 462 766 l 1,34,-1
 462 697 l 1,35,-1
 396 657 l 1,12,13
EndSplineSet
EndChar

StartChar: ntilde
Encoding: 241 241 179
Width: 667
Flags: W
LayerCount: 2
Fore
SplineSet
283 733 m 0,0,1
 320 733 320 733 344 714.5 c 128,-1,2
 368 696 368 696 381 687.5 c 128,-1,3
 394 679 394 679 425 679 c 128,-1,4
 456 679 456 679 503 719 c 1,5,-1
 534 692 l 1,6,7
 475 602 475 602 401 602 c 0,8,9
 363 602 363 602 339 620.5 c 128,-1,10
 315 639 315 639 302 647.5 c 128,-1,11
 289 656 289 656 263 656 c 128,-1,12
 237 656 237 656 180 615 c 1,13,-1
 149 643 l 1,14,15
 214 733 214 733 283 733 c 0,0,1
364 442 m 0,16,17
 306 442 306 442 241 396 c 1,18,-1
 241 63 l 1,19,-1
 306 43 l 1,20,-1
 306 0 l 1,21,-1
 36 0 l 1,22,-1
 36 43 l 1,23,-1
 121 63 l 1,24,-1
 121 419 l 1,25,-1
 36 419 l 1,26,-1
 36 462 l 1,27,-1
 196 500 l 1,28,-1
 241 500 l 1,29,-1
 241 452 l 1,30,31
 315 515 315 515 402 515 c 0,32,33
 523 515 523 515 559 420 c 0,34,35
 570 392 570 392 570 358 c 2,36,-1
 570 63 l 1,37,-1
 655 43 l 1,38,-1
 655 0 l 1,39,-1
 386 0 l 1,40,-1
 386 43 l 1,41,-1
 451 63 l 1,42,-1
 451 340 l 2,43,44
 451 442 451 442 364 442 c 0,16,17
EndSplineSet
EndChar

StartChar: ograve
Encoding: 242 242 180
Width: 593
Flags: W
LayerCount: 2
Fore
SplineSet
350 591 m 1,0,-1
 308 562 l 1,1,-1
 155 716 l 1,2,3
 189 758 189 758 249 769 c 1,4,-1
 350 591 l 1,0,-1
297 515 m 128,-1,6
 407 515 407 515 479 441.5 c 128,-1,7
 551 368 551 368 551 251.5 c 128,-1,8
 551 135 551 135 479.5 60 c 128,-1,9
 408 -15 408 -15 297 -15 c 128,-1,10
 186 -15 186 -15 114 60.5 c 128,-1,11
 42 136 42 136 42 251.5 c 128,-1,12
 42 367 42 367 114.5 441 c 128,-1,5
 187 515 187 515 297 515 c 128,-1,6
426 227 m 0,13,14
 426 460 426 460 297 460 c 0,15,16
 204 460 204 460 176 336 c 0,17,18
 168 297 168 297 168 250.5 c 128,-1,19
 168 204 168 204 176.5 165.5 c 128,-1,20
 185 127 185 127 201 99 c 128,-1,21
 217 71 217 71 241 55.5 c 128,-1,22
 265 40 265 40 296 40 c 0,23,24
 359 40 359 40 392.5 98.5 c 128,-1,25
 426 157 426 157 426 227 c 0,13,14
EndSplineSet
EndChar

StartChar: oacute
Encoding: 243 243 181
Width: 593
Flags: W
LayerCount: 2
Fore
SplineSet
375 770 m 1,0,1
 434 758 434 758 468 717 c 1,2,-1
 314 559 l 1,3,-1
 271 588 l 1,4,-1
 375 770 l 1,0,1
297 515 m 128,-1,6
 407 515 407 515 479 441.5 c 128,-1,7
 551 368 551 368 551 251.5 c 128,-1,8
 551 135 551 135 479.5 60 c 128,-1,9
 408 -15 408 -15 297 -15 c 128,-1,10
 186 -15 186 -15 114 60.5 c 128,-1,11
 42 136 42 136 42 251.5 c 128,-1,12
 42 367 42 367 114.5 441 c 128,-1,5
 187 515 187 515 297 515 c 128,-1,6
426 227 m 0,13,14
 426 460 426 460 297 460 c 0,15,16
 204 460 204 460 176 336 c 0,17,18
 168 297 168 297 168 250.5 c 128,-1,19
 168 204 168 204 176.5 165.5 c 128,-1,20
 185 127 185 127 201 99 c 128,-1,21
 217 71 217 71 241 55.5 c 128,-1,22
 265 40 265 40 296 40 c 0,23,24
 359 40 359 40 392.5 98.5 c 128,-1,25
 426 157 426 157 426 227 c 0,13,14
EndSplineSet
EndChar

StartChar: ocircumflex
Encoding: 244 244 182
Width: 593
Flags: W
LayerCount: 2
Fore
SplineSet
455 581 m 1,0,-1
 409 557 l 1,1,-1
 296 684 l 1,2,-1
 184 557 l 1,3,-1
 139 581 l 1,4,-1
 254 766 l 1,5,-1
 338 766 l 1,6,-1
 455 581 l 1,0,-1
297 515 m 128,-1,8
 407 515 407 515 479 441.5 c 128,-1,9
 551 368 551 368 551 251.5 c 128,-1,10
 551 135 551 135 479.5 60 c 128,-1,11
 408 -15 408 -15 297 -15 c 128,-1,12
 186 -15 186 -15 114 60.5 c 128,-1,13
 42 136 42 136 42 251.5 c 128,-1,14
 42 367 42 367 114.5 441 c 128,-1,7
 187 515 187 515 297 515 c 128,-1,8
426 227 m 0,15,16
 426 460 426 460 297 460 c 0,17,18
 204 460 204 460 176 336 c 0,19,20
 168 297 168 297 168 250.5 c 128,-1,21
 168 204 168 204 176.5 165.5 c 128,-1,22
 185 127 185 127 201 99 c 128,-1,23
 217 71 217 71 241 55.5 c 128,-1,24
 265 40 265 40 296 40 c 0,25,26
 359 40 359 40 392.5 98.5 c 128,-1,27
 426 157 426 157 426 227 c 0,15,16
EndSplineSet
EndChar

StartChar: otilde
Encoding: 245 245 183
Width: 593
Flags: W
LayerCount: 2
Fore
SplineSet
238 733 m 0,0,1
 275 733 275 733 299 714.5 c 128,-1,2
 323 696 323 696 336 687.5 c 128,-1,3
 349 679 349 679 380 679 c 128,-1,4
 411 679 411 679 458 719 c 1,5,-1
 489 692 l 1,6,7
 430 602 430 602 356 602 c 0,8,9
 318 602 318 602 294 620.5 c 128,-1,10
 270 639 270 639 257 647.5 c 128,-1,11
 244 656 244 656 218 656 c 128,-1,12
 192 656 192 656 135 615 c 1,13,-1
 104 643 l 1,14,15
 169 733 169 733 238 733 c 0,0,1
297 515 m 128,-1,17
 407 515 407 515 479 441.5 c 128,-1,18
 551 368 551 368 551 251.5 c 128,-1,19
 551 135 551 135 479.5 60 c 128,-1,20
 408 -15 408 -15 297 -15 c 128,-1,21
 186 -15 186 -15 114 60.5 c 128,-1,22
 42 136 42 136 42 251.5 c 128,-1,23
 42 367 42 367 114.5 441 c 128,-1,16
 187 515 187 515 297 515 c 128,-1,17
426 227 m 0,24,25
 426 460 426 460 297 460 c 0,26,27
 204 460 204 460 176 336 c 0,28,29
 168 297 168 297 168 250.5 c 128,-1,30
 168 204 168 204 176.5 165.5 c 128,-1,31
 185 127 185 127 201 99 c 128,-1,32
 217 71 217 71 241 55.5 c 128,-1,33
 265 40 265 40 296 40 c 0,34,35
 359 40 359 40 392.5 98.5 c 128,-1,36
 426 157 426 157 426 227 c 0,24,25
EndSplineSet
EndChar

StartChar: odieresis
Encoding: 246 246 184
Width: 593
Flags: W
LayerCount: 2
Fore
SplineSet
331 667 m 128,-1,1
 331 695 331 695 350 713.5 c 128,-1,2
 369 732 369 732 397 732 c 128,-1,3
 425 732 425 732 443.5 713.5 c 128,-1,4
 462 695 462 695 462 667 c 128,-1,5
 462 639 462 639 443.5 620 c 128,-1,6
 425 601 425 601 397 601 c 128,-1,7
 369 601 369 601 350 620 c 128,-1,0
 331 639 331 639 331 667 c 128,-1,1
131 667 m 128,-1,9
 131 695 131 695 150 713.5 c 128,-1,10
 169 732 169 732 197 732 c 128,-1,11
 225 732 225 732 243.5 713.5 c 128,-1,12
 262 695 262 695 262 667 c 128,-1,13
 262 639 262 639 243.5 620 c 128,-1,14
 225 601 225 601 197 601 c 128,-1,15
 169 601 169 601 150 620 c 128,-1,8
 131 639 131 639 131 667 c 128,-1,9
297 515 m 128,-1,17
 407 515 407 515 479 441.5 c 128,-1,18
 551 368 551 368 551 251.5 c 128,-1,19
 551 135 551 135 479.5 60 c 128,-1,20
 408 -15 408 -15 297 -15 c 128,-1,21
 186 -15 186 -15 114 60.5 c 128,-1,22
 42 136 42 136 42 251.5 c 128,-1,23
 42 367 42 367 114.5 441 c 128,-1,16
 187 515 187 515 297 515 c 128,-1,17
426 227 m 0,24,25
 426 460 426 460 297 460 c 0,26,27
 204 460 204 460 176 336 c 0,28,29
 168 297 168 297 168 250.5 c 128,-1,30
 168 204 168 204 176.5 165.5 c 128,-1,31
 185 127 185 127 201 99 c 128,-1,32
 217 71 217 71 241 55.5 c 128,-1,33
 265 40 265 40 296 40 c 0,34,35
 359 40 359 40 392.5 98.5 c 128,-1,36
 426 157 426 157 426 227 c 0,24,25
EndSplineSet
EndChar

StartChar: divide
Encoding: 247 247 185
Width: 543
Flags: W
LayerCount: 2
Fore
SplineSet
47 391 m 1,0,-1
 496 391 l 1,1,-1
 496 323 l 1,2,-1
 47 323 l 1,3,-1
 47 391 l 1,0,-1
205 527.5 m 128,-1,5
 205 555 205 555 225 575 c 128,-1,6
 245 595 245 595 273 595 c 128,-1,7
 301 595 301 595 320 575 c 128,-1,8
 339 555 339 555 339 527.5 c 128,-1,9
 339 500 339 500 320 479.5 c 128,-1,10
 301 459 301 459 273 459 c 128,-1,11
 245 459 245 459 225 479.5 c 128,-1,4
 205 500 205 500 205 527.5 c 128,-1,5
205 187.5 m 128,-1,13
 205 215 205 215 225 234.5 c 128,-1,14
 245 254 245 254 273 254 c 128,-1,15
 301 254 301 254 320 234.5 c 128,-1,16
 339 215 339 215 339 187.5 c 128,-1,17
 339 160 339 160 320 139.5 c 128,-1,18
 301 119 301 119 273 119 c 128,-1,19
 245 119 245 119 225 139.5 c 128,-1,12
 205 160 205 160 205 187.5 c 128,-1,13
EndSplineSet
EndChar

StartChar: oslash
Encoding: 248 248 186
Width: 593
Flags: W
LayerCount: 2
Fore
SplineSet
292 40 m 0,0,1
 426 40 426 40 426 267 c 0,2,3
 426 330 426 330 401 385 c 1,4,-1
 227 66 l 1,5,6
 256 40 256 40 292 40 c 0,0,1
303 460 m 0,7,8
 234 460 234 460 201 402 c 128,-1,9
 168 344 168 344 168 254.5 c 128,-1,10
 168 165 168 165 195 111 c 1,11,-1
 370 431 l 1,12,13
 341 460 341 460 303 460 c 0,7,8
447 469 m 1,14,15
 551 393 551 393 551 264 c 128,-1,16
 551 135 551 135 479.5 60 c 128,-1,17
 408 -15 408 -15 297 -15 c 0,18,19
 242 -15 242 -15 194 5 c 1,20,-1
 152 -71 l 1,21,-1
 95 -71 l 1,22,-1
 150 29 l 1,23,24
 42 105 42 105 42 251 c 0,25,26
 42 367 42 367 114.5 441 c 128,-1,27
 187 515 187 515 297 515 c 0,28,29
 353 515 353 515 405 493 c 1,30,-1
 446 569 l 1,31,-1
 502 569 l 1,32,-1
 447 469 l 1,14,15
EndSplineSet
EndChar

StartChar: ugrave
Encoding: 249 249 187
Width: 647
Flags: W
LayerCount: 2
Fore
SplineSet
371 591 m 1,0,-1
 329 562 l 1,1,-1
 176 716 l 1,2,3
 210 758 210 758 270 769 c 1,4,-1
 371 591 l 1,0,-1
98 142 m 2,5,-1
 98 437 l 1,6,-1
 13 457 l 1,7,-1
 13 500 l 1,8,-1
 217 500 l 1,9,-1
 217 155 l 2,10,11
 217 55 217 55 303 55 c 0,12,13
 370 55 370 55 431 106 c 1,14,-1
 431 437 l 1,15,-1
 366 457 l 1,16,-1
 366 500 l 1,17,-1
 550 500 l 1,18,-1
 550 65 l 1,19,-1
 628 65 l 1,20,-1
 628 32 l 1,21,22
 574 -15 574 -15 513.5 -15 c 128,-1,23
 453 -15 453 -15 431 51 c 1,24,25
 354 -15 354 -15 261 -15 c 0,26,27
 141 -15 141 -15 108 80 c 0,28,29
 98 108 98 108 98 142 c 2,5,-1
EndSplineSet
EndChar

StartChar: uacute
Encoding: 250 250 188
Width: 647
Flags: W
LayerCount: 2
Fore
SplineSet
371 770 m 1,0,1
 430 758 430 758 464 717 c 1,2,-1
 310 559 l 1,3,-1
 267 588 l 1,4,-1
 371 770 l 1,0,1
98 142 m 2,5,-1
 98 437 l 1,6,-1
 13 457 l 1,7,-1
 13 500 l 1,8,-1
 217 500 l 1,9,-1
 217 155 l 2,10,11
 217 55 217 55 303 55 c 0,12,13
 370 55 370 55 431 106 c 1,14,-1
 431 437 l 1,15,-1
 366 457 l 1,16,-1
 366 500 l 1,17,-1
 550 500 l 1,18,-1
 550 65 l 1,19,-1
 628 65 l 1,20,-1
 628 32 l 1,21,22
 574 -15 574 -15 513.5 -15 c 128,-1,23
 453 -15 453 -15 431 51 c 1,24,25
 354 -15 354 -15 261 -15 c 0,26,27
 141 -15 141 -15 108 80 c 0,28,29
 98 108 98 108 98 142 c 2,5,-1
EndSplineSet
EndChar

StartChar: ucircumflex
Encoding: 251 251 189
Width: 647
Flags: W
LayerCount: 2
Fore
SplineSet
476 581 m 1,0,-1
 430 557 l 1,1,-1
 317 684 l 1,2,-1
 205 557 l 1,3,-1
 160 581 l 1,4,-1
 275 766 l 1,5,-1
 359 766 l 1,6,-1
 476 581 l 1,0,-1
98 142 m 2,7,-1
 98 437 l 1,8,-1
 13 457 l 1,9,-1
 13 500 l 1,10,-1
 217 500 l 1,11,-1
 217 155 l 2,12,13
 217 55 217 55 303 55 c 0,14,15
 370 55 370 55 431 106 c 1,16,-1
 431 437 l 1,17,-1
 366 457 l 1,18,-1
 366 500 l 1,19,-1
 550 500 l 1,20,-1
 550 65 l 1,21,-1
 628 65 l 1,22,-1
 628 32 l 1,23,24
 574 -15 574 -15 513.5 -15 c 128,-1,25
 453 -15 453 -15 431 51 c 1,26,27
 354 -15 354 -15 261 -15 c 0,28,29
 141 -15 141 -15 108 80 c 0,30,31
 98 108 98 108 98 142 c 2,7,-1
EndSplineSet
EndChar

StartChar: udieresis
Encoding: 252 252 190
Width: 647
Flags: W
LayerCount: 2
Fore
SplineSet
357 667 m 128,-1,1
 357 695 357 695 376 713.5 c 128,-1,2
 395 732 395 732 423 732 c 128,-1,3
 451 732 451 732 469.5 713.5 c 128,-1,4
 488 695 488 695 488 667 c 128,-1,5
 488 639 488 639 469.5 620 c 128,-1,6
 451 601 451 601 423 601 c 128,-1,7
 395 601 395 601 376 620 c 128,-1,0
 357 639 357 639 357 667 c 128,-1,1
157 667 m 128,-1,9
 157 695 157 695 176 713.5 c 128,-1,10
 195 732 195 732 223 732 c 128,-1,11
 251 732 251 732 269.5 713.5 c 128,-1,12
 288 695 288 695 288 667 c 128,-1,13
 288 639 288 639 269.5 620 c 128,-1,14
 251 601 251 601 223 601 c 128,-1,15
 195 601 195 601 176 620 c 128,-1,8
 157 639 157 639 157 667 c 128,-1,9
98 142 m 2,16,-1
 98 437 l 1,17,-1
 13 457 l 1,18,-1
 13 500 l 1,19,-1
 217 500 l 1,20,-1
 217 155 l 2,21,22
 217 55 217 55 303 55 c 0,23,24
 370 55 370 55 431 106 c 1,25,-1
 431 437 l 1,26,-1
 366 457 l 1,27,-1
 366 500 l 1,28,-1
 550 500 l 1,29,-1
 550 65 l 1,30,-1
 628 65 l 1,31,-1
 628 32 l 1,32,33
 574 -15 574 -15 513.5 -15 c 128,-1,34
 453 -15 453 -15 431 51 c 1,35,36
 354 -15 354 -15 261 -15 c 0,37,38
 141 -15 141 -15 108 80 c 0,39,40
 98 108 98 108 98 142 c 2,16,-1
EndSplineSet
EndChar

StartChar: yacute
Encoding: 253 253 191
Width: 601
Flags: W
LayerCount: 2
Fore
SplineSet
363 770 m 1,0,1
 422 758 422 758 456 717 c 1,2,-1
 302 559 l 1,3,-1
 259 588 l 1,4,-1
 363 770 l 1,0,1
1 500 m 1,5,-1
 274 500 l 1,6,-1
 274 457 l 1,7,-1
 197 442 l 1,8,-1
 339 125 l 1,9,-1
 459 437 l 1,10,-1
 379 457 l 1,11,-1
 379 500 l 1,12,-1
 600 500 l 1,13,-1
 600 457 l 1,14,-1
 521 436 l 1,15,-1
 238 -299 l 1,16,-1
 225 -299 l 2,17,18
 162 -299 162 -299 136 -254 c 1,19,-1
 279 -27 l 1,20,-1
 69 438 l 1,21,-1
 1 457 l 1,22,-1
 1 500 l 1,5,-1
EndSplineSet
EndChar

StartChar: thorn
Encoding: 254 254 192
Width: 587
Flags: W
LayerCount: 2
Fore
SplineSet
256 40 m 0,0,1
 329 40 329 40 373.5 96 c 128,-1,2
 418 152 418 152 418 251 c 128,-1,3
 418 350 418 350 381.5 395 c 128,-1,4
 345 440 345 440 293 440 c 128,-1,5
 241 440 241 440 195 418 c 1,6,-1
 195 48 l 1,7,8
 219 40 219 40 256 40 c 0,0,1
300 -275 m 1,9,-1
 -7 -275 l 1,10,-1
 -7 -232 l 1,11,-1
 78 -212 l 1,12,-1
 78 719 l 1,13,-1
 -7 719 l 1,14,-1
 -7 762 l 1,15,-1
 153 800 l 1,16,-1
 195 800 l 1,17,-1
 195 474 l 1,18,19
 254 515 254 515 312 515 c 0,20,21
 419 515 419 515 481.5 452.5 c 128,-1,22
 544 390 544 390 544 260.5 c 128,-1,23
 544 131 544 131 460 55 c 0,24,25
 422 20 422 20 372 2 c 0,26,27
 316 -17 316 -17 265 -17 c 0,28,29
 229 -17 229 -17 195 -7 c 1,30,-1
 195 -212 l 1,31,-1
 300 -232 l 1,32,-1
 300 -275 l 1,9,-1
EndSplineSet
EndChar

StartChar: ydieresis
Encoding: 255 255 193
Width: 601
Flags: W
LayerCount: 2
Fore
SplineSet
354 667 m 128,-1,1
 354 695 354 695 373 713.5 c 128,-1,2
 392 732 392 732 420 732 c 128,-1,3
 448 732 448 732 466.5 713.5 c 128,-1,4
 485 695 485 695 485 667 c 128,-1,5
 485 639 485 639 466.5 620 c 128,-1,6
 448 601 448 601 420 601 c 128,-1,7
 392 601 392 601 373 620 c 128,-1,0
 354 639 354 639 354 667 c 128,-1,1
154 667 m 128,-1,9
 154 695 154 695 173 713.5 c 128,-1,10
 192 732 192 732 220 732 c 128,-1,11
 248 732 248 732 266.5 713.5 c 128,-1,12
 285 695 285 695 285 667 c 128,-1,13
 285 639 285 639 266.5 620 c 128,-1,14
 248 601 248 601 220 601 c 128,-1,15
 192 601 192 601 173 620 c 128,-1,8
 154 639 154 639 154 667 c 128,-1,9
1 500 m 1,16,-1
 274 500 l 1,17,-1
 274 457 l 1,18,-1
 197 442 l 1,19,-1
 339 125 l 1,20,-1
 459 437 l 1,21,-1
 379 457 l 1,22,-1
 379 500 l 1,23,-1
 600 500 l 1,24,-1
 600 457 l 1,25,-1
 521 436 l 1,26,-1
 238 -299 l 1,27,-1
 225 -299 l 2,28,29
 162 -299 162 -299 136 -254 c 1,30,-1
 279 -27 l 1,31,-1
 69 438 l 1,32,-1
 1 457 l 1,33,-1
 1 500 l 1,16,-1
EndSplineSet
EndChar

StartChar: dotlessi
Encoding: 305 305 194
Width: 347
Flags: W
LayerCount: 2
Fore
SplineSet
326 0 m 1,0,-1
 36 0 l 1,1,-1
 36 43 l 1,2,-1
 121 63 l 1,3,-1
 121 419 l 1,4,-1
 36 419 l 1,5,-1
 36 462 l 1,6,-1
 196 500 l 1,7,-1
 241 500 l 1,8,-1
 241 63 l 1,9,-1
 326 43 l 1,10,-1
 326 0 l 1,0,-1
EndSplineSet
EndChar

StartChar: OE
Encoding: 338 338 195
Width: 1093
Flags: W
LayerCount: 2
Fore
SplineSet
603 348 m 0,0,1
 603 563 603 563 480 633 c 0,2,3
 439 656 439 656 386 656 c 128,-1,4
 333 656 333 656 294.5 632 c 128,-1,5
 256 608 256 608 230 566.5 c 128,-1,6
 204 525 204 525 191.5 469 c 128,-1,7
 179 413 179 413 179 350 c 0,8,9
 179 216 179 216 233 130 c 128,-1,10
 287 44 287 44 386.5 44 c 128,-1,11
 486 44 486 44 544.5 131 c 128,-1,12
 603 218 603 218 603 348 c 0,0,1
386 715 m 0,13,14
 517 715 517 715 596 606 c 1,15,-1
 596 700 l 1,16,-1
 1020 700 l 1,17,-1
 1020 495 l 1,18,-1
 974 495 l 1,19,-1
 932 633 l 1,20,-1
 707 633 l 1,21,-1
 707 383 l 1,22,-1
 930 403 l 1,23,-1
 930 314 l 1,24,-1
 707 333 l 1,25,-1
 707 67 l 1,26,-1
 931 67 l 1,27,-1
 1004 216 l 1,28,-1
 1050 216 l 1,29,-1
 1020 0 l 1,30,-1
 596 0 l 1,31,-1
 596 93 l 1,32,33
 518 -15 518 -15 386 -15 c 0,34,35
 222 -15 222 -15 136.5 87 c 128,-1,36
 51 189 51 189 51 350 c 0,37,38
 51 601 51 601 236 686 c 0,39,40
 299 715 299 715 386 715 c 0,13,14
EndSplineSet
EndChar

StartChar: oe
Encoding: 339 339 196
Width: 923
Flags: W
LayerCount: 2
Fore
SplineSet
714 445 m 0,0,1
 697 459 697 459 671 460 c 0,2,3
 670 460 670 460 669 460 c 0,4,5
 620 460 620 460 590 415 c 0,6,7
 560 369 560 369 553 295 c 1,8,-1
 765 312 l 1,9,10
 761 408 761 408 714 445 c 0,0,1
293.5 40 m 128,-1,12
 325 40 325 40 349 55 c 128,-1,13
 373 70 373 70 389 97.5 c 128,-1,14
 405 125 405 125 413 164 c 128,-1,15
 421 203 421 203 421 250 c 0,16,17
 421 348 421 348 388.5 404 c 128,-1,18
 356 460 356 460 294 460 c 0,19,20
 200 460 200 460 175 336 c 0,21,22
 167 297 167 297 167 250 c 128,-1,23
 167 203 167 203 175 164 c 128,-1,24
 183 125 183 125 199 97.5 c 128,-1,25
 215 70 215 70 238.5 55 c 128,-1,11
 262 40 262 40 293.5 40 c 128,-1,12
885 247 m 1,26,-1
 553 247 l 1,27,28
 563 113 563 113 657 66 c 0,29,30
 690 50 690 50 739 50 c 128,-1,31
 788 50 788 50 850 73 c 1,32,-1
 865 26 l 1,33,34
 772 -15 772 -15 690 -15 c 0,35,36
 559 -15 559 -15 491 84 c 1,37,38
 420 -15 420 -15 302 -15 c 128,-1,39
 184 -15 184 -15 113 59.5 c 128,-1,40
 42 134 42 134 42 250 c 128,-1,41
 42 366 42 366 113 440.5 c 128,-1,42
 184 515 184 515 300.5 515 c 128,-1,43
 417 515 417 515 488 420 c 1,44,45
 554 515 554 515 668.5 515 c 128,-1,46
 783 515 783 515 834 439.5 c 128,-1,47
 885 364 885 364 885 247 c 1,26,-1
EndSplineSet
EndChar

StartChar: circumflex
Encoding: 710 710 197
Width: 351
Flags: W
LayerCount: 2
Fore
SplineSet
334 581 m 1,0,-1
 288 557 l 1,1,-1
 175 684 l 1,2,-1
 63 557 l 1,3,-1
 18 581 l 1,4,-1
 133 766 l 1,5,-1
 217 766 l 1,6,-1
 334 581 l 1,0,-1
EndSplineSet
EndChar

StartChar: caron
Encoding: 711 711 198
Width: 352
Flags: W
LayerCount: 2
Fore
SplineSet
217 582 m 1,0,-1
 133 582 l 1,1,-1
 18 767 l 1,2,-1
 63 791 l 1,3,-1
 175 664 l 1,4,-1
 288 791 l 1,5,-1
 334 767 l 1,6,-1
 217 582 l 1,0,-1
EndSplineSet
EndChar

StartChar: ring
Encoding: 730 730 199
Width: 258
Flags: W
LayerCount: 2
Fore
SplineSet
74 670.5 m 128,-1,1
 74 648 74 648 90 632 c 128,-1,2
 106 616 106 616 129 616 c 128,-1,3
 152 616 152 616 168 632 c 128,-1,4
 184 648 184 648 184 670.5 c 128,-1,5
 184 693 184 693 168 709.5 c 128,-1,6
 152 726 152 726 129 726 c 128,-1,7
 106 726 106 726 90 709.5 c 128,-1,0
 74 693 74 693 74 670.5 c 128,-1,1
52 748 m 128,-1,9
 84 780 84 780 118 780 c 0,10,11
 174 780 174 780 206 748 c 128,-1,12
 238 716 238 716 238 682 c 0,13,14
 238 626 238 626 206 594 c 128,-1,15
 174 562 174 562 140 562 c 128,-1,16
 106 562 106 562 86.5 570.5 c 128,-1,17
 67 579 67 579 52 594 c 0,18,19
 20 626 20 626 20 671 c 128,-1,8
 20 716 20 716 52 748 c 128,-1,9
EndSplineSet
EndChar

StartChar: tilde
Encoding: 732 732 200
Width: 416
Flags: W
LayerCount: 2
Fore
SplineSet
145 733 m 0,0,1
 182 733 182 733 206 714.5 c 128,-1,2
 230 696 230 696 243 687.5 c 128,-1,3
 256 679 256 679 287 679 c 128,-1,4
 318 679 318 679 365 719 c 1,5,-1
 396 692 l 1,6,7
 337 602 337 602 263 602 c 0,8,9
 225 602 225 602 201 620.5 c 128,-1,10
 177 639 177 639 164 647.5 c 128,-1,11
 151 656 151 656 125 656 c 128,-1,12
 99 656 99 656 42 615 c 1,13,-1
 11 643 l 1,14,15
 76 733 76 733 145 733 c 0,0,1
EndSplineSet
EndChar

StartChar: endash
Encoding: 8211 8211 201
Width: 656
Flags: W
LayerCount: 2
Fore
SplineSet
582 241 m 1,0,-1
 72 241 l 1,1,-1
 72 305 l 1,2,-1
 582 305 l 1,3,-1
 582 241 l 1,0,-1
EndSplineSet
EndChar

StartChar: emdash
Encoding: 8212 8212 202
Width: 1156
Flags: W
LayerCount: 2
Fore
SplineSet
1082 241 m 1,0,-1
 72 241 l 1,1,-1
 72 305 l 1,2,-1
 1082 305 l 1,3,-1
 1082 241 l 1,0,-1
EndSplineSet
EndChar

StartChar: quoteleft
Encoding: 8216 8216 203
Width: 238
Flags: W
LayerCount: 2
Fore
SplineSet
116 444 m 0,0,1
 41 444 41 444 41 524 c 128,-1,2
 41 604 41 604 134 702 c 0,3,4
 157 727 157 727 176 742 c 1,5,-1
 214 708 l 1,6,7
 151 643 151 643 124 571 c 1,8,-1
 189 520 l 1,9,10
 189 485 189 485 166.5 464.5 c 128,-1,11
 144 444 144 444 116 444 c 0,0,1
EndSplineSet
EndChar

StartChar: quoteright
Encoding: 8217 8217 204
Width: 240
Flags: W
LayerCount: 2
Fore
SplineSet
135 721 m 0,0,1
 210 721 210 721 210 640.5 c 128,-1,2
 210 560 210 560 118 462 c 0,3,4
 94 437 94 437 75 423 c 1,5,-1
 38 457 l 1,6,7
 97 519 97 519 128 594 c 1,8,-1
 62 646 l 1,9,10
 62 680 62 680 85 700.5 c 128,-1,11
 108 721 108 721 135 721 c 0,0,1
EndSplineSet
EndChar

StartChar: quotesinglbase
Encoding: 8218 8218 205
Width: 238
Flags: W
LayerCount: 2
Fore
SplineSet
116 125 m 0,0,1
 191 125 191 125 191 45 c 0,2,3
 191 -36 191 -36 98 -134 c 0,4,5
 75 -159 75 -159 56 -173 c 1,6,-1
 19 -140 l 1,7,8
 77 -79 77 -79 109 -2 c 1,9,-1
 43 49 l 1,10,11
 43 84 43 84 66 104.5 c 128,-1,12
 89 125 89 125 116 125 c 0,0,1
EndSplineSet
EndChar

StartChar: quotedblleft
Encoding: 8220 8220 206
Width: 417
Flags: W
LayerCount: 2
Fore
SplineSet
293 446 m 128,-1,1
 262 446 262 446 241.5 466.5 c 128,-1,2
 221 487 221 487 221 522 c 0,3,4
 221 578 221 578 265 642.5 c 128,-1,5
 309 707 309 707 356 744 c 1,6,-1
 394 710 l 1,7,8
 335 649 335 649 303 573 c 1,9,-1
 369 521 l 1,10,11
 369 487 369 487 346.5 466.5 c 128,-1,0
 324 446 324 446 293 446 c 128,-1,1
116 446 m 0,12,13
 41 446 41 446 41 526 c 128,-1,14
 41 606 41 606 134 704 c 0,15,16
 157 729 157 729 176 744 c 1,17,-1
 214 710 l 1,18,19
 151 645 151 645 124 573 c 1,20,-1
 189 521 l 1,21,22
 189 487 189 487 166.5 466.5 c 128,-1,23
 144 446 144 446 116 446 c 0,12,13
EndSplineSet
EndChar

StartChar: quotedblright
Encoding: 8221 8221 207
Width: 421
Flags: W
LayerCount: 2
Fore
SplineSet
315 721 m 0,0,1
 391 721 391 721 391 641 c 128,-1,2
 391 561 391 561 298 462 c 0,3,4
 274 437 274 437 255 423 c 1,5,-1
 218 457 l 1,6,7
 276 516 276 516 308 594 c 1,8,-1
 242 646 l 1,9,10
 242 680 242 680 265 700.5 c 128,-1,11
 288 721 288 721 315 721 c 0,0,1
135 721 m 0,12,13
 210 721 210 721 210 640.5 c 128,-1,14
 210 560 210 560 118 462 c 0,15,16
 94 437 94 437 75 423 c 1,17,-1
 38 457 l 1,18,19
 97 519 97 519 128 594 c 1,20,-1
 62 646 l 1,21,22
 62 680 62 680 85 700.5 c 128,-1,23
 108 721 108 721 135 721 c 0,12,13
EndSplineSet
EndChar

StartChar: quotedblbase
Encoding: 8222 8222 208
Width: 419
Flags: W
LayerCount: 2
Fore
SplineSet
296 125 m 0,0,1
 372 125 372 125 372 45 c 128,-1,2
 372 -35 372 -35 278 -134 c 0,3,4
 255 -159 255 -159 236 -173 c 1,5,-1
 199 -140 l 1,6,7
 256 -82 256 -82 289 -2 c 1,8,-1
 223 49 l 1,9,10
 223 84 223 84 246 104.5 c 128,-1,11
 269 125 269 125 296 125 c 0,0,1
116 125 m 0,12,13
 191 125 191 125 191 45 c 0,14,15
 191 -36 191 -36 98 -134 c 0,16,17
 75 -159 75 -159 56 -173 c 1,18,-1
 19 -140 l 1,19,20
 77 -79 77 -79 109 -2 c 1,21,-1
 43 49 l 1,22,23
 43 84 43 84 66 104.5 c 128,-1,24
 89 125 89 125 116 125 c 0,12,13
EndSplineSet
EndChar

StartChar: bullet
Encoding: 8226 8226 209
Width: 442
Flags: W
LayerCount: 2
Fore
SplineSet
71 357 m 128,-1,1
 71 388 71 388 83 415 c 128,-1,2
 95 442 95 442 115.5 462.5 c 128,-1,3
 136 483 136 483 163 495 c 128,-1,4
 190 507 190 507 221 507 c 128,-1,5
 252 507 252 507 279 495 c 128,-1,6
 306 483 306 483 326.5 462.5 c 128,-1,7
 347 442 347 442 359 415 c 128,-1,8
 371 388 371 388 371 357 c 128,-1,9
 371 326 371 326 359 299 c 128,-1,10
 347 272 347 272 326.5 251.5 c 128,-1,11
 306 231 306 231 279 219 c 128,-1,12
 252 207 252 207 221 207 c 128,-1,13
 190 207 190 207 163 219 c 128,-1,14
 136 231 136 231 115.5 251.5 c 128,-1,15
 95 272 95 272 83 299 c 128,-1,0
 71 326 71 326 71 357 c 128,-1,1
EndSplineSet
EndChar

StartChar: guilsinglleft
Encoding: 8249 8249 210
Width: 304
Flags: W
LayerCount: 2
Fore
SplineSet
46 286 m 1,0,-1
 209 470 l 1,1,-1
 254 450 l 1,2,-1
 163 270 l 1,3,-1
 254 90 l 1,4,-1
 209 70 l 1,5,-1
 46 254 l 1,6,-1
 46 286 l 1,0,-1
EndSplineSet
EndChar

StartChar: guilsinglright
Encoding: 8250 8250 211
Width: 304
Flags: W
LayerCount: 2
Fore
SplineSet
258 254 m 1,0,-1
 95 70 l 1,1,-1
 50 90 l 1,2,-1
 141 270 l 1,3,-1
 50 450 l 1,4,-1
 95 470 l 1,5,-1
 258 286 l 1,6,-1
 258 254 l 1,0,-1
EndSplineSet
EndChar

StartChar: fraction
Encoding: 8260 8260 212
Width: 397
Flags: W
LayerCount: 2
Fore
SplineSet
57 0 m 1,0,-1
 -14 0 l 1,1,-1
 343 715 l 1,2,-1
 413 715 l 1,3,-1
 57 0 l 1,0,-1
EndSplineSet
EndChar

StartChar: foursuperior
Encoding: 8308 8308 213
Width: 391
Flags: W
LayerCount: 2
Fore
SplineSet
224 418 m 1,0,-1
 224 588 l 1,1,-1
 91 418 l 1,2,-1
 224 418 l 1,0,-1
305 710 m 1,3,-1
 305 418 l 1,4,-1
 354 418 l 1,5,-1
 354 371 l 1,6,-1
 305 371 l 1,7,-1
 305 286 l 1,8,-1
 225 286 l 1,9,-1
 225 371 l 1,10,-1
 20 371 l 1,11,-1
 20 405 l 1,12,-1
 257 710 l 1,13,-1
 305 710 l 1,3,-1
EndSplineSet
EndChar

StartChar: Euro
Encoding: 8364 8364 214
Width: 687
Flags: W
LayerCount: 2
Fore
SplineSet
47 240 m 1,0,-1
 47 288 l 1,1,-1
 106 291 l 1,2,3
 103 319 103 319 103 350 c 2,4,-1
 103 366 l 2,5,6
 103 374 103 374 104 382 c 1,7,-1
 47 382 l 1,8,-1
 47 429 l 1,9,-1
 108 433 l 1,10,11
 146 715 146 715 436 715 c 0,12,13
 531 715 531 715 620 676 c 1,14,-1
 620 491 l 1,15,-1
 575 491 l 1,16,-1
 529 640 l 1,17,18
 489 648 489 648 446 648 c 0,19,20
 266 648 266 648 235 439 c 1,21,-1
 503 455 l 1,22,-1
 478 382 l 1,23,-1
 230 382 l 1,24,25
 229 374 229 374 229 366 c 2,26,-1
 229 323 l 2,27,28
 229 310 229 310 231 298 c 1,29,-1
 455 312 l 1,30,-1
 430 240 l 1,31,-1
 238 240 l 1,32,33
 273 52 273 52 429 52 c 0,34,35
 477 52 477 52 509 60 c 1,36,-1
 586 218 l 1,37,-1
 632 218 l 1,38,-1
 606 34 l 1,39,40
 520 -15 520 -15 406 -15 c 128,-1,41
 292 -15 292 -15 214 52.5 c 128,-1,42
 136 120 136 120 113 240 c 1,43,-1
 47 240 l 1,0,-1
EndSplineSet
EndChar

StartChar: minus
Encoding: 8722 8722 215
Width: 588
Flags: W
LayerCount: 2
Fore
SplineSet
69 391 m 1,0,-1
 519 391 l 1,1,-1
 519 323 l 1,2,-1
 69 323 l 1,3,-1
 69 391 l 1,0,-1
EndSplineSet
EndChar

StartChar: foundryicon
Encoding: 65540 -1 217
Width: 1056
Flags: W
LayerCount: 2
Fore
SplineSet
431 242 m 1,0,1
 431 258 431 258 420 258 c 128,-1,2
 409 258 409 258 406 242 c 1,3,-1
 431 242 l 1,0,1
518.5 204 m 128,-1,5
 527 204 527 204 531 207 c 1,6,-1
 531 222 l 1,7,-1
 523 222 l 2,8,9
 510 222 510 222 510 213 c 128,-1,4
 510 204 510 204 518.5 204 c 128,-1,5
936 247 m 128,-1,11
 936 232 936 232 947 232 c 128,-1,12
 958 232 958 232 958 247 c 128,-1,13
 958 262 958 262 947 262 c 128,-1,10
 936 262 936 262 936 247 c 128,-1,11
749 206 m 128,-1,15
 763 206 763 206 763 231 c 128,-1,16
 763 256 763 256 749 256 c 128,-1,17
 735 256 735 256 735 231 c 128,-1,14
 735 206 735 206 749 206 c 128,-1,15
672 180 m 128,-1,19
 651 180 651 180 651 199.5 c 128,-1,20
 651 219 651 219 672 219 c 128,-1,21
 693 219 693 219 693 199.5 c 128,-1,18
 693 180 693 180 672 180 c 128,-1,19
589 285 m 1,22,-1
 577 285 l 1,23,-1
 577 316 l 1,24,-1
 624 316 l 1,25,-1
 624 212 l 1,26,-1
 638 212 l 1,27,-1
 638 184 l 1,28,29
 629 180 629 180 616 180 c 0,30,31
 589 180 589 180 589 208 c 2,32,-1
 589 285 l 1,22,-1
363 251 m 1,33,-1
 329 251 l 1,34,-1
 329 212 l 1,35,-1
 346 212 l 1,36,-1
 346 182 l 1,37,-1
 284 182 l 1,38,-1
 284 212 l 1,39,-1
 294 212 l 1,40,-1
 294 251 l 1,41,-1
 282 251 l 1,42,-1
 282 282 l 1,43,-1
 316 282 l 1,44,-1
 326 266 l 1,45,46
 333 284 333 284 345 284 c 128,-1,47
 357 284 357 284 363 282 c 1,48,-1
 363 251 l 1,33,-1
892 251 m 1,49,-1
 858 251 l 1,50,-1
 858 212 l 1,51,-1
 875 212 l 1,52,-1
 875 182 l 1,53,-1
 813 182 l 1,54,-1
 813 212 l 1,55,-1
 822 212 l 1,56,-1
 822 251 l 1,57,-1
 811 251 l 1,58,-1
 811 282 l 1,59,-1
 845 282 l 1,60,-1
 855 266 l 1,61,62
 862 284 862 284 874 284 c 128,-1,63
 886 284 886 284 892 282 c 1,64,-1
 892 251 l 1,49,-1
464 247 m 128,-1,66
 464 234 464 234 462 224 c 1,67,-1
 407 224 l 1,68,69
 411 212 411 212 432 212 c 2,70,-1
 461 212 l 1,71,-1
 461 186 l 1,72,73
 447 179 447 179 424 179 c 0,74,75
 371 179 371 179 371 231.5 c 128,-1,76
 371 284 371 284 420 284 c 0,77,78
 440 284 440 284 452 272 c 128,-1,65
 464 260 464 260 464 247 c 128,-1,66
520 284 m 0,79,80
 566 284 566 284 566 246 c 2,81,-1
 566 212 l 1,82,-1
 577 212 l 1,83,-1
 577 185 l 1,84,85
 569 180 569 180 555 180 c 128,-1,86
 541 180 541 180 535 187 c 1,87,88
 526 179 526 179 510 179 c 0,89,90
 476 179 476 179 476 209.5 c 128,-1,91
 476 240 476 240 515 240 c 2,92,-1
 531 240 l 1,93,-1
 531 241 l 2,94,95
 531 251 531 251 509 251 c 2,96,-1
 484 251 l 1,97,-1
 484 277 l 1,98,99
 505 284 505 284 520 284 c 0,79,80
749 284 m 128,-1,101
 799 284 799 284 799 231.5 c 128,-1,102
 799 179 799 179 749 179 c 128,-1,103
 699 179 699 179 699 231.5 c 128,-1,100
 699 284 699 284 749 284 c 128,-1,101
118 285 m 0,104,105
 89 285 89 285 89 248.5 c 128,-1,106
 89 212 89 212 126 212 c 2,107,-1
 158 212 l 1,108,-1
 158 187 l 1,109,110
 140 179 140 179 113 179 c 128,-1,111
 86 179 86 179 68.5 196.5 c 128,-1,112
 51 214 51 214 51 245 c 0,113,114
 51 316 51 316 119 316 c 0,115,116
 135 316 135 316 158 309 c 1,117,-1
 158 269 l 1,118,-1
 127 269 l 1,119,-1
 127 284 l 1,120,121
 124 285 124 285 118 285 c 0,104,105
176 171 m 1,122,-1
 193 171 l 2,123,124
 209 171 209 171 214 182 c 1,125,-1
 200 182 l 1,126,-1
 176 251 l 1,127,-1
 166 251 l 1,128,-1
 166 282 l 1,129,-1
 204 282 l 1,130,-1
 218 233 l 1,131,-1
 223 209 l 1,132,-1
 234 251 l 1,133,-1
 225 251 l 1,134,-1
 225 282 l 1,135,-1
 268 282 l 1,136,-1
 268 251 l 1,137,-1
 245 175 l 1,138,139
 235 138 235 138 200 138 c 0,140,141
 183 138 183 138 176 145 c 1,142,-1
 176 171 l 1,122,-1
993 284 m 128,-1,144
 1001 284 1001 284 1007 282 c 1,145,-1
 1007 251 l 1,146,-1
 991 251 l 1,147,148
 992 249 992 249 992 240.5 c 128,-1,149
 992 232 992 232 981 221.5 c 128,-1,150
 970 211 970 211 954 211 c 128,-1,151
 938 211 938 211 935 212 c 1,152,-1
 935 197 l 1,153,-1
 953 197 l 2,154,155
 992 197 992 197 992 161 c 0,156,157
 992 150 992 150 986 138 c 1,158,-1
 959 138 l 1,159,-1
 959 167 l 1,160,-1
 913 167 l 1,161,162
 903 175 903 175 903 191 c 128,-1,163
 903 207 903 207 917 219 c 1,164,165
 903 227 903 227 903 245 c 0,166,167
 903 284 903 284 946 284 c 0,168,169
 964 284 964 284 977 274 c 1,170,143
 985 284 985 284 993 284 c 128,-1,144
EndSplineSet
EndChar

StartChar: grave.case
Encoding: 65541 -1 218
Width: 252
Flags: W
LayerCount: 2
Fore
SplineSet
209 767 m 1,0,-1
 182 735 l 1,1,-1
 -32 826 l 1,2,3
 -1 888 -1 888 51 904 c 1,4,-1
 209 767 l 1,0,-1
EndSplineSet
EndChar

StartChar: acute.case
Encoding: 65542 -1 219
Width: 252
Flags: W
LayerCount: 2
Fore
SplineSet
165 904 m 1,0,1
 214 889 214 889 248 826 c 1,2,-1
 34 735 l 1,3,-1
 7 767 l 1,4,-1
 165 904 l 1,0,1
EndSplineSet
EndChar

StartChar: circumflex.case
Encoding: 65543 -1 220
Width: 355
Flags: W
LayerCount: 2
Fore
SplineSet
357 767 m 1,0,-1
 307 744 l 1,1,-1
 185 836 l 1,2,-1
 54 743 l 1,3,-1
 8 767 l 1,4,-1
 143 913 l 1,5,-1
 227 913 l 1,6,-1
 357 767 l 1,0,-1
EndSplineSet
EndChar

StartChar: dieresis.case
Encoding: 65544 -1 221
Width: 376
Flags: W
LayerCount: 2
Fore
SplineSet
234 827 m 128,-1,1
 234 855 234 855 253 873.5 c 128,-1,2
 272 892 272 892 300 892 c 128,-1,3
 328 892 328 892 346.5 873.5 c 128,-1,4
 365 855 365 855 365 827 c 128,-1,5
 365 799 365 799 346.5 780 c 128,-1,6
 328 761 328 761 300 761 c 128,-1,7
 272 761 272 761 253 780 c 128,-1,0
 234 799 234 799 234 827 c 128,-1,1
85 892 m 128,-1,9
 113 892 113 892 131.5 873.5 c 128,-1,10
 150 855 150 855 150 827 c 128,-1,11
 150 799 150 799 131.5 780 c 128,-1,12
 113 761 113 761 85 761 c 128,-1,13
 57 761 57 761 38.5 780 c 128,-1,14
 20 799 20 799 20 827 c 128,-1,15
 20 855 20 855 38.5 873.5 c 128,-1,8
 57 892 57 892 85 892 c 128,-1,9
EndSplineSet
EndChar

StartChar: tilde.case
Encoding: 65545 -1 222
Width: 383
Flags: W
LayerCount: 2
Fore
SplineSet
273 857 m 128,-1,1
 295 857 295 857 347 899 c 1,2,-1
 377 870 l 1,3,4
 329 777 329 777 254 777 c 0,5,6
 230 777 230 777 189 805.5 c 128,-1,7
 148 834 148 834 123.5 834 c 128,-1,8
 99 834 99 834 83 823.5 c 128,-1,9
 67 813 67 813 38 792 c 1,10,-1
 7 823 l 1,11,12
 62 914 62 914 131 914 c 0,13,14
 162 914 162 914 205 886 c 2,15,-1
 236 866 l 2,16,0
 251 857 251 857 273 857 c 128,-1,1
EndSplineSet
EndChar

StartChar: ring.case
Encoding: 65546 -1 223
Width: 252
Flags: W
LayerCount: 2
Fore
SplineSet
71 861.5 m 128,-1,1
 71 839 71 839 87 822.5 c 128,-1,2
 103 806 103 806 126 806 c 128,-1,3
 149 806 149 806 165 822.5 c 128,-1,4
 181 839 181 839 181 861.5 c 128,-1,5
 181 884 181 884 165 900 c 128,-1,6
 149 916 149 916 126 916 c 128,-1,7
 103 916 103 916 87 900 c 128,-1,0
 71 884 71 884 71 861.5 c 128,-1,1
49 938 m 128,-1,9
 81 970 81 970 114 970 c 0,10,11
 171 970 171 970 203 938 c 128,-1,12
 235 906 235 906 235 872 c 0,13,14
 235 816 235 816 203 784 c 128,-1,15
 171 752 171 752 137 752 c 128,-1,16
 103 752 103 752 83.5 760.5 c 128,-1,17
 64 769 64 769 49 784 c 0,18,19
 17 816 17 816 17 861 c 128,-1,8
 17 906 17 906 49 938 c 128,-1,9
EndSplineSet
EndChar

StartChar: caron.case
Encoding: 65547 -1 224
Width: 344
Flags: W
LayerCount: 2
Fore
SplineSet
3 913 m 1,0,-1
 54 936 l 1,1,-1
 176 843 l 1,2,-1
 307 937 l 1,3,-1
 353 913 l 1,4,-1
 218 767 l 1,5,-1
 134 767 l 1,6,-1
 3 913 l 1,0,-1
EndSplineSet
EndChar
